<svg width="95" height="95" viewBox="0 0 95 95" fill="none" xmlns="http://www.w3.org/2000/svg">
<circle cx="47.5" cy="47.5" r="46" fill="white" stroke="#91ABFF" stroke-width="3"/>
<path d="M40.4473 43.7871L39.3682 46.7515H41.5518L40.4473 43.7871Z" fill="white"/>
<path d="M59.0395 31.4844H32.8174C31.77 31.4844 30.9131 32.3413 30.9131 33.3887V59.6108C30.9131 60.6582 31.77 61.5151 32.8174 61.5151H59.0395C60.0869 61.5151 60.9438 60.6582 60.9438 59.6108V33.3887C60.9438 32.335 60.0869 31.4844 59.0395 31.4844ZM52.7681 41.9263H54.3804V49.9116H52.7681V41.9263ZM45.373 41.9263H47.9629C48.9468 41.9263 49.5815 41.9644 49.8799 42.0469C50.3369 42.1675 50.7178 42.4277 51.0288 42.8276C51.3398 43.2275 51.4922 43.748 51.4922 44.3828C51.4922 44.8716 51.4033 45.2842 51.2256 45.6206C51.0479 45.957 50.8193 46.2173 50.5464 46.4077C50.2734 46.5981 49.9941 46.7251 49.7085 46.7886C49.3213 46.8647 48.769 46.9028 48.0327 46.9028H46.979V49.9116H45.373V41.9263ZM39.6157 41.9263H41.3232L44.5161 49.9116H42.7642L42.0659 48.0962H38.873L38.2129 49.9116H36.499L39.6157 41.9263ZM54.1582 59.2744H35.3818C34.1504 59.2744 33.1538 58.2778 33.1538 57.0464V38.3208C33.1538 37.9717 33.4395 37.686 33.7886 37.686C34.1377 37.686 34.4233 37.9717 34.4233 38.3208V57.0464C34.4233 57.5732 34.855 58.0049 35.3818 58.0049H54.1582C54.5073 58.0049 54.793 58.2905 54.793 58.6396C54.793 58.9888 54.5137 59.2744 54.1582 59.2744Z" fill="white"/>
<path d="M49.1436 45.4189C49.3594 45.3364 49.5244 45.2031 49.645 45.0254C49.7656 44.8477 49.8291 44.6382 49.8291 44.4033C49.8291 44.1113 49.7466 43.8701 49.5752 43.686C49.4038 43.4956 49.188 43.3813 48.9277 43.3306C48.7373 43.2925 48.3501 43.2734 47.7661 43.2734H46.9854V45.5396H47.8677C48.5024 45.5459 48.9277 45.5015 49.1436 45.4189Z" fill="white"/>
<path d="M54.1582 58.0063H35.3818C34.855 58.0063 34.4233 57.5747 34.4233 57.0479V38.3223C34.4233 37.9731 34.1377 37.6875 33.7886 37.6875C33.4395 37.6875 33.1538 37.9731 33.1538 38.3223V57.0479C33.1538 58.2793 34.1504 59.2759 35.3818 59.2759H54.1582C54.5073 59.2759 54.793 58.9902 54.793 58.6411C54.793 58.292 54.5137 58.0063 54.1582 58.0063Z" fill="#FF8D67"/>
<path d="M67.9072 39.5337C68.6055 39.5337 69.1768 38.9624 69.1768 38.2642C69.1768 37.5659 68.6055 36.9946 67.9072 36.9946H63.4829V33.3892C63.4829 30.939 61.4897 28.9458 59.0396 28.9458H57.2749V24.6738C57.2749 23.9756 56.7036 23.4043 56.0054 23.4043C55.3071 23.4043 54.7358 23.9756 54.7358 24.6738V28.9458H51.7842V24.6738C51.7842 23.9756 51.2129 23.4043 50.5146 23.4043C49.8164 23.4043 49.2451 23.9756 49.2451 24.6738V28.9458H46.2935V24.6738C46.2935 23.9756 45.7222 23.4043 45.0239 23.4043C44.3257 23.4043 43.7544 23.9756 43.7544 24.6738V28.9458H40.8027V24.6738C40.8027 23.9756 40.2314 23.4043 39.5332 23.4043C38.835 23.4043 38.2637 23.9756 38.2637 24.6738V28.9458H32.8174C30.3672 28.9458 28.374 30.939 28.374 33.3892V36.9946H23.9497C23.2515 36.9946 22.6802 37.5659 22.6802 38.2642C22.6802 38.9624 23.2515 39.5337 23.9497 39.5337H28.374V42.4854H23.9497C23.2515 42.4854 22.6802 43.0566 22.6802 43.7549C22.6802 44.4531 23.2515 45.0244 23.9497 45.0244H28.374V47.9761H23.9497C23.2515 47.9761 22.6802 48.5474 22.6802 49.2456C22.6802 49.9438 23.2515 50.5151 23.9497 50.5151H28.374V53.4668H23.9497C23.2515 53.4668 22.6802 54.0381 22.6802 54.7363C22.6802 55.4346 23.2515 56.0059 23.9497 56.0059H28.374V59.6113C28.374 62.0615 30.3672 64.0547 32.8174 64.0547H34.7725V68.6567C34.7725 69.355 35.3438 69.9263 36.042 69.9263C36.7402 69.9263 37.3115 69.355 37.3115 68.6567V64.0547H40.2632V68.6567C40.2632 69.355 40.8345 69.9263 41.5327 69.9263C42.231 69.9263 42.8022 69.355 42.8022 68.6567V64.0547H45.7539V68.6567C45.7539 69.355 46.3252 69.9263 47.0234 69.9263C47.7217 69.9263 48.293 69.355 48.293 68.6567V64.0547H51.2446V68.6567C51.2446 69.355 51.8159 69.9263 52.5142 69.9263C53.2124 69.9263 53.7837 69.355 53.7837 68.6567V64.0547H59.0396C61.4897 64.0547 63.4829 62.0615 63.4829 59.6113V56.0059H67.9072C68.6055 56.0059 69.1768 55.4346 69.1768 54.7363C69.1768 54.0381 68.6055 53.4668 67.9072 53.4668H63.4829V50.5151H67.9072C68.6055 50.5151 69.1768 49.9438 69.1768 49.2456C69.1768 48.5474 68.6055 47.9761 67.9072 47.9761H63.4829V45.0244H67.9072C68.6055 45.0244 69.1768 44.4531 69.1768 43.7549C69.1768 43.0566 68.6055 42.4854 67.9072 42.4854H63.4829V39.5337H67.9072ZM60.9438 59.605C60.9438 60.6523 60.0869 61.5093 59.0396 61.5093H32.8174C31.77 61.5093 30.9131 60.6523 30.9131 59.605V33.3892C30.9131 32.3418 31.77 31.4849 32.8174 31.4849H59.0396C60.0869 31.4849 60.9438 32.3418 60.9438 33.3892V59.605Z" fill="#194BED"/>
<path d="M38.873 48.0957H42.0659L42.7642 49.9111H44.5161L41.3169 41.9258H39.6094L36.499 49.9111H38.2129L38.873 48.0957ZM40.4473 43.7856L41.5454 46.75H39.3682L40.4473 43.7856ZM46.9854 46.9023H48.0391C48.769 46.9023 49.3276 46.8643 49.7148 46.7881C50.0005 46.7246 50.2798 46.5977 50.5527 46.4072C50.8257 46.2168 51.0542 45.9565 51.2319 45.6201C51.4097 45.2837 51.4985 44.8711 51.4985 44.3823C51.4985 43.7476 51.3462 43.227 51.0352 42.8271C50.7241 42.4272 50.3433 42.167 49.8862 42.0464C49.5879 41.9639 48.9468 41.9258 47.9692 41.9258H45.373V49.9111H46.9854V46.9023ZM46.9854 43.2778H47.7661C48.3501 43.2778 48.731 43.2969 48.9277 43.335C49.188 43.3794 49.4038 43.5 49.5752 43.6904C49.7466 43.8809 49.8291 44.1221 49.8291 44.4077C49.8291 44.6426 49.7656 44.8521 49.645 45.0298C49.5244 45.2075 49.353 45.3408 49.1436 45.4233C48.9277 45.5059 48.5024 45.5503 47.8677 45.5503H46.9854V43.2778ZM52.7681 41.9258H54.3804V49.9111H52.7681V41.9258Z" fill="#91ABFF"/>
</svg>
