<svg width="95" height="95" viewBox="0 0 95 95" fill="none" xmlns="http://www.w3.org/2000/svg">
<circle cx="47.5" cy="47.5" r="46" fill="white" stroke="#91ABFF" stroke-width="3"/>
<g clip-path="url(#clip0_1888_18802)">
<path d="M77.1308 42.2879L71.7799 41.7918C71.2083 39.6035 70.3363 37.51 69.1806 35.5518L72.6141 31.417C72.93 31.0366 72.9041 30.4781 72.5544 30.1284L65.8479 23.4219C65.4981 23.0722 64.9398 23.0463 64.5592 23.3623L60.4175 26.8012C58.4582 25.6487 56.3636 24.7799 54.1738 24.2114L53.6785 18.8689C53.6329 18.3765 53.2198 18 52.7253 18H43.241C42.7464 18 42.3334 18.3766 42.2876 18.8691L41.7916 24.2199C39.6029 24.7916 37.5097 25.6637 35.5516 26.8192L31.4169 23.3859C31.0365 23.07 30.4781 23.0958 30.1283 23.4456L23.4218 30.1519C23.0721 30.5015 23.0462 31.0601 23.3621 31.4404L26.8012 35.5822C25.6487 37.5413 24.7799 39.6359 24.2113 41.8258L18.8688 42.321C18.3766 42.3667 18 42.7798 18 43.2745V52.7256C18 53.2202 18.3766 53.6333 18.8691 53.679L24.2115 54.1742C24.7801 56.3642 25.6489 58.4587 26.8015 60.4179L23.3624 64.5597C23.0464 64.9401 23.0723 65.4986 23.422 65.8483L30.1285 72.5548C30.4783 72.9046 31.0368 72.9305 31.4171 72.6144L35.552 69.1811C37.5102 70.3368 39.6032 71.2086 41.7919 71.7802L42.288 77.1311C42.3336 77.6235 42.7468 78.0001 43.2413 78.0001H52.7256C53.2202 78.0001 53.6333 77.6235 53.679 77.1311L54.1743 71.7886C56.3641 71.2201 58.4587 70.3513 60.4179 69.1987L64.5597 72.6376C64.9402 72.9538 65.4985 72.9275 65.8484 72.578L72.5549 65.8715C72.9046 65.5218 72.9304 64.9633 72.6145 64.5829L69.1811 60.448C70.3367 58.4901 71.2086 56.3968 71.7802 54.2081L77.1311 53.712C77.6235 53.6664 78.0001 53.2532 78.0001 52.7587V43.2411C77.9999 42.7467 77.6232 42.3335 77.1308 42.2879ZM76.085 51.886L70.9248 52.3643C70.5136 52.4024 70.1732 52.6999 70.0804 53.1023C69.5145 55.5524 68.5444 57.8814 67.197 60.0243C66.9767 60.3747 67.0065 60.8271 67.2709 61.1455L70.5836 65.1349L65.1115 70.607L61.116 67.2896C60.798 67.0255 60.3463 66.9952 59.9961 67.2149C57.8516 68.5587 55.5214 69.5251 53.0699 70.0876C52.6669 70.1801 52.3688 70.5208 52.3307 70.9324L51.8531 76.0852H44.114L43.6357 70.9249C43.5976 70.5137 43.3001 70.1734 42.8977 70.0805C40.4477 69.5146 38.1188 68.5445 35.9757 67.1972C35.6254 66.977 35.173 67.0068 34.8545 67.2713L30.8651 70.5838L25.393 65.1117L28.7106 61.1164C28.9747 60.7982 29.0048 60.3466 28.7852 59.9963C27.4415 57.8521 26.475 55.5217 25.9125 53.07C25.82 52.667 25.4794 52.3689 25.0677 52.3308L19.9148 51.8532V44.1476L25.0677 43.6701C25.4794 43.6319 25.8201 43.3339 25.9125 42.9308C26.475 40.4791 27.4415 38.1488 28.7852 36.0047C29.0048 35.6544 28.9747 35.2027 28.7106 34.8846L25.393 30.8892L30.8651 25.4171L34.8545 28.7297C35.173 28.9942 35.6253 29.024 35.9757 28.8036C38.1186 27.4563 40.4475 26.4862 42.8977 25.9203C43.3 25.8274 43.5974 25.487 43.6357 25.0759L44.114 19.9155H51.8527L52.3304 25.0684C52.3686 25.4801 52.6666 25.8208 53.0696 25.9132C55.521 26.4756 57.8513 27.4421 59.9957 28.7859C60.346 29.0054 60.7977 28.9754 61.1157 28.7113L65.1112 25.3938L70.5832 30.8659L67.2706 34.8553C67.0062 35.1737 66.9763 35.6261 67.1966 35.9765C68.5442 38.1198 69.5141 40.4487 70.08 42.8985C70.1729 43.301 70.5134 43.5984 70.9245 43.6365L76.0847 44.1147V51.886H76.085Z" fill="#194BED"/>
<path d="M47.9999 27.2559C36.5613 27.2559 27.2553 36.5618 27.2553 48.0005C27.2553 52.7939 28.9358 57.4729 31.9871 61.1752C32.3233 61.5833 32.9268 61.6415 33.335 61.3052C33.743 60.969 33.8012 60.3655 33.4649 59.9574C30.6953 56.5971 29.1703 52.3507 29.1703 48.0005C29.1702 37.6178 37.6171 29.1708 47.9999 29.1708C58.3827 29.1708 66.8297 37.6178 66.8297 48.0006C66.8297 58.3834 58.3827 66.8302 47.9999 66.8302C43.6496 66.8302 39.4032 65.305 36.0429 62.5356C35.6348 62.1992 35.0315 62.2575 34.6952 62.6655C34.359 63.0736 34.417 63.677 34.8251 64.0133C38.5274 67.0646 43.2064 68.7451 47.9999 68.7451C59.4386 68.7451 68.7445 59.4391 68.7445 48.0005C68.7445 36.5618 59.4386 27.2559 47.9999 27.2559Z" fill="#194BED"/>
<path d="M48 31.0859C38.673 31.0859 31.0851 38.674 31.0851 48.0009C31.0851 57.3277 38.673 64.9158 48 64.9158C57.3269 64.9158 64.9148 57.3278 64.9148 48.001C64.9148 38.6739 57.3269 31.0859 48 31.0859ZM61.9408 42.4646L55.846 44.4449C54.9829 42.5481 53.4528 41.018 51.556 40.1549L53.5363 34.0602C57.3613 35.5845 60.4163 38.6396 61.9408 42.4646ZM54.702 48.0011C54.702 51.6967 51.6953 54.7032 48 54.7032C44.3043 54.7032 41.2979 51.6966 41.2979 48.0011C41.2979 44.3054 44.3045 41.2988 48 41.2988C51.6955 41.2988 54.702 44.3055 54.702 48.0011ZM48 33.0008C49.2821 33.0009 50.527 33.1628 51.7156 33.4668L49.736 39.5595C49.175 39.4443 48.5944 39.3837 48 39.3837C47.4055 39.3837 46.8248 39.4442 46.2639 39.5595L44.2843 33.4668C45.4729 33.1628 46.7178 33.0008 48 33.0008ZM42.4637 34.0602L44.444 40.1549C42.5472 41.018 41.0172 42.5481 40.1541 44.4449L34.0594 42.4646C35.5835 38.6396 38.6386 35.5845 42.4637 34.0602ZM33 48.001C33 46.719 33.1619 45.474 33.466 44.2853L39.5587 46.265C39.4435 46.8259 39.3829 47.4065 39.3829 48.001C39.3829 48.5955 39.4434 49.1761 39.5587 49.737L33.466 51.7166C33.1619 50.5279 33 49.2831 33 48.001ZM34.0591 53.5374L40.1539 51.557C41.017 53.4538 42.547 54.9838 44.4438 55.8469L42.4634 61.9417C38.6386 60.4173 35.5837 57.3624 34.0591 53.5374ZM48 63.0011C46.7179 63.001 45.4729 62.8391 44.2843 62.535L46.2639 56.4423C46.8249 56.5575 47.4055 56.6181 48 56.6181C48.5944 56.6181 49.1751 56.5576 49.736 56.4423L51.7156 62.535C50.527 62.839 49.282 63.0011 48 63.0011ZM53.5362 61.9418L51.5559 55.847C53.4527 54.9839 54.9828 53.4538 55.8459 51.557L61.9407 53.5374C60.4162 57.3624 57.3613 60.4173 53.5362 61.9418ZM56.4412 49.737C56.5564 49.176 56.617 48.5955 56.617 48.001C56.617 47.4065 56.5565 46.8258 56.4412 46.265L62.5339 44.2853C62.838 45.4741 62.9999 46.719 62.9999 48.001C62.9999 49.283 62.838 50.528 62.5339 51.7166L56.4412 49.737Z" fill="#FF8D67"/>
</g>
<defs>
<clipPath id="clip0_1888_18802">
<rect width="60" height="60" fill="white" transform="translate(18 18)"/>
</clipPath>
</defs>
</svg>
