<svg width="95" height="95" viewBox="0 0 95 95" fill="none" xmlns="http://www.w3.org/2000/svg">
<circle cx="47.5" cy="47.5" r="46" fill="white" stroke="#91ABFF" stroke-width="3"/>
<path d="M32.8769 61.892C32.254 61.892 31.6274 61.8086 31.0093 61.6398C29.108 61.1208 27.521 59.8616 26.5415 58.0939L26.2167 57.5073C24.2205 53.9056 25.416 49.2789 28.8813 47.1942L43.4963 38.4029C45.1754 37.3924 47.1364 37.1188 49.0122 37.631C50.9135 38.1501 52.4997 39.4097 53.4793 41.1774L53.8034 41.7621C55.7999 45.3654 54.6048 49.9924 51.1395 52.0767L49.8463 52.8543L48.3041 50.1917L49.5973 49.4137C51.6494 48.1793 52.3512 45.4295 51.162 43.2832L50.838 42.6985C50.2617 41.659 49.3348 40.9203 48.2271 40.6179C47.1427 40.3216 46.0105 40.4817 45.0384 41.0656L30.4235 49.8572C28.3714 51.0915 27.6696 53.8414 28.8584 55.9873L29.1832 56.5735C29.7587 57.612 30.6861 58.3507 31.7941 58.653C32.8785 58.9486 34.0109 58.7904 34.9824 58.205L38.2466 56.2413L39.7887 58.904L36.5245 60.8676C35.3982 61.5455 34.1458 61.892 32.8769 61.892Z" fill="#FF8D67"/>
<path d="M48.8558 59.6208C48.2329 59.6208 47.606 59.5374 46.9874 59.3687C45.0865 58.8497 43.5002 57.5901 42.5207 55.8224L42.1962 55.2369C40.2001 51.6344 41.3952 47.0077 44.8601 44.9233L46.1534 44.1454C46.8759 43.7117 47.8055 43.9559 48.2307 44.6909C48.6566 45.4262 48.4169 46.3744 47.6955 46.808L46.4022 47.586C44.3506 48.8203 43.6488 51.5706 44.8379 53.7164L45.162 54.3019C45.7379 55.3406 46.6648 56.0794 47.7725 56.3817C48.8566 56.6785 49.9894 56.5191 50.9616 55.9337L65.5766 47.1425C67.6287 45.9082 68.3305 43.1583 67.1413 41.0128L66.8165 40.4263C66.241 39.3878 65.314 38.6495 64.2063 38.3472C63.1223 38.0512 61.9893 38.2102 61.0172 38.7948L57.753 40.7584C57.0308 41.194 56.1016 40.949 55.6758 40.213C55.2499 39.4777 55.4895 38.5295 56.2109 38.0958L59.4752 36.1322C61.1544 35.1213 63.1123 34.8469 64.9914 35.3598C66.8924 35.8793 68.479 37.1385 69.4582 38.9062L69.7829 39.4924C71.7795 43.0942 70.5844 47.7208 67.1187 49.8056L52.5038 58.5968C51.3772 59.2743 50.1247 59.6208 48.8558 59.6208Z" fill="#194BED"/>
</svg>
