<svg width="26" height="24" viewBox="0 0 26 24" fill="none" xmlns="http://www.w3.org/2000/svg">
<path d="M10.6404 1.29399C11.2909 -0.432252 13.7328 -0.432254 14.3834 1.29399L16.5534 7.0521C16.7763 7.64355 17.2657 8.09482 17.8732 8.26918L23.5755 9.90573C25.5065 10.4599 25.5065 13.1963 23.5755 13.7505L17.8732 15.3871C17.2657 15.5614 16.7763 16.0127 16.5534 16.6041L14.3834 22.3623C13.7328 24.0885 11.2909 24.0885 10.6404 22.3623L8.47027 16.6041C8.24738 16.0127 7.75802 15.5614 7.1505 15.3871L1.44823 13.7505C-0.482802 13.1963 -0.482803 10.4599 1.44823 9.90573L7.1505 8.26918C7.75802 8.09482 8.24738 7.64355 8.47027 7.0521L10.6404 1.29399Z" fill="#FFCC8A"/>
</svg>
