<svg width="922" height="516" viewBox="0 0 922 516" fill="none" xmlns="http://www.w3.org/2000/svg">
<g opacity="0.27">
<path d="M806.247 528C806.247 528 804.28 508.548 811.447 501.496C821.2 491.899 837.652 521.249 844.259 508.814C848.667 500.519 837.205 493.218 840.852 484.486C846.856 470.114 868.285 496.516 877.609 484.486C885.575 474.208 869.033 459.534 877.609 449.872C886.375 439.997 901.771 460.568 909.704 449.872C913.351 444.956 908.969 436.666 914.366 434.444C916.793 433.445 921 434.444 921 434.444" stroke="#91ABFF"/>
<path d="M0.5 519.5C0.5 519.5 14.9005 448.351 48.5 423C100.088 384.077 160.179 478.233 213 441C269.517 401.162 184.693 303.668 243 266.5C298.418 231.174 351.832 336.931 407.5 302C462.738 267.339 401.599 185.821 448 140C519.883 69.0153 671.343 276.27 703.5 180.5C713.88 149.587 685.031 123.874 703.5 97C730.374 57.8956 791.14 130.24 825 97C851.646 70.8418 811.144 19.2502 845 3.49998C873.065 -9.55625 921 26 921 26" stroke="#FFC4B0"/>
<path d="M11.7349 519.617C11.7349 519.617 25.9276 449.392 59.0641 424.315C109.938 385.855 169.209 478.605 221.343 441.842C277.208 402.426 193.797 306.701 251.383 269.878C306.089 234.929 358.598 339.11 413.541 304.544C468.092 270.165 408.105 190.153 453.989 144.803C524.924 74.7371 674.242 279.014 705.922 184.494C716.128 153.926 687.654 128.487 705.925 101.92C732.547 63.2237 792.68 134.846 826.178 101.92C852.503 76.0585 812.505 25.0709 845.964 9.50935C873.671 -3.37871 920.996 31.6955 920.996 31.6955" stroke="#FDC4B1"/>
<path d="M23.9531 519.744C23.9531 519.744 37.92 450.525 70.553 425.745C120.651 387.788 179.03 479.009 230.417 442.758C285.573 403.801 203.697 310 260.499 273.552C314.432 239.012 365.957 341.478 420.11 307.31C473.914 273.239 415.18 194.864 460.501 150.027C530.407 80.9591 677.395 281.998 708.555 188.837C718.573 158.645 690.506 133.503 708.562 107.271C734.909 69.0174 794.354 139.854 827.459 107.271C853.436 81.7311 813.985 31.4003 847.012 16.0439C874.331 3.33875 920.993 37.8888 920.993 37.8888" stroke="#FCC3B3"/>
<path d="M37.1548 519.882C37.1548 519.882 50.8776 451.749 82.9665 427.291C132.226 389.877 189.641 479.447 240.221 443.748C294.61 405.287 214.395 313.564 270.349 277.522C323.446 243.426 373.908 344.039 427.209 310.299C480.206 276.561 422.825 199.955 467.538 155.671C536.332 87.683 680.802 285.223 711.401 193.53C721.214 163.744 693.588 138.924 711.412 113.053C737.462 75.2787 796.163 145.267 828.843 113.053C854.443 87.8614 815.585 38.2403 848.145 23.1057C875.044 10.5981 920.989 44.5818 920.989 44.5818" stroke="#FAC3B4"/>
<path d="M51.3394 520.029C51.3394 520.029 64.7999 453.063 96.3043 428.95C144.662 392.121 201.042 479.916 250.756 444.811C304.321 406.882 225.889 317.393 280.933 281.786C333.132 248.166 382.451 346.788 434.836 313.51C486.966 280.129 431.039 205.423 475.099 161.735C542.697 94.906 684.462 288.686 714.459 198.572C724.053 169.221 696.899 144.747 714.473 119.264C740.205 82.0045 798.107 151.081 830.33 119.264C855.525 94.4466 817.303 45.5881 849.362 30.6917C875.809 18.3964 920.984 51.7716 920.984 51.7716" stroke="#F8C2B5"/>
<path d="M66.5073 520.187C66.5073 520.187 79.6874 454.47 110.567 430.726C157.961 394.522 213.234 480.419 262.02 445.948C314.705 408.588 238.18 321.489 292.25 286.347C343.489 253.236 391.586 349.729 442.991 316.945C494.194 283.946 439.822 211.272 483.184 168.22C549.503 102.631 688.376 292.391 717.728 203.964C727.088 175.079 700.44 150.975 717.747 125.907C743.137 89.1979 800.185 157.299 831.921 125.907C856.682 101.49 819.14 53.4465 850.664 38.8048C876.628 26.7366 920.98 59.461 920.98 59.461" stroke="#F6C2B7"/>
<path d="M82.6587 520.355C82.6587 520.355 95.5402 455.967 125.754 432.616C172.121 397.077 226.216 480.953 274.015 447.159C325.762 410.405 251.267 325.849 304.301 291.203C354.517 258.634 401.313 352.86 451.676 320.601C501.891 288.009 449.175 217.499 491.794 175.125C556.751 110.856 692.544 296.335 721.21 209.705C730.32 181.317 704.211 157.606 721.233 132.98C746.261 96.8569 802.399 163.92 833.614 132.98C857.915 108.988 821.097 61.8136 852.05 47.4432C877.5 35.6167 920.975 67.6482 920.975 67.6482" stroke="#F4C1B8"/>
<path d="M99.7932 520.534C99.7932 520.534 112.358 457.556 141.865 434.622C187.144 399.789 239.988 481.522 286.74 448.444C337.492 412.334 265.152 330.476 317.086 296.356C366.216 264.362 411.633 356.183 460.888 324.481C510.057 292.321 459.097 224.107 500.927 182.451C564.44 119.583 696.966 300.521 724.904 215.797C733.749 187.935 708.211 164.642 724.932 140.485C749.574 104.983 804.747 170.946 835.411 140.485C859.222 116.945 823.173 70.6914 853.52 56.6087C878.425 45.0387 920.97 76.3352 920.97 76.3352" stroke="#F1C1BA"/>
<path d="M117.911 520.722C117.911 520.722 130.141 459.235 158.902 436.742C203.029 402.655 254.551 482.121 300.195 449.801C349.895 414.372 279.833 335.366 330.605 301.803C378.587 270.417 422.545 359.695 470.63 328.583C518.691 296.879 469.588 231.092 510.585 190.196C572.57 128.809 701.641 304.945 728.809 222.236C737.374 194.932 712.44 172.08 728.843 148.419C753.077 113.575 807.23 178.372 837.311 148.419C860.605 125.357 825.368 80.0769 855.075 66.2985C879.403 54.9997 920.964 85.5188 920.964 85.5188" stroke="#EFC0BC"/>
<path d="M137.012 520.922C137.012 520.922 148.889 461.006 176.863 438.978C219.776 405.678 269.903 482.754 314.38 451.234C362.972 416.521 295.311 340.524 344.857 307.547C391.63 276.802 434.049 363.399 480.901 332.908C527.794 301.685 480.649 238.457 520.766 198.363C581.142 138.537 706.57 309.611 732.927 229.027C741.197 202.309 716.9 179.923 732.965 156.784C756.771 122.633 809.847 186.203 839.313 156.784C862.062 134.226 827.681 89.973 856.714 76.5154C880.434 65.5025 920.958 95.2022 920.958 95.2022" stroke="#ECC0BE"/>
<path d="M157.096 521.131C157.096 521.131 168.601 462.868 195.748 441.329C237.385 408.856 286.046 483.419 329.295 452.739C376.721 418.78 311.586 345.946 359.842 313.586C405.343 283.515 446.145 367.293 491.699 337.455C537.365 306.738 492.279 246.201 531.472 206.949C590.154 148.766 711.753 314.516 737.256 236.166C745.215 210.065 721.588 188.168 737.3 165.58C760.654 132.158 812.599 194.437 841.419 165.58C863.594 143.551 830.114 100.378 858.437 87.2576C881.518 76.5453 920.952 105.383 920.952 105.383" stroke="#EABFC0"/>
<path d="M178.164 521.35C178.164 521.35 189.28 464.821 215.558 443.795C255.857 412.19 302.98 484.117 344.941 454.319C391.144 421.151 328.657 351.634 375.561 319.921C419.729 290.557 458.833 371.378 503.027 342.225C547.406 312.039 504.479 254.324 542.702 215.956C599.608 159.495 717.189 319.661 741.797 243.655C749.431 218.202 726.506 196.818 741.848 174.806C764.728 142.149 815.487 203.073 843.628 174.806C865.202 153.333 832.667 111.292 860.245 98.5259C882.655 88.129 920.946 116.063 920.946 116.063" stroke="#E7BFC2"/>
<path d="M200.215 521.58C200.215 521.58 210.923 466.866 236.292 446.376C275.19 415.679 320.704 484.848 361.317 455.972C406.239 423.632 346.526 357.588 392.014 326.552C434.785 297.927 472.114 375.654 514.884 347.218C557.914 317.587 517.248 262.827 554.456 225.384C609.504 170.725 722.879 325.047 746.55 251.494C753.844 226.718 731.654 205.872 746.607 184.463C768.992 152.606 818.508 212.114 845.94 184.463C866.884 163.572 835.338 122.717 862.137 110.321C883.846 100.254 920.939 127.242 920.939 127.242" stroke="#E4BEC4"/>
<path d="M223.249 521.82C223.249 521.82 233.531 469.001 257.951 449.072C295.385 419.324 339.218 485.61 378.423 457.698C422.008 426.223 365.19 363.806 409.201 333.478C450.513 305.626 485.986 380.119 527.269 352.433C568.891 323.382 530.586 271.708 566.733 235.232C619.84 182.456 728.823 330.672 751.516 259.682C758.453 235.614 737.031 215.329 751.579 194.551C773.445 163.529 821.665 221.556 848.355 194.551C868.641 174.267 838.128 134.65 864.114 122.64C885.089 112.918 920.932 138.918 920.932 138.918" stroke="#E1BDC6"/>
<path d="M247.266 522.07C247.266 522.07 257.104 471.227 280.534 451.883C316.442 423.124 358.522 486.406 396.259 459.499C438.45 428.925 384.652 370.29 427.121 340.699C466.912 313.654 500.451 384.776 540.182 357.871C580.337 329.425 544.493 280.969 579.536 245.5C630.617 194.687 735.021 336.538 756.693 268.22C763.259 244.89 742.638 225.19 756.763 205.069C778.089 174.919 824.956 231.402 850.873 205.069C870.474 185.418 841.037 147.092 866.175 135.486C886.385 126.124 920.924 151.093 920.924 151.093" stroke="#DDBCC8"/>
<path d="M272.267 522.331C272.267 522.331 281.643 473.545 304.043 454.81C338.362 427.081 378.617 487.234 414.826 461.373C455.565 431.739 404.911 377.04 445.775 348.217C483.983 322.01 515.508 389.624 553.625 363.531C592.251 335.715 558.97 290.609 592.862 256.188C641.836 207.419 741.472 342.644 762.082 277.107C768.262 254.545 748.475 235.455 762.159 216.018C782.924 186.775 828.382 241.652 853.495 216.018C872.381 197.026 844.066 160.045 868.32 148.859C887.735 139.87 920.917 163.767 920.917 163.767" stroke="#DABCCB"/>
<path d="M298.25 522.602C298.25 522.602 307.146 475.955 328.475 457.852C361.143 431.193 399.502 488.095 434.123 463.322C473.353 434.663 425.966 384.056 465.162 356.03C501.724 330.696 531.157 394.662 567.596 369.415C604.634 342.253 574.017 300.628 606.712 267.298C653.496 220.653 748.177 348.991 767.683 286.344C773.461 264.581 754.54 246.124 767.767 227.398C787.948 199.098 831.943 252.304 856.219 227.398C874.364 209.092 847.213 173.507 870.549 162.757C889.137 154.158 920.909 176.94 920.909 176.94" stroke="#D6BBCD"/>
<path d="M325.218 522.883C325.218 522.883 333.615 478.455 353.832 461.008C384.787 435.46 421.178 488.988 454.15 465.343C491.815 437.697 447.818 391.336 485.283 364.139C520.138 339.709 547.399 399.891 582.096 375.521C617.486 349.038 589.633 311.026 621.087 278.827C665.598 234.386 755.136 355.577 773.496 295.931C778.858 274.996 760.836 257.196 773.588 239.208C793.162 211.886 835.638 263.359 859.047 239.208C876.421 221.613 850.48 187.477 872.864 177.181C890.593 168.985 920.9 190.61 920.9 190.61" stroke="#D3BAD0"/>
<path d="M353.168 523.174C353.168 523.174 361.048 481.046 380.114 464.28C409.293 439.883 443.643 489.914 474.907 467.439C510.949 440.841 470.467 398.883 506.138 372.544C539.223 349.052 564.232 405.31 597.124 381.849C630.806 356.071 605.818 321.803 635.986 290.777C678.14 248.621 762.349 362.404 779.521 305.867C784.451 285.791 767.361 268.672 779.621 251.449C798.567 225.142 839.469 274.818 861.977 251.449C878.554 234.591 853.866 201.958 875.262 192.131C892.102 184.353 920.892 204.779 920.892 204.779" stroke="#CFB9D3"/>
<path d="M382.102 523.476C382.102 523.476 389.447 483.729 407.32 467.667C434.66 444.462 466.899 490.873 496.394 469.609C530.757 444.097 493.912 406.695 527.727 381.244C558.979 358.724 581.658 410.92 612.682 388.401C644.595 363.351 622.572 332.96 651.408 303.147C691.124 263.357 769.815 369.471 785.758 316.152C790.24 296.966 774.115 280.552 785.866 264.12C804.162 238.863 843.434 286.68 865.011 264.12C880.761 248.025 857.371 216.948 877.745 207.607C893.664 200.262 920.883 219.447 920.883 219.447" stroke="#CBB8D6"/>
<path d="M412.019 523.787C412.019 523.787 418.811 486.503 435.451 471.169C460.89 449.196 490.946 491.864 518.612 471.851C551.238 447.463 518.154 414.772 550.049 390.24C579.406 368.723 599.676 416.721 628.767 395.174C658.852 370.878 639.896 344.495 667.355 315.938C704.549 278.593 777.535 376.777 792.207 326.787C796.227 308.52 781.099 292.835 792.324 277.222C809.946 253.051 847.534 298.945 868.148 277.222C883.044 261.916 860.995 232.447 880.312 223.608C895.279 216.712 920.874 234.613 920.874 234.613" stroke="#C7B7D9"/>
<path d="M442.919 524.11C442.919 524.11 449.14 489.368 464.507 474.786C487.982 454.086 515.782 492.888 541.56 474.168C572.392 450.94 543.193 423.115 573.104 399.531C600.505 379.052 618.286 422.712 645.382 402.171C673.578 378.653 657.79 356.41 683.826 329.149C718.415 294.33 785.509 384.324 798.867 337.772C802.41 320.454 788.313 305.522 798.993 290.755C815.921 267.705 851.768 311.613 871.388 290.755C885.401 276.264 864.739 248.456 882.963 240.136C896.947 233.702 920.864 250.278 920.864 250.278" stroke="#C3B6DC"/>
<path d="M474.802 524.442C474.802 524.442 480.434 492.324 494.487 478.518C515.936 459.132 541.409 493.944 565.238 476.559C594.219 454.528 569.029 431.724 596.894 409.119C622.275 389.709 637.488 428.895 662.525 409.39C688.772 386.676 676.252 368.705 700.821 342.781C732.722 310.568 793.736 392.112 805.74 349.106C808.79 332.768 795.756 318.613 805.875 304.719C822.086 282.826 856.137 324.684 874.731 304.719C887.834 291.068 868.601 264.975 885.699 257.19C898.668 251.233 920.854 266.441 920.854 266.441" stroke="#BEB5DF"/>
<path d="M507.669 524.786C507.669 524.786 512.693 495.373 525.391 482.367C544.752 464.334 567.826 495.034 589.646 479.024C616.719 458.227 595.662 440.598 621.417 419.003C644.717 400.696 657.283 435.269 680.197 416.833C704.435 394.946 695.284 381.378 718.34 356.833C747.471 327.308 802.217 400.14 812.825 360.791C815.367 345.463 803.429 332.109 812.969 319.114C828.442 298.413 860.641 338.159 878.177 319.114C890.342 306.33 872.582 282.003 888.519 274.771C900.442 269.306 920.844 283.104 920.844 283.104" stroke="#BAB4E2"/>
<path d="M541.519 525.139C541.519 525.139 545.917 498.512 557.221 486.33C574.431 469.691 595.034 496.156 614.785 481.563C639.892 462.036 623.091 449.738 646.673 429.182C667.83 412.011 677.67 441.832 698.398 424.498C720.567 403.464 714.886 394.431 736.384 371.306C762.661 344.547 810.952 408.408 820.122 372.825C822.141 358.537 811.331 346.008 820.275 333.939C834.987 314.467 865.28 352.037 881.726 333.939C892.924 322.048 876.683 299.541 891.424 292.877C902.269 287.918 920.834 300.264 920.834 300.264" stroke="#B5B3E5"/>
<path d="M576.352 525.504C576.352 525.504 580.106 501.742 589.974 490.408C604.971 475.204 623.032 497.311 640.653 484.175C663.738 465.957 651.317 459.144 672.663 439.657C691.614 423.655 698.648 448.588 717.127 432.386C737.167 412.229 735.056 407.864 754.951 386.2C778.292 362.288 819.941 416.917 827.63 385.209C829.111 371.991 819.463 360.311 827.794 349.195C841.722 330.987 870.053 366.318 885.378 349.195C895.582 338.223 880.902 317.588 894.413 311.509C904.149 307.072 920.823 317.924 920.823 317.924" stroke="#B1B2E9"/>
<path d="M612.169 525.879C612.169 525.879 615.26 505.065 623.653 494.603C636.373 480.874 651.82 498.5 667.252 486.863C688.258 469.989 680.34 468.816 699.388 450.429C716.07 435.629 720.22 455.534 736.385 440.498C754.236 421.243 755.797 421.676 774.043 401.515C794.365 380.531 829.183 425.667 835.351 397.943C836.278 385.826 827.824 375.018 835.525 364.883C848.648 347.974 874.962 381.004 889.134 364.883C898.315 354.855 885.241 336.146 897.486 330.668C906.083 326.768 920.812 336.083 920.812 336.083" stroke="#ACB1EC"/>
<path d="M648.968 526.265C648.968 526.265 651.38 508.479 658.255 498.913C668.638 486.7 681.399 499.721 694.581 489.624C713.451 474.132 710.159 478.754 726.845 461.497C741.197 447.932 742.383 462.672 756.172 448.832C771.773 430.505 777.106 435.868 793.658 417.25C810.878 399.275 838.679 434.657 843.283 411.027C843.642 400.041 836.415 390.13 843.468 381.002C855.764 365.429 880.004 396.093 892.992 381.002C901.122 371.944 889.699 355.213 900.644 350.354C908.069 347.004 920.801 354.74 920.801 354.74" stroke="#A7B0F0"/>
<path d="M686.751 526.663C686.751 526.663 688.464 511.987 693.783 503.34C701.764 492.683 711.768 500.977 722.641 492.461C739.316 478.388 740.776 488.959 755.036 472.863C766.996 460.566 765.138 470.002 776.487 457.391C789.779 440.016 798.985 450.441 813.798 433.408C827.833 418.522 848.429 443.89 851.428 424.463C851.203 414.638 845.235 405.648 851.623 397.553C863.069 383.351 885.182 411.587 896.954 397.553C904.005 389.492 894.276 374.792 903.886 370.567C910.109 367.783 920.789 373.898 920.789 373.898" stroke="#A1AFF3"/>
<path d="M725.518 527.076C725.518 527.076 726.514 515.59 730.235 507.886C735.753 498.826 742.927 502.27 751.43 495.376C765.855 482.758 772.189 499.434 783.961 484.528C793.466 473.532 788.486 477.527 797.331 466.177C808.254 449.778 821.433 465.397 834.462 449.991C845.229 438.273 858.432 453.367 859.784 438.252C858.96 429.618 854.285 421.573 859.99 414.539C870.565 401.744 890.495 427.488 901.018 414.539C906.963 407.5 898.972 394.885 907.213 391.311C912.201 389.107 920.778 393.559 920.778 393.559" stroke="#9CAEF7"/>
<path d="M765.267 527.509C765.267 527.509 765.528 519.294 767.611 512.558C770.604 505.135 774.876 503.606 780.95 498.375C793.067 487.249 804.398 510.185 813.62 496.499C820.607 486.837 812.426 485.253 818.704 475.196C827.197 459.798 844.451 480.743 855.65 467.004C863.066 458.536 868.69 463.094 868.353 452.401C866.914 444.989 863.565 437.912 868.57 431.966C878.251 420.613 895.942 443.802 905.186 431.966C909.996 425.976 903.787 415.497 910.624 412.59C914.347 410.981 920.765 413.728 920.765 413.728" stroke="#97ACFB"/>
</g>
</svg>
