<svg width="264" height="244" viewBox="0 0 264 244" fill="none" xmlns="http://www.w3.org/2000/svg">
<path d="M124.368 244H3.57195C2.62461 244 1.71607 243.624 1.0462 242.954C0.37633 242.284 0 241.375 0 240.428V3.54067C0.00824821 2.59876 0.388215 1.69824 1.05719 1.03512C1.72617 0.371998 2.63001 -3.61111e-05 3.57195 2.62895e-09H124.368C124.837 2.62895e-09 125.301 0.0923905 125.735 0.271898C126.168 0.451405 126.562 0.714514 126.893 1.0462C127.225 1.37789 127.488 1.77166 127.668 2.20503C127.847 2.6384 127.94 3.10288 127.94 3.57195V240.428C127.94 240.897 127.847 241.362 127.668 241.795C127.488 242.228 127.225 242.622 126.893 242.954C126.562 243.285 126.168 243.549 125.735 243.728C125.301 243.908 124.837 244 124.368 244ZM3.57195 0.125113C2.6666 0.126766 1.79879 0.487149 1.15861 1.12733C0.518427 1.76752 0.158044 2.63532 0.15639 3.54067V240.428C0.158044 241.333 0.518427 242.201 1.15861 242.841C1.79879 243.482 2.6666 243.842 3.57195 243.844H124.368C125.273 243.842 126.141 243.482 126.781 242.841C127.421 242.201 127.782 241.333 127.783 240.428V3.54067C127.782 2.63532 127.421 1.76752 126.781 1.12733C126.141 0.487149 125.273 0.126766 124.368 0.125113H3.57195Z" fill="#EBEBEB"/>
<path d="M259.677 244H138.881C137.934 244 137.025 243.624 136.355 242.954C135.685 242.284 135.309 241.375 135.309 240.428V3.54067C135.317 2.59876 135.697 1.69824 136.366 1.03512C137.035 0.371998 137.939 -3.61111e-05 138.881 2.62895e-09H259.677C260.624 2.62896e-09 261.533 0.37633 262.203 1.0462C262.872 1.71607 263.249 2.62461 263.249 3.57195V240.428C263.249 240.897 263.156 241.362 262.977 241.795C262.797 242.228 262.534 242.622 262.203 242.954C261.871 243.285 261.477 243.549 261.044 243.728C260.61 243.908 260.146 244 259.677 244ZM138.881 0.125113C137.976 0.126766 137.108 0.487149 136.468 1.12733C135.828 1.76752 135.467 2.63532 135.465 3.54067V240.428C135.467 241.333 135.828 242.201 136.468 242.841C137.108 243.482 137.976 243.842 138.881 243.844H259.677C260.582 243.842 261.45 243.482 262.09 242.841C262.73 242.201 263.091 241.333 263.092 240.428V3.54067C263.091 2.63532 262.73 1.76752 262.09 1.12733C261.45 0.487149 260.582 0.126766 259.677 0.125113H138.881Z" fill="#EBEBEB"/>
<path d="M45.9538 70.8447L46.9672 72.8903L49.2318 73.2219L47.5928 74.817L47.9806 77.0691L45.9538 76.0056L43.9333 77.0691L44.3211 74.817L42.6821 73.2219L44.9467 72.8903L45.9538 70.8447Z" fill="#EBEBEB"/>
<path d="M248.417 167.325L249.43 169.377L251.695 169.709L250.056 171.297L250.444 173.556L248.417 172.492L246.396 173.556L246.784 171.297L245.145 169.709L247.41 169.377L248.417 167.325Z" fill="#F5F5F5"/>
<path d="M208.318 226.81L209.331 228.855L211.59 229.187L209.951 230.782L210.339 233.034L208.318 231.97L206.298 233.034L206.679 230.782L205.046 229.187L207.305 228.855L208.318 226.81Z" fill="#F5F5F5"/>
<path d="M116.573 34.5002L116.949 35.2634L117.793 35.3885C117.84 35.3947 117.885 35.4142 117.921 35.4446C117.957 35.4751 117.985 35.5154 117.999 35.5606C118.013 35.6059 118.015 35.6544 118.003 35.7003C117.99 35.7463 117.966 35.7879 117.931 35.8202L117.305 36.4145L117.449 37.2527C117.456 37.2994 117.451 37.3471 117.433 37.3908C117.415 37.4345 117.385 37.4723 117.347 37.5001C117.309 37.5279 117.263 37.5447 117.216 37.5485C117.169 37.5523 117.122 37.543 117.08 37.5217L116.329 37.1213L115.579 37.5217C115.536 37.543 115.489 37.5523 115.442 37.5485C115.395 37.5447 115.35 37.5279 115.312 37.5001C115.274 37.4723 115.244 37.4345 115.226 37.3908C115.208 37.3471 115.202 37.2994 115.209 37.2527L115.347 36.4145L114.722 35.8202C114.686 35.7875 114.662 35.7454 114.65 35.6989C114.638 35.6525 114.64 35.6036 114.655 35.5582C114.67 35.5127 114.698 35.4726 114.735 35.4425C114.773 35.4124 114.818 35.3937 114.865 35.3885L115.704 35.2634L116.079 34.5002C116.094 34.4463 116.126 34.3987 116.171 34.3648C116.216 34.3309 116.27 34.3125 116.326 34.3125C116.382 34.3125 116.437 34.3309 116.481 34.3648C116.526 34.3987 116.558 34.4463 116.573 34.5002Z" fill="#EBEBEB"/>
<path d="M13.2559 217.07L13.6312 217.827L14.4695 217.952C14.5171 217.959 14.5618 217.978 14.5987 218.009C14.6356 218.04 14.6631 218.08 14.6781 218.126C14.6931 218.172 14.695 218.221 14.6836 218.267C14.6721 218.314 14.6478 218.356 14.6133 218.39L13.9878 218.978L14.1317 219.816C14.139 219.863 14.1334 219.911 14.1154 219.954C14.0973 219.998 14.0676 220.036 14.0294 220.064C13.9912 220.091 13.9461 220.108 13.899 220.112C13.852 220.116 13.8047 220.106 13.7626 220.085L13.0119 219.691L12.2612 220.085C12.2191 220.106 12.1719 220.116 12.1248 220.112C12.0777 220.108 12.0326 220.091 11.9944 220.064C11.9562 220.036 11.9265 219.998 11.9084 219.954C11.8904 219.911 11.8848 219.863 11.8922 219.816L12.036 218.978L11.4105 218.39C11.3762 218.357 11.3517 218.315 11.34 218.269C11.3282 218.222 11.3295 218.174 11.3438 218.128C11.3581 218.083 11.3848 218.042 11.4209 218.011C11.457 217.98 11.501 217.959 11.5481 217.952L12.3863 217.827L12.7679 217.07C12.7847 217.018 12.8173 216.973 12.8611 216.942C12.9049 216.91 12.9577 216.893 13.0119 216.893C13.0661 216.893 13.1189 216.91 13.1627 216.942C13.2065 216.973 13.2392 217.018 13.2559 217.07Z" fill="#F5F5F5"/>
<path d="M30.127 26.4614L30.5024 27.2246L31.3469 27.3434C31.3939 27.3509 31.438 27.3714 31.4741 27.4026C31.5102 27.4337 31.5368 27.4743 31.5511 27.5198C31.5654 27.5653 31.5668 27.6138 31.555 27.66C31.5432 27.7062 31.5188 27.7482 31.4845 27.7813L30.8589 28.4069L31.0028 29.2389C31.0128 29.2861 31.0089 29.3352 30.9916 29.3803C30.9744 29.4254 30.9444 29.4645 30.9054 29.4929C30.8664 29.5213 30.82 29.5379 30.7718 29.5405C30.7236 29.5432 30.6756 29.5318 30.6337 29.5079L29.8831 29.1138L29.1324 29.5079C29.0905 29.5318 29.0425 29.5432 28.9943 29.5405C28.9461 29.5379 28.8997 29.5213 28.8607 29.4929C28.8217 29.4645 28.7918 29.4254 28.7745 29.3803C28.7572 29.3352 28.7533 29.2861 28.7633 29.2389L28.9009 28.4069L28.2754 27.7813C28.2409 27.7478 28.2166 27.7053 28.2052 27.6587C28.1937 27.612 28.1956 27.5631 28.2106 27.5174C28.2256 27.4718 28.2531 27.4313 28.29 27.4005C28.3269 27.3698 28.3717 27.35 28.4192 27.3434L29.2575 27.2246L29.6579 26.4614C29.6779 26.4159 29.7108 26.3773 29.7525 26.3502C29.7941 26.323 29.8427 26.3086 29.8924 26.3086C29.9421 26.3086 29.9908 26.323 30.0324 26.3502C30.0741 26.3773 30.1069 26.4159 30.127 26.4614Z" fill="#EBEBEB"/>
<path d="M29.1137 177.234C29.1149 177.399 29.0672 177.56 28.9765 177.698C28.8858 177.836 28.7563 177.943 28.6044 178.007C28.4525 178.071 28.285 178.088 28.1232 178.057C27.9614 178.026 27.8126 177.947 27.6956 177.831C27.5786 177.715 27.4988 177.566 27.4662 177.405C27.4335 177.243 27.4497 177.076 27.5124 176.923C27.5752 176.771 27.6819 176.641 27.8188 176.549C27.9558 176.457 28.1169 176.408 28.2817 176.408C28.5013 176.408 28.7119 176.495 28.8678 176.65C29.0236 176.804 29.112 177.014 29.1137 177.234Z" fill="#EBEBEB"/>
<path d="M147.683 73.1217C147.684 73.2865 147.636 73.4479 147.545 73.5856C147.455 73.7232 147.325 73.8308 147.173 73.8948C147.021 73.9587 146.854 73.9761 146.692 73.9447C146.53 73.9133 146.381 73.8345 146.264 73.7184C146.147 73.6023 146.068 73.4541 146.035 73.2925C146.002 73.131 146.018 72.9634 146.081 72.811C146.144 72.6586 146.251 72.5283 146.388 72.4366C146.525 72.3449 146.686 72.2959 146.851 72.2959C146.959 72.2951 147.068 72.3158 147.168 72.357C147.269 72.3981 147.361 72.4588 147.438 72.5355C147.516 72.6123 147.577 72.7036 147.619 72.8042C147.661 72.9048 147.683 73.0127 147.683 73.1217Z" fill="#EBEBEB"/>
<path d="M104.543 27.1494C104.543 27.3139 104.495 27.4748 104.403 27.6116C104.312 27.7484 104.182 27.8551 104.03 27.918C103.878 27.981 103.71 27.9975 103.549 27.9654C103.388 27.9333 103.239 27.854 103.123 27.7377C103.007 27.6213 102.927 27.4731 102.895 27.3117C102.863 27.1503 102.88 26.983 102.943 26.831C103.006 26.679 103.112 26.549 103.249 26.4576C103.386 26.3662 103.547 26.3174 103.711 26.3174C103.932 26.319 104.142 26.4072 104.298 26.5629C104.454 26.7186 104.542 26.9292 104.543 27.1494Z" fill="#F5F5F5"/>
<path d="M105.861 229.921C108.333 229.338 109.863 226.861 109.28 224.39C108.697 221.918 106.22 220.388 103.749 220.971C101.277 221.554 99.7468 224.031 100.33 226.502C100.913 228.974 103.39 230.504 105.861 229.921Z" fill="#F0F0F0"/>
<path d="M103.224 222.756C102.282 222.754 101.364 223.052 100.603 223.607C100.214 224.498 100.119 225.491 100.33 226.44C100.542 227.39 101.05 228.248 101.78 228.89C102.511 229.532 103.427 229.926 104.396 230.014C105.365 230.102 106.337 229.88 107.171 229.381C107.541 228.697 107.726 227.93 107.71 227.153C107.694 226.376 107.476 225.617 107.078 224.95C106.68 224.283 106.115 223.73 105.44 223.347C104.764 222.963 104.001 222.762 103.224 222.762V222.756Z" fill="#E6E6E6"/>
<path d="M67.6171 145.531H29.5518V128.347L67.6171 83.0938H85.8335V129.323H95.2732V145.531H85.8335V159.594H67.6171V145.531ZM67.6171 129.323V105.651L47.4991 129.323H67.6171Z" fill="#91ABFF"/>
<path d="M101.785 121.678C101.785 107.378 104.358 97.3689 109.504 91.6512C114.651 85.9336 122.493 83.0769 133.032 83.0811C138.091 83.0811 142.246 83.7066 145.499 84.9577C148.454 86.0225 151.16 87.6809 153.45 89.8309C155.38 91.6737 157.015 93.8026 158.298 96.1428C159.568 98.5861 160.524 101.18 161.145 103.862C162.559 109.593 163.265 115.475 163.246 121.378C163.246 135.023 160.938 145.01 156.321 151.336C151.705 157.663 143.754 160.828 132.469 160.832C126.138 160.832 121.023 159.823 117.124 157.804C113.193 155.753 109.882 152.688 107.534 148.928C105.72 146.158 104.308 142.37 103.299 137.561C102.251 132.333 101.744 127.01 101.785 121.678ZM122.516 121.728C122.516 131.32 123.361 137.861 125.05 141.352C126.739 144.843 129.193 146.596 132.412 146.613C133.434 146.624 134.448 146.433 135.395 146.05C136.342 145.666 137.204 145.099 137.93 144.38C139.49 142.891 140.637 140.539 141.371 137.323C142.105 134.108 142.472 129.104 142.472 122.31C142.472 112.326 141.625 105.614 139.932 102.173C138.239 98.7326 135.699 97.0144 132.312 97.0186C128.859 97.0186 126.357 98.7722 124.806 102.28C123.254 105.787 122.491 112.27 122.516 121.728Z" fill="#91ABFF"/>
<path d="M207.78 145.531H169.715V128.347L207.78 83.0938H225.997V129.323H235.468V145.531H225.997V159.594H207.78V145.531ZM207.78 129.323V105.651L187.668 129.323H207.78Z" fill="#91ABFF"/>
<g opacity="0.3">
<path d="M100.971 56.6884C100.971 56.92 100.903 57.1464 100.774 57.3389C100.645 57.5314 100.462 57.6814 100.248 57.7697C100.034 57.8581 99.7982 57.8809 99.5711 57.8352C99.344 57.7896 99.1356 57.6775 98.9722 57.5133C98.8089 57.3491 98.698 57.1401 98.6536 56.9127C98.6091 56.6854 98.6332 56.45 98.7227 56.2364C98.8122 56.0227 98.9631 55.8404 99.1563 55.7127C99.3495 55.5849 99.5763 55.5173 99.8079 55.5186C99.9612 55.5186 100.113 55.5489 100.255 55.6077C100.396 55.6666 100.525 55.7529 100.633 55.8616C100.741 55.9703 100.827 56.0993 100.885 56.2412C100.943 56.3831 100.972 56.535 100.971 56.6884Z" fill="#91ABFF"/>
<path d="M20.8809 101.623C21.337 101.623 21.7067 101.253 21.7067 100.797C21.7067 100.341 21.337 99.9717 20.8809 99.9717C20.4249 99.9717 20.0552 100.341 20.0552 100.797C20.0552 101.253 20.4249 101.623 20.8809 101.623Z" fill="#91ABFF"/>
<path d="M157.303 222.212C157.956 222.212 158.485 221.683 158.485 221.03C158.485 220.377 157.956 219.848 157.303 219.848C156.65 219.848 156.121 220.377 156.121 221.03C156.121 221.683 156.65 222.212 157.303 222.212Z" fill="#91ABFF"/>
<path d="M185.735 174.107C186.191 174.107 186.561 173.737 186.561 173.281C186.561 172.825 186.191 172.455 185.735 172.455C185.279 172.455 184.909 172.825 184.909 173.281C184.909 173.737 185.279 174.107 185.735 174.107Z" fill="#91ABFF"/>
<path d="M240.578 25.4107C240.578 25.574 240.529 25.7337 240.439 25.8695C240.348 26.0053 240.219 26.1111 240.068 26.1736C239.917 26.2361 239.751 26.2524 239.591 26.2206C239.431 26.1887 239.284 26.1101 239.168 25.9946C239.053 25.8791 238.974 25.732 238.942 25.5718C238.91 25.4116 238.927 25.2456 238.989 25.0947C239.052 24.9438 239.157 24.8149 239.293 24.7241C239.429 24.6334 239.589 24.585 239.752 24.585C239.971 24.585 240.181 24.672 240.336 24.8268C240.491 24.9817 240.578 25.1917 240.578 25.4107Z" fill="#91ABFF"/>
<path d="M83.2994 8.75836C83.2994 8.92167 83.251 9.08132 83.1603 9.21711C83.0695 9.35291 82.9406 9.45874 82.7897 9.52124C82.6388 9.58374 82.4728 9.60009 82.3126 9.56823C82.1524 9.53637 82.0053 9.45773 81.8898 9.34224C81.7743 9.22676 81.6957 9.07963 81.6638 8.91945C81.632 8.75928 81.6483 8.59324 81.7108 8.44236C81.7733 8.29148 81.8791 8.16251 82.0149 8.07178C82.1507 7.98104 82.3104 7.93262 82.4737 7.93262C82.6922 7.93425 82.9013 8.02178 83.0558 8.17628C83.2103 8.33078 83.2978 8.53986 83.2994 8.75836Z" fill="#91ABFF"/>
<path d="M148.952 52.0851C149.408 52.0851 149.777 51.7154 149.777 51.2593C149.777 50.8033 149.408 50.4336 148.952 50.4336C148.496 50.4336 148.126 50.8033 148.126 51.2593C148.126 51.7154 148.496 52.0851 148.952 52.0851Z" fill="#91ABFF"/>
</g>
<path d="M63.582 52.0908C71.1516 52.0908 77.2881 45.9544 77.2881 38.3848C77.2881 30.8151 71.1516 24.6787 63.582 24.6787C56.0124 24.6787 49.876 30.8151 49.876 38.3848C49.876 45.9544 56.0124 52.0908 63.582 52.0908Z" fill="#91ABFF"/>
<path opacity="0.7" d="M63.582 52.0908C71.1516 52.0908 77.2881 45.9544 77.2881 38.3848C77.2881 30.8151 71.1516 24.6787 63.582 24.6787C56.0124 24.6787 49.876 30.8151 49.876 38.3848C49.876 45.9544 56.0124 52.0908 63.582 52.0908Z" fill="white"/>
<path opacity="0.2" d="M58.8591 28.044C56.9925 28.0383 55.1446 28.4151 53.4293 29.1513C51.3211 31.4683 50.0699 34.4372 49.8836 37.5643C49.6974 40.6913 50.5875 43.7878 52.4058 46.3386C54.224 48.8894 56.8609 50.7408 59.8776 51.5847C62.8943 52.4286 66.109 52.2142 68.987 50.9771C70.7713 49.0107 71.9463 46.5686 72.3693 43.9472C72.7924 41.3259 72.4452 38.6381 71.3701 36.2103C70.2949 33.7825 68.5381 31.719 66.3127 30.2705C64.0874 28.8219 61.4894 28.0506 58.8341 28.0503L58.8591 28.044Z" fill="#91ABFF"/>
<path opacity="0.2" d="M57.4949 31.6662C57.4949 31.9136 57.4215 32.1555 57.2841 32.3612C57.1466 32.567 56.9512 32.7273 56.7226 32.822C56.494 32.9167 56.2424 32.9415 55.9997 32.8932C55.757 32.845 55.5341 32.7258 55.3591 32.5508C55.1841 32.3759 55.065 32.1529 55.0167 31.9102C54.9684 31.6675 54.9932 31.416 55.0879 31.1874C55.1826 30.9588 55.343 30.7634 55.5487 30.6259C55.7545 30.4884 55.9963 30.415 56.2438 30.415C56.5756 30.415 56.8938 30.5469 57.1285 30.7815C57.3631 31.0161 57.4949 31.3343 57.4949 31.6662Z" fill="#91ABFF"/>
<path opacity="0.2" d="M72.2337 30.4152C72.2337 30.6626 72.1603 30.9045 72.0228 31.1103C71.8854 31.316 71.69 31.4764 71.4613 31.5711C71.2327 31.6658 70.9812 31.6905 70.7385 31.6423C70.4958 31.594 70.2729 31.4748 70.0979 31.2999C69.9229 31.1249 69.8038 30.902 69.7555 30.6593C69.7072 30.4166 69.732 30.165 69.8267 29.9364C69.9214 29.7078 70.0817 29.5124 70.2875 29.3749C70.4932 29.2374 70.7351 29.1641 70.9826 29.1641C71.3144 29.1641 71.6326 29.2959 71.8672 29.5305C72.1019 29.7651 72.2337 30.0834 72.2337 30.4152Z" fill="#91ABFF"/>
<path opacity="0.2" d="M69.7311 39.3477C69.7311 39.7536 69.6108 40.1503 69.3853 40.4877C69.1599 40.8251 68.8394 41.0881 68.4645 41.2434C68.0896 41.3987 67.677 41.4393 67.279 41.3601C66.881 41.281 66.5154 41.0856 66.2284 40.7986C65.9415 40.5116 65.746 40.146 65.6669 39.748C65.5877 39.35 65.6283 38.9375 65.7836 38.5625C65.9389 38.1876 66.2019 37.8672 66.5393 37.6417C66.8768 37.4162 67.2735 37.2959 67.6793 37.2959C68.2235 37.2959 68.7454 37.5121 69.1301 37.8969C69.5149 38.2817 69.7311 38.8036 69.7311 39.3477Z" fill="#91ABFF"/>
<path opacity="0.2" d="M63.2128 45.197C63.2128 45.7389 63.0521 46.2686 62.7511 46.7192C62.45 47.1698 62.0221 47.521 61.5214 47.7284C61.0207 47.9358 60.4698 47.99 59.9383 47.8843C59.4068 47.7786 58.9186 47.5176 58.5354 47.1344C58.1522 46.7512 57.8913 46.263 57.7856 45.7315C57.6798 45.2 57.7341 44.6491 57.9415 44.1484C58.1489 43.6478 58.5 43.2199 58.9506 42.9188C59.4012 42.6177 59.931 42.457 60.4729 42.457C61.1995 42.457 61.8965 42.7457 62.4103 43.2595C62.9242 43.7734 63.2128 44.4703 63.2128 45.197Z" fill="#91ABFF"/>
<path d="M226.021 203.711C227.547 197.245 223.542 190.766 217.076 189.24C210.61 187.714 204.131 191.719 202.605 198.185C201.079 204.651 205.084 211.13 211.55 212.656C218.016 214.182 224.495 210.177 226.021 203.711Z" fill="#91ABFF"/>
<path opacity="0.3" d="M226.021 203.711C227.547 197.245 223.542 190.766 217.076 189.24C210.61 187.714 204.131 191.719 202.605 198.185C201.079 204.651 205.084 211.13 211.55 212.656C218.016 214.182 224.495 210.177 226.021 203.711Z" fill="white"/>
<path opacity="0.4" d="M221.911 191.635C219.245 190.83 216.381 190.976 213.81 192.048C211.239 193.12 209.12 195.051 207.815 197.512C206.51 199.973 206.1 202.811 206.655 205.541C207.21 208.27 208.696 210.723 210.858 212.479C211.979 212.819 213.145 212.992 214.317 212.992C216.801 212.991 219.223 212.222 221.252 210.79C223.281 209.357 224.817 207.332 225.649 204.992C226.481 202.653 226.568 200.112 225.899 197.721C225.23 195.329 223.837 193.203 221.911 191.635Z" fill="#91ABFF"/>
<path d="M202.831 204.559C189.989 210.602 199.566 215.262 217.663 208.756C234.422 202.732 240.809 195.138 225.796 197.496C226.603 200.655 205.615 208.831 202.831 204.559Z" fill="#91ABFF"/>
<path opacity="0.2" d="M221.768 83.0928C204.946 94.4592 183.171 109.473 177.159 145.53H175.876C181.725 109.873 202.707 94.503 219.534 83.0928H221.768Z" fill="black"/>
<path d="M134.752 195.97C124.118 195.97 113.602 191.172 108.479 183.34C105.32 178.498 101.648 168.357 112.582 154.827L113.552 155.615C105.82 165.186 104.394 174.788 109.53 182.658C115.785 192.229 130.542 197.046 143.141 193.618C156.046 190.108 163.878 178.886 164.635 162.828C167.219 107.897 196.401 90.9756 217.708 78.6208C230.951 70.9451 240.516 65.4027 238.414 53.6984C238.12 52.0782 237.476 50.9585 236.431 50.2703C233.71 48.475 228.393 49.7198 222.237 51.1524C210.157 53.9674 193.618 57.8209 183.765 41.0621L184.847 40.4365C194.231 56.4071 209.601 52.8226 221.955 49.945C228.393 48.45 233.947 47.1551 237.119 49.2382C238.464 50.1202 239.29 51.5152 239.621 53.492C241.88 66.0532 231.489 72.0836 218.321 79.7155C197.258 91.9264 168.42 108.648 165.868 162.915C165.079 179.555 156.91 191.197 143.448 194.856C140.611 195.611 137.687 195.986 134.752 195.97Z" fill="#91ABFF"/>
<path opacity="0.2" d="M134.752 195.97C124.118 195.97 113.602 191.172 108.479 183.34C105.32 178.498 101.648 168.357 112.582 154.827L113.552 155.615C105.82 165.186 104.394 174.788 109.53 182.658C115.785 192.229 130.542 197.046 143.141 193.618C156.046 190.108 163.878 178.886 164.635 162.828C167.219 107.897 196.401 90.9756 217.708 78.6208C230.951 70.9451 240.516 65.4027 238.414 53.6984C238.12 52.0782 237.476 50.9585 236.431 50.2703C233.71 48.475 228.393 49.7198 222.237 51.1524C210.157 53.9674 193.618 57.8209 183.765 41.0621L184.847 40.4365C194.231 56.4071 209.601 52.8226 221.955 49.945C228.393 48.45 233.947 47.1551 237.119 49.2382C238.464 50.1202 239.29 51.5152 239.621 53.492C241.88 66.0532 231.489 72.0836 218.321 79.7155C197.258 91.9264 168.42 108.648 165.868 162.915C165.079 179.555 156.91 191.197 143.448 194.856C140.611 195.611 137.687 195.986 134.752 195.97Z" fill="white"/>
<path d="M170.885 26.2734C173.767 26.2901 176.631 26.7392 179.38 27.6059C179.38 27.6059 186.261 39.3477 187.074 42.0376C186.787 44.6899 182.314 49.0376 182.314 49.0376L170.885 26.2734Z" fill="#91ABFF"/>
<path opacity="0.3" d="M170.885 26.2734C173.767 26.2901 176.631 26.7392 179.38 27.6059C179.38 27.6059 186.261 39.3477 187.074 42.0376C186.787 44.6899 182.314 49.0376 182.314 49.0376L170.885 26.2734Z" fill="white"/>
<path d="M191.265 83.2805C188.615 80.0403 186.199 76.6162 184.034 73.0338C183.508 72.1288 183.01 71.2072 182.539 70.2688C182.27 69.7371 182.013 69.2054 181.763 68.6674C181.435 68.1439 181.18 67.5776 181.006 66.9846C180.255 59.0588 182.97 53.2223 180.381 46.8604L170.071 50.889C170.071 50.889 170.947 62.2241 172.949 69.0302C174.2 73.2403 177.003 76.881 179.711 80.2528C180.556 81.3037 181.369 82.3859 182.213 83.4431C183.058 84.5003 183.909 85.3574 184.716 86.352C185.936 87.8596 186.336 89.3047 185.416 91.0812L185.26 91.3627C184.997 91.8257 186.223 92.3511 186.999 91.3627C188.25 89.7488 188.075 89.8489 189.163 88.4727C189.827 87.6407 190.583 86.7336 191.24 85.9704C191.557 85.5952 191.733 85.1211 191.738 84.63C191.742 84.1389 191.575 83.6616 191.265 83.2805Z" fill="#91ABFF"/>
<path opacity="0.7" d="M191.265 83.2805C188.615 80.0403 186.199 76.6162 184.034 73.0338C183.508 72.1288 183.01 71.2072 182.539 70.2688C182.27 69.7371 182.013 69.2054 181.763 68.6674C181.435 68.1439 181.18 67.5776 181.006 66.9846C180.255 59.0588 182.97 53.2223 180.381 46.8604L170.071 50.889C170.071 50.889 170.947 62.2241 172.949 69.0302C174.2 73.2403 177.003 76.881 179.711 80.2528C180.556 81.3037 181.369 82.3859 182.213 83.4431C183.058 84.5003 183.909 85.3574 184.716 86.352C185.936 87.8596 186.336 89.3047 185.416 91.0812L185.26 91.3627C184.997 91.8257 186.223 92.3511 186.999 91.3627C188.25 89.7488 188.075 89.8489 189.163 88.4727C189.827 87.6407 190.583 86.7336 191.24 85.9704C191.557 85.5952 191.733 85.1211 191.738 84.63C191.742 84.1389 191.575 83.6616 191.265 83.2805Z" fill="white"/>
<path opacity="0.3" d="M188.744 80.0215C187.108 81.7751 185.292 83.3518 183.327 84.7257C183.596 85.026 183.858 85.3513 184.127 85.639C186.095 84.3094 187.883 82.7303 189.445 80.9411L188.744 80.0215Z" fill="#91ABFF"/>
<path opacity="0.3" d="M191.265 83.28L191.19 83.1924C190.709 83.7446 190.429 84.4436 190.396 85.1754C190.355 85.6774 190.437 86.1817 190.633 86.6455L191.228 85.9386C191.538 85.5672 191.712 85.1001 191.719 84.6159C191.725 84.1318 191.565 83.66 191.265 83.28Z" fill="#91ABFF"/>
<path d="M168.432 33.7799C167.315 35.4534 165.974 36.9666 164.447 38.2777C163.601 39.0073 162.673 39.637 161.682 40.1544C161.162 40.4211 160.622 40.649 160.068 40.8362L159.643 40.9739L159.505 41.0114L159.211 41.0927C159.03 41.1357 158.846 41.165 158.661 41.1803C158.133 41.2207 157.602 41.172 157.091 41.0364C156.446 40.8533 155.827 40.5862 155.252 40.242C154.788 39.9712 154.34 39.6768 153.907 39.3599C153.124 38.7782 152.377 38.1516 151.667 37.4832C150.299 36.1867 149.043 34.7762 147.914 33.267C147.696 32.9729 147.588 32.6122 147.608 32.2471C147.628 31.8819 147.775 31.5352 148.024 31.2668C148.272 30.9984 148.606 30.8251 148.969 30.7768C149.331 30.7286 149.699 30.8083 150.009 31.0024H150.059C151.536 31.9408 153.025 32.9292 154.476 33.8112C155.214 34.2428 155.927 34.6807 156.634 35.0185C156.957 35.1875 157.289 35.3379 157.629 35.4689C157.84 35.5624 158.067 35.6175 158.298 35.6316C158.336 35.6316 158.298 35.5878 158.067 35.594C157.994 35.5897 157.921 35.5897 157.848 35.594L157.71 35.6253L157.916 35.519C158.194 35.3694 158.464 35.2044 158.723 35.0248C159.283 34.6301 159.807 34.1863 160.287 33.6986C161.38 32.5533 162.404 31.3438 163.353 30.0766C163.872 29.495 164.591 29.1286 165.367 29.0494C166.143 28.9701 166.921 29.1837 167.547 29.6483C168.174 30.1128 168.604 30.7947 168.754 31.5602C168.904 32.3258 168.762 33.1197 168.357 33.7862L168.432 33.7799Z" fill="#91ABFF"/>
<path opacity="0.7" d="M168.432 33.7799C167.315 35.4534 165.974 36.9666 164.447 38.2777C163.601 39.0073 162.673 39.637 161.682 40.1544C161.162 40.4211 160.622 40.649 160.068 40.8362L159.643 40.9739L159.505 41.0114L159.211 41.0927C159.03 41.1357 158.846 41.165 158.661 41.1803C158.133 41.2207 157.602 41.172 157.091 41.0364C156.446 40.8533 155.827 40.5862 155.252 40.242C154.788 39.9712 154.34 39.6768 153.907 39.3599C153.124 38.7782 152.377 38.1516 151.667 37.4832C150.299 36.1867 149.043 34.7762 147.914 33.267C147.696 32.9729 147.588 32.6122 147.608 32.2471C147.628 31.8819 147.775 31.5352 148.024 31.2668C148.272 30.9984 148.606 30.8251 148.969 30.7768C149.331 30.7286 149.699 30.8083 150.009 31.0024H150.059C151.536 31.9408 153.025 32.9292 154.476 33.8112C155.214 34.2428 155.927 34.6807 156.634 35.0185C156.957 35.1875 157.289 35.3379 157.629 35.4689C157.84 35.5624 158.067 35.6175 158.298 35.6316C158.336 35.6316 158.298 35.5878 158.067 35.594C157.994 35.5897 157.921 35.5897 157.848 35.594L157.71 35.6253L157.916 35.519C158.194 35.3694 158.464 35.2044 158.723 35.0248C159.283 34.6301 159.807 34.1863 160.287 33.6986C161.38 32.5533 162.404 31.3438 163.353 30.0766C163.872 29.495 164.591 29.1286 165.367 29.0494C166.143 28.9701 166.921 29.1837 167.547 29.6483C168.174 30.1128 168.604 30.7947 168.754 31.5602C168.904 32.3258 168.762 33.1197 168.357 33.7862L168.432 33.7799Z" fill="white"/>
<path d="M145.568 29.6636L146.3 30.9147C146.3 30.9147 146.857 32.5536 147.976 32.8539L151.017 31.8718L150.86 31.6153C150.472 31.0273 150.516 29.8825 150.648 28.9317C150.779 27.9808 150.291 27.9495 149.928 28.1872C149.671 28.483 149.491 28.8375 149.403 29.2194C149.253 29.0128 149.088 28.8183 148.908 28.6376L147.983 27.7118C147.788 27.522 147.53 27.4126 147.258 27.4056C146.987 27.3987 146.723 27.4946 146.519 27.6743L145.768 28.3436C145.59 28.5083 145.473 28.7287 145.437 28.9685C145.401 29.2084 145.447 29.4534 145.568 29.6636Z" fill="#91ABFF"/>
<path opacity="0.7" d="M145.568 29.6636L146.3 30.9147C146.3 30.9147 146.857 32.5536 147.976 32.8539L151.017 31.8718L150.86 31.6153C150.472 31.0273 150.516 29.8825 150.648 28.9317C150.779 27.9808 150.291 27.9495 149.928 28.1872C149.671 28.483 149.491 28.8375 149.403 29.2194C149.253 29.0128 149.088 28.8183 148.908 28.6376L147.983 27.7118C147.788 27.522 147.53 27.4126 147.258 27.4056C146.987 27.3987 146.723 27.4946 146.519 27.6743L145.768 28.3436C145.59 28.5083 145.473 28.7287 145.437 28.9685C145.401 29.2084 145.447 29.4534 145.568 29.6636Z" fill="white"/>
<path d="M173.956 25.1603C170.584 26.0541 167.354 27.4165 164.36 29.2077C163.893 29.5 163.526 29.9281 163.31 30.4346C163.093 30.941 163.036 31.5017 163.146 32.0415C164.354 37.9468 167.1 45.8539 170.065 50.8896L183.896 45.1657C183.99 42.726 180.631 34.8315 177.209 27.1996C176.596 25.8297 175.414 24.81 173.956 25.1603Z" fill="#91ABFF"/>
<path opacity="0.8" d="M173.956 25.1603C170.584 26.0541 167.354 27.4165 164.36 29.2077C163.893 29.5 163.526 29.9281 163.31 30.4346C163.093 30.941 163.036 31.5017 163.146 32.0415C164.354 37.9468 167.1 45.8539 170.065 50.8896L183.896 45.1657C183.99 42.726 180.631 34.8315 177.209 27.1996C176.596 25.8297 175.414 24.81 173.956 25.1603Z" fill="white"/>
<path opacity="0.3" d="M179.355 32.0348L176.608 31.1152C177.234 32.7229 179.442 34.756 180.987 35.9508C180.487 34.6997 179.93 33.386 179.355 32.0348Z" fill="#91ABFF"/>
<path d="M173.049 18.9665C171.905 16.7896 169.434 15.6948 166.468 15.9388C163.966 16.1515 161.752 18.7038 162.014 20.08C162.277 21.4563 164.379 22.0443 164.779 22.5197L163.047 23.7708C162.841 23.919 162.668 24.1072 162.538 24.324C162.407 24.5408 162.321 24.7819 162.286 25.0326C162.251 25.2833 162.267 25.5385 162.333 25.7829C162.4 26.0272 162.515 26.2557 162.671 26.4545C163.403 27.3803 164.367 28.3312 164.923 29.0318C169.715 28.9067 173.262 27.0801 174.544 25.3222C174.063 23.0952 174.163 21.131 173.049 18.9665Z" fill="#91ABFF"/>
<path opacity="0.8" d="M173.049 18.9665C171.905 16.7896 169.434 15.6948 166.468 15.9388C163.966 16.1515 161.752 18.7038 162.014 20.08C162.277 21.4563 164.379 22.0443 164.779 22.5197L163.047 23.7708C162.841 23.919 162.668 24.1072 162.538 24.324C162.407 24.5408 162.321 24.7819 162.286 25.0326C162.251 25.2833 162.267 25.5385 162.333 25.7829C162.4 26.0272 162.515 26.2557 162.671 26.4545C163.403 27.3803 164.367 28.3312 164.923 29.0318C169.715 28.9067 173.262 27.0801 174.544 25.3222C174.063 23.0952 174.163 21.131 173.049 18.9665Z" fill="white"/>
<path d="M170.697 20.318C171.037 21.1904 171.111 22.1441 170.91 23.0585C170.708 23.9729 170.24 24.807 169.564 25.4553C168.888 26.1036 168.036 26.537 167.114 26.7008C166.192 26.8646 165.242 26.7514 164.384 26.3755C163.527 25.9996 162.8 25.3778 162.295 24.5889C161.791 23.7999 161.532 22.8791 161.551 21.9429C161.57 21.0067 161.866 20.0971 162.401 19.3291C162.937 18.5611 163.688 17.9692 164.561 17.6281C165.731 17.1721 167.035 17.1992 168.185 17.7036C169.336 18.2079 170.239 19.1482 170.697 20.318Z" fill="#F05A28"/>
<path d="M211.315 76.6933C211.246 74.6352 211.152 74.8166 211.096 73.0838C211.058 72.0204 211.052 70.8381 211.046 69.8184C211.044 69.3342 210.874 68.8655 210.567 68.4917C210.259 68.1178 209.831 67.8617 209.357 67.7666C208.531 67.5977 207.699 67.4413 206.854 67.2661C205.772 67.0346 204.702 66.7844 203.645 66.4779C202.82 66.2402 202.006 65.9775 201.199 65.6834C200.392 65.3894 199.485 65.0579 198.647 64.67C197.659 64.2509 196.683 63.8005 195.719 63.3313C194.637 62.8184 193.567 62.2804 192.498 61.7362C188.382 54.9238 188.294 50.4323 183.878 45.165L174.394 49.4564C174.394 49.4564 181.363 61.8175 186.105 67.0597C188.838 70.0749 193.123 71.4386 196.946 72.427C199.704 73.1339 202.5 73.6781 205.297 74.1973C206.385 74.3975 207.568 74.4726 208.506 75.1231C209.2 75.6554 209.676 76.4229 209.845 77.2813C209.886 77.4565 209.924 77.6317 209.957 77.8068C210.076 78.3323 211.358 77.9319 211.315 76.6933Z" fill="#91ABFF"/>
<path opacity="0.8" d="M211.315 76.6933C211.246 74.6352 211.152 74.8166 211.096 73.0838C211.058 72.0204 211.052 70.8381 211.046 69.8184C211.044 69.3342 210.874 68.8655 210.567 68.4917C210.259 68.1178 209.831 67.8617 209.357 67.7666C208.531 67.5977 207.699 67.4413 206.854 67.2661C205.772 67.0346 204.702 66.7844 203.645 66.4779C202.82 66.2402 202.006 65.9775 201.199 65.6834C200.392 65.3894 199.485 65.0579 198.647 64.67C197.659 64.2509 196.683 63.8005 195.719 63.3313C194.637 62.8184 193.567 62.2804 192.498 61.7362C188.382 54.9238 188.294 50.4323 183.878 45.165L174.394 49.4564C174.394 49.4564 181.363 61.8175 186.105 67.0597C188.838 70.0749 193.123 71.4386 196.946 72.427C199.704 73.1339 202.5 73.6781 205.297 74.1973C206.385 74.3975 207.568 74.4726 208.506 75.1231C209.2 75.6554 209.676 76.4229 209.845 77.2813C209.886 77.4565 209.924 77.6317 209.957 77.8068C210.076 78.3323 211.358 77.9319 211.315 76.6933Z" fill="white"/>
<path opacity="0.3" d="M206.504 67.1842C206.129 67.1029 205.753 67.0216 205.372 66.9277C205.403 69.0922 204.39 72.8205 204.021 73.9528L205.209 74.178C205.988 71.9246 206.424 69.5671 206.504 67.1842Z" fill="#91ABFF"/>
<path opacity="0.3" d="M211.071 69.8182C211.069 69.3348 210.9 68.8669 210.594 68.4931C210.287 68.1194 209.861 67.8627 209.388 67.7663L208.762 67.6475C208.863 68.3586 209.227 69.0061 209.782 69.4616C210.139 69.7917 210.567 70.0357 211.033 70.1747C211.071 70.0621 211.071 69.937 211.071 69.8182Z" fill="#91ABFF"/>
<path d="M169.815 20.3561C170.065 21.3069 169.002 22.3016 168.157 21.4821C167.369 20.637 166.506 19.8644 165.58 19.1738C164.71 18.6295 165.867 17.6787 167.237 18.0478C167.822 18.1946 168.362 18.4815 168.811 18.8836C169.26 19.2858 169.605 19.7911 169.815 20.3561Z" fill="white"/>
<path d="M169.883 50.5823C169.445 50.7449 170.246 51.4956 170.246 51.4956C170.246 51.4956 179.004 48.4992 184.321 45.4151C184.334 45.2284 184.302 45.0414 184.228 44.8694C184.154 44.6975 184.04 44.5458 183.896 44.4268C179.345 46.7417 174.667 48.7968 169.883 50.5823Z" fill="#91ABFF"/>
<path opacity="0.5" d="M169.883 50.5823C169.445 50.7449 170.246 51.4956 170.246 51.4956C170.246 51.4956 179.004 48.4992 184.321 45.4151C184.334 45.2284 184.302 45.0414 184.228 44.8694C184.154 44.6975 184.04 44.5458 183.896 44.4268C179.345 46.7417 174.667 48.7968 169.883 50.5823Z" fill="white"/>
<path d="M176.327 24.747C178.053 25.6228 179.674 26.5424 181.331 27.5621C182.138 28.075 182.939 28.5942 183.733 29.1572C184.528 29.7202 185.316 30.2958 186.111 30.9463L186.405 31.1903L186.774 31.5281C186.994 31.7249 187.202 31.9337 187.399 32.1537C187.599 32.3726 187.768 32.5853 187.931 32.7792C188.094 32.9732 188.269 33.2046 188.413 33.4048C188.996 34.209 189.534 35.0443 190.027 35.907C190.996 37.58 191.833 39.3265 192.529 41.1305C192.658 41.4713 192.664 41.8462 192.548 42.1914C192.431 42.5366 192.199 42.8307 191.89 43.0239C191.581 43.217 191.215 43.2972 190.853 43.2509C190.492 43.2045 190.158 43.0344 189.908 42.7694L189.876 42.7319C188.625 41.3995 187.418 39.9982 186.204 38.6908C184.991 37.3834 183.758 36.0572 182.739 35.4754C181.319 34.5934 179.736 33.7113 178.166 32.848L173.437 30.2207C172.703 29.8325 172.154 29.1688 171.91 28.3758C171.666 27.5827 171.747 26.7252 172.136 25.9919C172.524 25.2586 173.187 24.7095 173.98 24.4655C174.774 24.2215 175.631 24.3025 176.364 24.6907L176.327 24.747Z" fill="#91ABFF"/>
<path opacity="0.8" d="M176.327 24.747C178.053 25.6228 179.674 26.5424 181.331 27.5621C182.138 28.075 182.939 28.5942 183.733 29.1572C184.528 29.7202 185.316 30.2958 186.111 30.9463L186.405 31.1903L186.774 31.5281C186.994 31.7249 187.202 31.9337 187.399 32.1537C187.599 32.3726 187.768 32.5853 187.931 32.7792C188.094 32.9732 188.269 33.2046 188.413 33.4048C188.996 34.209 189.534 35.0443 190.027 35.907C190.996 37.58 191.833 39.3265 192.529 41.1305C192.658 41.4713 192.664 41.8462 192.548 42.1914C192.431 42.5366 192.199 42.8307 191.89 43.0239C191.581 43.217 191.215 43.2972 190.853 43.2509C190.492 43.2045 190.158 43.0344 189.908 42.7694L189.876 42.7319C188.625 41.3995 187.418 39.9982 186.204 38.6908C184.991 37.3834 183.758 36.0572 182.739 35.4754C181.319 34.5934 179.736 33.7113 178.166 32.848L173.437 30.2207C172.703 29.8325 172.154 29.1688 171.91 28.3758C171.666 27.5827 171.747 26.7252 172.136 25.9919C172.524 25.2586 173.187 24.7095 173.98 24.4655C174.774 24.2215 175.631 24.3025 176.364 24.6907L176.327 24.747Z" fill="white"/>
<path d="M194.012 44.2516L193.48 42.9191C193.48 42.9191 193.186 41.2176 192.129 40.7422L189.001 41.2364L189.107 41.5116C189.395 42.1372 189.176 43.282 188.894 44.1953C188.613 45.1086 189.088 45.2275 189.489 45.046C189.714 44.946 189.933 44.5393 190.171 44.1077C190.287 44.3252 190.419 44.5342 190.565 44.7333L191.334 45.7905C191.495 46.0095 191.733 46.1597 191.999 46.2107C192.266 46.2618 192.543 46.21 192.773 46.0657L193.624 45.5215C193.823 45.3852 193.97 45.1853 194.04 44.9545C194.111 44.7237 194.101 44.4759 194.012 44.2516Z" fill="#91ABFF"/>
<path opacity="0.8" d="M194.012 44.2516L193.48 42.9191C193.48 42.9191 193.186 41.2176 192.129 40.7422L189.001 41.2364L189.107 41.5116C189.395 42.1372 189.176 43.282 188.894 44.1953C188.613 45.1086 189.088 45.2275 189.489 45.046C189.714 44.946 189.933 44.5393 190.171 44.1077C190.287 44.3252 190.419 44.5342 190.565 44.7333L191.334 45.7905C191.495 46.0095 191.733 46.1597 191.999 46.2107C192.266 46.2618 192.543 46.21 192.773 46.0657L193.624 45.5215C193.823 45.3852 193.97 45.1853 194.04 44.9545C194.111 44.7237 194.101 44.4759 194.012 44.2516Z" fill="white"/>
<path opacity="0.3" d="M173.687 31.9404L172.924 32.003L168.238 43.3131C168.494 43.3316 168.752 43.3105 169.001 43.2506C169.001 43.2506 175.107 40.9735 176.952 40.1228C175.714 37.5642 173.687 31.9404 173.687 31.9404Z" fill="#91ABFF"/>
<path d="M165.136 34.9065C165.705 37.863 166.762 40.7043 168.264 43.314C170.553 42.5258 174.369 41.037 176.221 40.1862C174.976 37.5182 173.872 34.787 172.911 32.0039C170.953 32.1353 166.656 33.7805 165.136 34.9065Z" fill="white"/>
<path opacity="0.3" d="M169.783 37.3516C169.692 37.6575 169.512 37.9294 169.266 38.133C169.02 38.3365 168.719 38.4624 168.401 38.4949C168.084 38.5274 167.763 38.4649 167.481 38.3154C167.199 38.1659 166.968 37.9361 166.816 37.655C166.665 37.374 166.6 37.0543 166.63 36.7364C166.661 36.4186 166.784 36.1168 166.986 35.8694C167.188 35.6219 167.459 35.4399 167.764 35.3463C168.069 35.2527 168.395 35.2517 168.701 35.3436C169.111 35.4666 169.455 35.7471 169.658 36.1236C169.861 36.5002 169.906 36.9418 169.783 37.3516Z" fill="#91ABFF"/>
<path opacity="0.6" d="M170.979 35.1995C170.954 35.3039 170.899 35.3985 170.82 35.4709C170.741 35.5433 170.642 35.5901 170.535 35.6051C170.429 35.6201 170.321 35.6027 170.225 35.5551C170.129 35.5075 170.049 35.432 169.997 35.3384C169.945 35.2448 169.922 35.1376 169.931 35.0308C169.941 34.924 169.983 34.8227 170.051 34.74C170.119 34.6573 170.211 34.5972 170.314 34.5676C170.417 34.538 170.527 34.5402 170.628 34.5739C170.755 34.6145 170.862 34.7016 170.927 34.8177C170.992 34.9338 171.01 35.0703 170.979 35.1995Z" fill="#91ABFF"/>
<path opacity="0.6" d="M172.38 34.6555C172.365 34.728 172.335 34.7967 172.292 34.8572C172.25 34.9176 172.195 34.9684 172.131 35.0064C172.068 35.0444 171.997 35.0687 171.923 35.0777C171.85 35.0868 171.775 35.0804 171.704 35.059C171.634 35.0375 171.568 35.0015 171.512 34.9533C171.456 34.905 171.41 34.8456 171.378 34.7787C171.347 34.7119 171.329 34.6391 171.327 34.5651C171.325 34.4911 171.338 34.4175 171.366 34.3489C171.386 34.2827 171.419 34.2211 171.463 34.1677C171.507 34.1142 171.561 34.07 171.622 34.0374C171.683 34.0049 171.75 33.9847 171.819 33.978C171.887 33.9714 171.957 33.9784 172.023 33.9986C172.157 34.0392 172.269 34.1309 172.336 34.2538C172.403 34.3768 172.418 34.5211 172.38 34.6555Z" fill="#91ABFF"/>
<path opacity="0.5" d="M174.344 39.5291L168.557 41.8124L168.213 40.6739L173.994 38.3906L174.344 39.5291Z" fill="#91ABFF"/>
<path opacity="0.2" d="M142.422 126.47C142.408 130.113 142.056 133.746 141.371 137.324C140.633 140.539 139.486 142.891 137.93 144.38C137.206 145.099 136.345 145.667 135.399 146.05C134.453 146.434 133.44 146.625 132.419 146.613C129.204 146.613 126.749 144.86 125.056 141.352C124.759 140.722 124.506 140.072 124.299 139.407C120.723 142.478 117.394 145.824 114.34 149.416L111.019 153.332C112.806 155.144 114.869 156.662 117.13 157.829C121.025 159.844 126.138 160.853 132.469 160.857C133.583 160.857 134.658 160.826 135.703 160.763C139.533 155.096 142.702 149.01 145.149 142.622L154.439 118.4L142.422 126.47Z" fill="black"/>
<path d="M58.6777 159.519L69.625 170.466L100.278 141.584C89.7118 137.549 69.1684 149.003 58.6777 159.519Z" fill="#F05A28"/>
<path d="M96.8555 197.678C93.3586 194.175 85.9082 186.731 85.9082 186.731L114.79 156.078C118.8 166.619 107.346 187.181 96.8555 197.678Z" fill="#F05A28"/>
<path d="M138.756 128.678L150.698 105.651L127.671 117.606C120.274 121.442 113.445 126.284 107.377 131.994L68.1235 168.946L87.4096 188.232L124.361 148.978C130.074 142.909 134.918 136.077 138.756 128.678Z" fill="#91ABFF"/>
<path opacity="0.6" d="M138.756 128.678L150.698 105.651L127.671 117.606C120.274 121.442 113.445 126.284 107.377 131.994L68.1235 168.946L87.4096 188.232L124.361 148.978C130.074 142.909 134.918 136.077 138.756 128.678Z" fill="white"/>
<path d="M114.234 150.185C118.691 150.185 122.304 146.572 122.304 142.116C122.304 137.659 118.691 134.046 114.234 134.046C109.777 134.046 106.164 137.659 106.164 142.116C106.164 146.572 109.777 150.185 114.234 150.185Z" fill="white"/>
<path d="M114.234 147.301C117.098 147.301 119.42 144.98 119.42 142.116C119.42 139.251 117.098 136.93 114.234 136.93C111.37 136.93 109.048 139.251 109.048 142.116C109.048 144.98 111.37 147.301 114.234 147.301Z" fill="#91ABFF"/>
<path opacity="0.3" d="M93.9345 181.3L75.0488 162.415L90.5127 147.864L108.485 165.843L93.9345 181.3Z" fill="#91ABFF"/>
<path d="M62.9501 176.797C48.8125 177.942 44.127 186.994 42.5256 199.023C41.7124 205.16 41.3495 211.372 36.2012 214.962C35.8914 215.173 35.6582 215.478 35.5365 215.832C35.4148 216.186 35.411 216.57 35.5258 216.927C35.6407 217.283 35.8679 217.593 36.1734 217.809C36.479 218.026 36.8465 218.138 37.2208 218.128C56.2003 217.533 65.052 208.244 66.1655 204.365C65.8732 206.393 65.3507 208.38 64.6079 210.289C64.4713 210.626 64.4446 210.998 64.5315 211.351C64.6184 211.704 64.8144 212.02 65.0917 212.255C65.369 212.49 65.7134 212.632 66.0758 212.659C66.4382 212.687 66.8002 212.6 67.1101 212.41C72.4336 209.076 79.1146 202.933 79.5588 192.968C75.6428 187.419 62.9501 176.797 62.9501 176.797Z" fill="#91ABFF"/>
<path opacity="0.2" d="M62.9501 176.797C48.8125 177.942 44.127 186.994 42.5256 199.023C41.7124 205.16 41.3495 211.372 36.2012 214.962C35.8914 215.173 35.6582 215.478 35.5365 215.832C35.4148 216.186 35.411 216.57 35.5258 216.927C35.6407 217.283 35.8679 217.593 36.1734 217.809C36.479 218.026 36.8465 218.138 37.2208 218.128C56.2003 217.533 65.052 208.244 66.1655 204.365C65.8732 206.393 65.3507 208.38 64.6079 210.289C64.4713 210.626 64.4446 210.998 64.5315 211.351C64.6184 211.704 64.8144 212.02 65.0917 212.255C65.369 212.49 65.7134 212.632 66.0758 212.659C66.4382 212.687 66.8002 212.6 67.1101 212.41C72.4336 209.076 79.1146 202.933 79.5588 192.968C75.6428 187.419 62.9501 176.797 62.9501 176.797Z" fill="white"/>
<path d="M81.7547 197.239L59.1094 174.594L71.1702 171.985L84.3633 185.178L81.7547 197.239Z" fill="#91ABFF"/>
</svg>
