<svg width="23" height="23" viewBox="0 0 23 23" fill="none" xmlns="http://www.w3.org/2000/svg">
<path d="M9.60011 1.77682C10.2031 -0.0567293 12.7969 -0.0567262 13.3999 1.77682L15.0205 6.70445C15.2189 7.30783 15.6922 7.78107 16.2955 7.97951L21.2232 9.60011C23.0567 10.2031 23.0567 12.7969 21.2232 13.3999L16.2955 15.0205C15.6922 15.2189 15.2189 15.6922 15.0205 16.2955L13.3999 21.2232C12.7969 23.0567 10.2031 23.0567 9.60011 21.2232L7.9795 16.2955C7.78107 15.6922 7.30783 15.2189 6.70445 15.0205L1.77682 13.3999C-0.0567293 12.7969 -0.0567262 10.2031 1.77682 9.60011L6.70445 7.9795C7.30783 7.78107 7.78107 7.30783 7.97951 6.70445L9.60011 1.77682Z" fill="#FFCC8A"/>
</svg>
