<svg width="188" height="188" viewBox="0 0 188 188" fill="none" xmlns="http://www.w3.org/2000/svg">
<g clip-path="url(#clip0_3556_2156)">
<mask id="mask0_3556_2156" style="mask-type:luminance" maskUnits="userSpaceOnUse" x="0" y="0" width="188" height="188">
<path d="M188 0H0V188H188V0Z" fill="white"/>
</mask>
<g mask="url(#mask0_3556_2156)">
<path d="M168.417 3.91663H19.5837C10.9312 3.91663 3.91699 10.9308 3.91699 19.5833V168.417C3.91699 177.069 10.9312 184.083 19.5837 184.083H168.417C177.07 184.083 184.084 177.069 184.084 168.417V19.5833C184.084 10.9308 177.07 3.91663 168.417 3.91663Z" stroke="#29266E" stroke-width="5" stroke-linecap="round" stroke-linejoin="round"/>
<path d="M3.91699 35.25H184.084" stroke="#29266E" stroke-width="5" stroke-linecap="round" stroke-linejoin="round"/>
<path d="M3.91699 152.75H184.084" stroke="#29266E" stroke-width="5" stroke-linecap="round" stroke-linejoin="round"/>
<path d="M69.8423 65.7999C69.0622 65.4588 68.2094 65.3176 67.3609 65.3888C66.5125 65.4602 65.6951 65.7418 64.9829 66.2084C64.2706 66.6749 63.686 67.3116 63.2816 68.0609C62.8772 68.8102 62.666 69.6485 62.667 70.4999V117.5C62.666 118.351 62.8772 119.19 63.2816 119.939C63.686 120.688 64.2706 121.325 64.9829 121.791C65.6951 122.258 66.5125 122.54 67.3609 122.611C68.2094 122.683 69.0622 122.541 69.8423 122.2L121.746 99.4833C122.812 99.0173 123.719 98.2496 124.357 97.2759C124.994 96.3022 125.333 95.164 125.333 94C125.333 92.836 124.994 91.6978 124.357 90.7241C123.719 89.7496 122.812 88.9828 121.746 88.5167L69.8423 65.7999Z" stroke="#FF8D67" stroke-width="5" stroke-linecap="round" stroke-linejoin="round"/>
<path d="M29.4515 21.5417C28.3699 21.5417 27.4932 20.6649 27.4932 19.5833C27.4932 18.5018 28.3699 17.625 29.4515 17.625" stroke="#29266E" stroke-width="5"/>
<path d="M29.4521 21.5417C30.5337 21.5417 31.4105 20.6649 31.4105 19.5833C31.4105 18.5018 30.5337 17.625 29.4521 17.625" stroke="#29266E" stroke-width="5"/>
<path d="M61.7259 21.5417C60.6444 21.5417 59.7676 20.6649 59.7676 19.5833C59.7676 18.5018 60.6444 17.625 61.7259 17.625" stroke="#29266E" stroke-width="5"/>
<path d="M61.7256 21.5417C62.8072 21.5417 63.6839 20.6649 63.6839 19.5833C63.6839 18.5018 62.8072 17.625 61.7256 17.625" stroke="#29266E" stroke-width="5"/>
<path d="M94.0003 21.5417C92.9185 21.5417 92.042 20.6649 92.042 19.5833C92.042 18.5018 92.9185 17.625 94.0003 17.625" stroke="#29266E" stroke-width="5"/>
<path d="M94 21.5417C95.0818 21.5417 95.9583 20.6649 95.9583 19.5833C95.9583 18.5018 95.0818 17.625 94 17.625" stroke="#29266E" stroke-width="5"/>
<path d="M126.275 21.5417C125.193 21.5417 124.316 20.6649 124.316 19.5833C124.316 18.5018 125.193 17.625 126.275 17.625" stroke="#29266E" stroke-width="5"/>
<path d="M126.274 21.5417C127.356 21.5417 128.233 20.6649 128.233 19.5833C128.233 18.5018 127.356 17.625 126.274 17.625" stroke="#29266E" stroke-width="5"/>
<path d="M158.548 21.5417C157.466 21.5417 156.59 20.6649 156.59 19.5833C156.59 18.5018 157.466 17.625 158.548 17.625" stroke="#29266E" stroke-width="5"/>
<path d="M158.549 21.5417C159.631 21.5417 160.507 20.6649 160.507 19.5833C160.507 18.5018 159.631 17.625 158.549 17.625" stroke="#29266E" stroke-width="5"/>
<path d="M29.4515 170.375C28.3699 170.375 27.4932 169.498 27.4932 168.417C27.4932 167.335 28.3699 166.458 29.4515 166.458" stroke="#29266E" stroke-width="5"/>
<path d="M29.4521 170.375C30.5337 170.375 31.4105 169.498 31.4105 168.417C31.4105 167.335 30.5337 166.458 29.4521 166.458" stroke="#29266E" stroke-width="5"/>
<path d="M61.7259 170.375C60.6444 170.375 59.7676 169.498 59.7676 168.417C59.7676 167.335 60.6444 166.458 61.7259 166.458" stroke="#29266E" stroke-width="5"/>
<path d="M61.7256 170.375C62.8072 170.375 63.6839 169.498 63.6839 168.417C63.6839 167.335 62.8072 166.458 61.7256 166.458" stroke="#29266E" stroke-width="5"/>
<path d="M94.0003 170.375C92.9185 170.375 92.042 169.498 92.042 168.417C92.042 167.335 92.9185 166.458 94.0003 166.458" stroke="#29266E" stroke-width="5"/>
<path d="M94 170.375C95.0818 170.375 95.9583 169.498 95.9583 168.417C95.9583 167.335 95.0818 166.458 94 166.458" stroke="#29266E" stroke-width="5"/>
<path d="M126.275 170.375C125.193 170.375 124.316 169.498 124.316 168.417C124.316 167.335 125.193 166.458 126.275 166.458" stroke="#29266E" stroke-width="5"/>
<path d="M126.274 170.375C127.356 170.375 128.233 169.498 128.233 168.417C128.233 167.335 127.356 166.458 126.274 166.458" stroke="#29266E" stroke-width="5"/>
<path d="M158.548 170.375C157.466 170.375 156.59 169.498 156.59 168.417C156.59 167.335 157.466 166.458 158.548 166.458" stroke="#29266E" stroke-width="5"/>
<path d="M158.549 170.375C159.631 170.375 160.507 169.498 160.507 168.417C160.507 167.335 159.631 166.458 158.549 166.458" stroke="#29266E" stroke-width="5"/>
</g>
</g>
<defs>
<clipPath id="clip0_3556_2156">
<rect width="188" height="188" fill="white"/>
</clipPath>
</defs>
</svg>
