<svg width="38" height="45" viewBox="0 0 38 45" fill="none" xmlns="http://www.w3.org/2000/svg">
<path fill-rule="evenodd" clip-rule="evenodd" d="M0 22.1477L22.2564 0L30.9753 7.08331C30.9753 7.08331 27.9528 7.14441 25.3283 8.08974C22.7042 9.03479 21.3944 10.4241 20.011 11.9026C16.9841 15.1383 16.1208 18.2477 16.1431 22.2099C16.1648 26.1721 17.3548 28.3061 19.6572 31.2078C20.4366 32.1906 21.204 33.1356 22.5108 33.8496C22.9562 34.0932 24.8362 35.4646 26.0743 35.8483C27.3124 36.232 30.6337 36.3776 30.6337 36.3776L22.5108 44.8125L0 22.1477Z" fill="#849FF6"/>
<path d="M31.1093 27.6189C34.4089 27.6189 37.0838 24.944 37.0838 21.6444C37.0838 18.3448 34.4089 15.6699 31.1093 15.6699C27.8096 15.6699 25.1348 18.3448 25.1348 21.6444C25.1348 24.944 27.8096 27.6189 31.1093 27.6189Z" fill="#FF8D67"/>
</svg>
