<svg width="47" height="47" viewBox="0 0 47 47" fill="none" xmlns="http://www.w3.org/2000/svg">
<path d="M17.7671 20.3828L16.688 23.3472H18.8716L17.7671 20.3828Z" fill="white"/>
<path d="M36.3594 8.08008H10.1372C9.08984 8.08008 8.23291 8.93701 8.23291 9.98438V36.2065C8.23291 37.2539 9.08984 38.1108 10.1372 38.1108H36.3594C37.4067 38.1108 38.2637 37.2539 38.2637 36.2065V9.98438C38.2637 8.93066 37.4067 8.08008 36.3594 8.08008ZM30.0879 18.522H31.7002V26.5073H30.0879V18.522ZM22.6929 18.522H25.2827C26.2666 18.522 26.9014 18.5601 27.1997 18.6426C27.6567 18.7632 28.0376 19.0234 28.3486 19.4233C28.6597 19.8232 28.812 20.3437 28.812 20.9785C28.812 21.4673 28.7231 21.8799 28.5454 22.2163C28.3677 22.5527 28.1392 22.813 27.8662 23.0034C27.5933 23.1938 27.314 23.3208 27.0283 23.3843C26.6411 23.4604 26.0889 23.4985 25.3525 23.4985H24.2988V26.5073H22.6929V18.522ZM16.9355 18.522H18.6431L21.8359 26.5073H20.084L19.3857 24.6919H16.1929L15.5327 26.5073H13.8188L16.9355 18.522ZM31.478 35.8701H12.7017C11.4702 35.8701 10.4736 34.8735 10.4736 33.6421V14.9165C10.4736 14.5674 10.7593 14.2817 11.1084 14.2817C11.4575 14.2817 11.7432 14.5674 11.7432 14.9165V33.6421C11.7432 34.1689 12.1748 34.6006 12.7017 34.6006H31.478C31.8271 34.6006 32.1128 34.8862 32.1128 35.2354C32.1128 35.5845 31.8335 35.8701 31.478 35.8701Z" fill="white"/>
<path d="M26.4634 22.0146C26.6792 21.9321 26.8442 21.7988 26.9648 21.6211C27.0854 21.4434 27.1489 21.2339 27.1489 20.999C27.1489 20.707 27.0664 20.4658 26.895 20.2817C26.7236 20.0913 26.5078 19.9771 26.2476 19.9263C26.0571 19.8882 25.6699 19.8691 25.0859 19.8691H24.3052V22.1353H25.1875C25.8223 22.1416 26.2476 22.0972 26.4634 22.0146Z" fill="white"/>
<path d="M31.478 34.6021H12.7017C12.1748 34.6021 11.7432 34.1704 11.7432 33.6436V14.918C11.7432 14.5688 11.4575 14.2832 11.1084 14.2832C10.7593 14.2832 10.4736 14.5688 10.4736 14.918V33.6436C10.4736 34.875 11.4702 35.8716 12.7017 35.8716H31.478C31.8271 35.8716 32.1128 35.5859 32.1128 35.2368C32.1128 34.8877 31.8335 34.6021 31.478 34.6021Z" fill="#FF8D67"/>
<path d="M45.2271 16.1294C45.9253 16.1294 46.4966 15.5581 46.4966 14.8599C46.4966 14.1616 45.9253 13.5903 45.2271 13.5903H40.8027V9.98486C40.8027 7.53467 38.8096 5.5415 36.3594 5.5415H34.5947V1.26953C34.5947 0.571289 34.0234 0 33.3252 0C32.627 0 32.0557 0.571289 32.0557 1.26953V5.5415H29.104V1.26953C29.104 0.571289 28.5327 0 27.8345 0C27.1362 0 26.5649 0.571289 26.5649 1.26953V5.5415H23.6133V1.26953C23.6133 0.571289 23.042 0 22.3438 0C21.6455 0 21.0742 0.571289 21.0742 1.26953V5.5415H18.1226V1.26953C18.1226 0.571289 17.5513 0 16.853 0C16.1548 0 15.5835 0.571289 15.5835 1.26953V5.5415H10.1372C7.68701 5.5415 5.69385 7.53467 5.69385 9.98486V13.5903H1.26953C0.571289 13.5903 0 14.1616 0 14.8599C0 15.5581 0.571289 16.1294 1.26953 16.1294H5.69385V19.0811H1.26953C0.571289 19.0811 0 19.6523 0 20.3506C0 21.0488 0.571289 21.6201 1.26953 21.6201H5.69385V24.5718H1.26953C0.571289 24.5718 0 25.1431 0 25.8413C0 26.5396 0.571289 27.1108 1.26953 27.1108H5.69385V30.0625H1.26953C0.571289 30.0625 0 30.6338 0 31.332C0 32.0303 0.571289 32.6016 1.26953 32.6016H5.69385V36.207C5.69385 38.6572 7.68701 40.6504 10.1372 40.6504H12.0923V45.2524C12.0923 45.9507 12.6636 46.522 13.3618 46.522C14.0601 46.522 14.6313 45.9507 14.6313 45.2524V40.6504H17.583V45.2524C17.583 45.9507 18.1543 46.522 18.8525 46.522C19.5508 46.522 20.1221 45.9507 20.1221 45.2524V40.6504H23.0737V45.2524C23.0737 45.9507 23.645 46.522 24.3433 46.522C25.0415 46.522 25.6128 45.9507 25.6128 45.2524V40.6504H28.5645V45.2524C28.5645 45.9507 29.1357 46.522 29.834 46.522C30.5322 46.522 31.1035 45.9507 31.1035 45.2524V40.6504H36.3594C38.8096 40.6504 40.8027 38.6572 40.8027 36.207V32.6016H45.2271C45.9253 32.6016 46.4966 32.0303 46.4966 31.332C46.4966 30.6338 45.9253 30.0625 45.2271 30.0625H40.8027V27.1108H45.2271C45.9253 27.1108 46.4966 26.5396 46.4966 25.8413C46.4966 25.1431 45.9253 24.5718 45.2271 24.5718H40.8027V21.6201H45.2271C45.9253 21.6201 46.4966 21.0488 46.4966 20.3506C46.4966 19.6523 45.9253 19.0811 45.2271 19.0811H40.8027V16.1294H45.2271ZM38.2637 36.2007C38.2637 37.248 37.4067 38.105 36.3594 38.105H10.1372C9.08984 38.105 8.23291 37.248 8.23291 36.2007V9.98486C8.23291 8.9375 9.08984 8.08057 10.1372 8.08057H36.3594C37.4067 8.08057 38.2637 8.9375 38.2637 9.98486V36.2007Z" fill="#194BED"/>
<path d="M16.1929 24.6914H19.3857L20.084 26.5068H21.8359L18.6367 18.5215H16.9292L13.8188 26.5068H15.5327L16.1929 24.6914ZM17.7671 20.3813L18.8652 23.3457H16.688L17.7671 20.3813ZM24.3052 23.498H25.3589C26.0889 23.498 26.6475 23.46 27.0347 23.3838C27.3203 23.3203 27.5996 23.1934 27.8726 23.0029C28.1455 22.8125 28.374 22.5522 28.5518 22.2158C28.7295 21.8794 28.8184 21.4668 28.8184 20.978C28.8184 20.3433 28.666 19.8228 28.355 19.4229C28.0439 19.0229 27.6631 18.7627 27.2061 18.6421C26.9077 18.5596 26.2666 18.5215 25.2891 18.5215H22.6929V26.5068H24.3052V23.498ZM24.3052 19.8735H25.0859C25.6699 19.8735 26.0508 19.8926 26.2476 19.9307C26.5078 19.9751 26.7236 20.0957 26.895 20.2861C27.0664 20.4766 27.1489 20.7178 27.1489 21.0034C27.1489 21.2383 27.0854 21.4478 26.9648 21.6255C26.8442 21.8032 26.6729 21.9365 26.4634 22.019C26.2476 22.1016 25.8223 22.146 25.1875 22.146H24.3052V19.8735ZM30.0879 18.5215H31.7002V26.5068H30.0879V18.5215Z" fill="#91ABFF"/>
</svg>
