<svg width="56" height="61" viewBox="0 0 56 61" fill="none" xmlns="http://www.w3.org/2000/svg">
<path d="M4.12533 54.5717C7.52426 58.6673 13.8502 58.6673 26.5022 58.6673H28.5456C41.1976 58.6673 47.5236 58.6673 50.9224 54.5717M4.12533 54.5717C0.726381 50.4764 1.89218 44.2587 4.22382 31.8235C5.88194 22.9801 6.711 18.5585 9.85855 15.9462M50.9224 54.5717C54.3213 50.4764 53.1557 44.2587 50.8241 31.8235C49.1658 22.9801 48.3367 18.5585 45.1892 15.9462M45.1892 15.9462C42.0416 13.334 37.5432 13.334 28.5456 13.334H26.5022C17.5048 13.334 13.0061 13.334 9.85855 15.9462" stroke="#194BED" stroke-width="4"/>
<path d="M21.8574 36.85C23.3327 38.1777 24.1598 38.9223 25.6351 40.25L33.1908 31.75" stroke="#FF8D67" stroke-width="4" stroke-linecap="round" stroke-linejoin="round"/>
<path opacity="0.5" d="M19.0244 13.3333V10.5C19.0244 5.80559 22.8299 2 27.5244 2C32.219 2 36.0244 5.80559 36.0244 10.5V13.3333" stroke="#194BED" stroke-width="4" stroke-linecap="round"/>
</svg>
