<svg width="49" height="52" viewBox="0 0 49 52" fill="none" xmlns="http://www.w3.org/2000/svg">
<path d="M2.60723 18.2322C1.875 18.9645 1.875 20.143 1.875 22.5V37.5C1.875 39.857 1.875 41.0355 2.60723 41.7677C3.33948 42.5 4.51798 42.5 6.875 42.5C9.23202 42.5 10.4105 42.5 11.1428 41.7677C11.875 41.0355 11.875 39.857 11.875 37.5V22.5C11.875 20.143 11.875 18.9645 11.1428 18.2322C10.4105 17.5 9.23202 17.5 6.875 17.5C4.51798 17.5 3.33948 17.5 2.60723 18.2322Z" fill="#194BED"/>
<path opacity="0.4" d="M37.6073 0.732225C36.875 1.46448 36.875 2.64298 36.875 5V37.5C36.875 39.857 36.875 41.0355 37.6073 41.7677C38.3395 42.5 39.518 42.5 41.875 42.5C44.232 42.5 45.4105 42.5 46.1427 41.7677C46.875 41.0355 46.875 39.857 46.875 37.5V5C46.875 2.64298 46.875 1.46448 46.1427 0.732225C45.4105 1.49012e-07 44.232 0 41.875 0C39.518 0 38.3395 1.49012e-07 37.6073 0.732225Z" fill="#FF8D67"/>
<path opacity="0.7" d="M19.375 12.5C19.375 10.143 19.375 8.96448 20.1073 8.23223C20.8395 7.5 22.018 7.5 24.375 7.5C26.732 7.5 27.9105 7.5 28.6427 8.23223C29.375 8.96448 29.375 10.143 29.375 12.5V37.5C29.375 39.857 29.375 41.0355 28.6427 41.7677C27.9105 42.5 26.732 42.5 24.375 42.5C22.018 42.5 20.8395 42.5 20.1073 41.7677C19.375 41.0355 19.375 39.857 19.375 37.5V12.5Z" fill="#194BED"/>
<path d="M1.875 48.125C0.839475 48.125 0 48.9645 0 50C0 51.0355 0.839475 51.875 1.875 51.875H46.875C47.9105 51.875 48.75 51.0355 48.75 50C48.75 48.9645 47.9105 48.125 46.875 48.125H1.875Z" fill="#194BED"/>
</svg>
