<svg width="48" height="49" viewBox="0 0 48 49" fill="none" xmlns="http://www.w3.org/2000/svg">
<path d="M1.5 18.5H46.5V46C46.5 46.663 46.2366 47.2989 45.7678 47.7678C45.2989 48.2366 44.663 48.5 44 48.5H4C3.33696 48.5 2.70107 48.2366 2.23223 47.7678C1.76339 47.2989 1.5 46.663 1.5 46V18.5Z" fill="white"/>
<path d="M1.5 16.5V44C1.5 44.663 1.76339 45.2989 2.23223 45.7678C2.70107 46.2366 3.33696 46.5 4 46.5H44C44.663 46.5 45.2989 46.2366 45.7678 45.7678C46.2366 45.2989 46.5 44.663 46.5 44V16.5M1.5 16.5H46.5M1.5 16.5V6.5C1.5 5.83696 1.76339 5.20107 2.23223 4.73223C2.70107 4.26339 3.33696 4 4 4H44C44.663 4 45.2989 4.26339 45.7678 4.73223C46.2366 5.20107 46.5 5.83696 46.5 6.5V16.5M34 1.5V9M14 1.5V9M19 31.5H29" stroke="#194BED" stroke-width="3" stroke-linecap="round" stroke-linejoin="round"/>
<rect x="12" y="24" width="24" height="3" rx="1.5" fill="#FF8D67"/>
<rect x="17" y="36" width="14" height="2" rx="1" fill="#91ABFF"/>
</svg>
