<svg width="54" height="52" viewBox="0 0 54 52" fill="none" xmlns="http://www.w3.org/2000/svg">
<path d="M8.62054 11.3583H40.6588C41.6455 11.3583 42.4454 10.5584 42.4454 9.57171C42.4454 8.58507 41.6455 7.78516 40.6588 7.78516H8.62054C7.6339 7.78516 6.83398 8.58507 6.83398 9.57171C6.83398 10.5584 7.6339 11.3583 8.62054 11.3583Z" fill="#FF8D67"/>
<path d="M8.62054 18.9813H40.6588C41.6455 18.9813 42.4454 18.1814 42.4454 17.1948C42.4454 16.2081 41.6455 15.4082 40.6588 15.4082H8.62054C7.6339 15.4082 6.83398 16.2081 6.83398 17.1948C6.83398 18.1814 7.6339 18.9813 8.62054 18.9813Z" fill="#FF8D67"/>
<path d="M25.6179 23.0312H8.62054C7.6339 23.0312 6.83398 23.8312 6.83398 24.8178C6.83398 25.8045 7.6339 26.6044 8.62054 26.6044H25.6179C26.6046 26.6044 27.4045 25.8045 27.4045 24.8178C27.4045 23.8312 26.6046 23.0312 25.6179 23.0312Z" fill="#FF8D67"/>
<path d="M53.9002 50.1928L49.2293 40.9447L51.0367 40.2234C51.5113 40.0339 51.9096 39.486 51.9434 38.976L52.0973 36.6571C52.1231 36.2686 52.32 35.6625 52.5274 35.3334L53.7655 33.3669C54.0379 32.9345 54.0379 32.2571 53.7657 31.8246L52.5274 29.8581C52.3203 29.529 52.1233 28.9227 52.0975 28.5344L51.9437 26.2155C51.9146 25.7789 51.618 25.3153 51.2358 25.0718V3.57311C51.2358 1.60283 49.633 0 47.6628 0H3.57299C1.60283 0 0 1.60283 0 3.57311V34.1795C0 36.1498 1.60283 37.7525 3.57299 37.7525H31.6765L31.7576 38.9761C31.7916 39.4861 32.1897 40.0339 32.6644 40.2234L34.3613 40.9006L29.668 50.1928C29.5236 50.4789 29.5623 50.6512 29.6203 50.7454C29.657 50.8051 29.7469 50.9051 29.9363 50.9051C30.0309 50.9051 30.14 50.8795 30.2605 50.8292L34.105 49.2196C34.1996 49.18 34.312 49.1591 34.4303 49.1591C34.7127 49.1591 35.0005 49.2759 35.1634 49.4564L37.0102 51.504C37.1642 51.6747 37.3548 51.7687 37.5466 51.7687C37.7999 51.7687 38.0271 51.605 38.1541 51.3311L41.7723 43.5261C41.7801 43.526 41.7879 43.526 41.7958 43.5259L45.4141 51.3311C45.5411 51.6052 45.7682 51.7687 46.0217 51.7687C46.2134 51.7687 46.404 51.6747 46.5579 51.5038L48.4046 49.4565C48.5677 49.2759 48.8555 49.1591 49.1378 49.1591C49.2559 49.1591 49.3685 49.18 49.463 49.2196L53.3075 50.8292C53.428 50.8795 53.5371 50.9051 53.6318 50.9051C53.8213 50.9051 53.9111 50.805 53.9478 50.7454C54.0059 50.6512 54.0446 50.4789 53.9002 50.1928ZM3.57299 3.57311H47.6626L47.6628 23.1808L46.2661 21.5004C46.0112 21.1937 45.5443 20.9877 45.1045 20.9877C44.9975 20.9877 44.895 21 44.7998 21.0241L42.5457 21.5979C42.1867 21.6892 41.5143 21.6892 41.1551 21.5979L38.9012 21.0241C38.8061 21 38.7036 20.9877 38.5965 20.9877C38.1567 20.9877 37.6899 21.1937 37.4349 21.5004L35.9488 23.2885C35.7003 23.5877 35.185 23.9622 34.8238 24.1063L32.6646 24.9682C32.1898 25.1577 31.7916 25.7055 31.7578 26.2155L31.6038 28.5344C31.5782 28.9229 31.3813 29.529 31.1739 29.8581L29.9358 31.8246C29.6634 32.257 29.6634 32.9345 29.9358 33.3669L30.4474 34.1794H3.57299V3.57311ZM41.8504 40.1918C37.6552 40.1918 34.2543 36.7911 34.2543 32.5958C34.2543 28.4004 37.6552 24.9997 41.8504 24.9997C46.0457 24.9997 49.4468 28.4004 49.4468 32.5958C49.4469 36.7911 46.0457 40.1918 41.8504 40.1918Z" fill="#194BED"/>
</svg>
