<svg width="47" height="47" viewBox="0 0 47 47" fill="none" xmlns="http://www.w3.org/2000/svg">
<path d="M16.75 16.75H29.5" stroke="#FF8D67" stroke-width="3.75" stroke-linecap="round"/>
<path d="M23.125 29.5V16.75" stroke="#FF8D67" stroke-width="3.75" stroke-linecap="round"/>
<path d="M10.375 40.125C10.375 42.4723 8.47221 44.375 6.125 44.375C3.77779 44.375 1.875 42.4723 1.875 40.125C1.875 37.7777 3.77779 35.875 6.125 35.875C8.47221 35.875 10.375 37.7777 10.375 40.125Z" stroke="#194BED" stroke-width="3.75"/>
<path d="M44.375 40.125C44.375 42.4723 42.4723 44.375 40.125 44.375C37.7777 44.375 35.875 42.4723 35.875 40.125C35.875 37.7777 37.7777 35.875 40.125 35.875C42.4723 35.875 44.375 37.7777 44.375 40.125Z" stroke="#194BED" stroke-width="3.75"/>
<path d="M35.875 6.125H10.375" stroke="#849FF6" stroke-width="3.75" stroke-linecap="round"/>
<path d="M40.125 35.875V23.125M40.125 10.375V14.625" stroke="#194BED" stroke-width="3.75" stroke-linecap="round"/>
<path d="M35.875 40.125H23.125M10.375 40.125H14.625" stroke="#194BED" stroke-width="3.75" stroke-linecap="round"/>
<path d="M6.125 10.375V35.875" stroke="#194BED" stroke-width="3.75" stroke-linecap="round"/>
<path d="M10.375 6.125C10.375 8.47221 8.47221 10.375 6.125 10.375C3.77779 10.375 1.875 8.47221 1.875 6.125C1.875 3.77779 3.77779 1.875 6.125 1.875C8.47221 1.875 10.375 3.77779 10.375 6.125Z" stroke="#849FF6" stroke-width="3.75"/>
<path d="M44.375 6.125C44.375 8.47221 42.4723 10.375 40.125 10.375C37.7777 10.375 35.875 8.47221 35.875 6.125C35.875 3.77779 37.7777 1.875 40.125 1.875C42.4723 1.875 44.375 3.77779 44.375 6.125Z" stroke="#849FF6" stroke-width="3.75"/>
</svg>
