<svg width="53" height="53" viewBox="0 0 53 53" fill="none" xmlns="http://www.w3.org/2000/svg">
<path d="M1.5 51H51M1.5 42.75H51M9.26416 1.50102C10.4053 2.50878 11.125 3.98284 11.125 5.625C11.125 8.66257 8.66257 11.125 5.625 11.125C3.98284 11.125 2.50878 10.4053 1.50102 9.26416M9.26416 1.50102C9.58896 1.5 9.93359 1.5 10.3 1.5H42.2C42.5663 1.5 42.9111 1.5 43.2359 1.50102M9.26416 1.50102C6.85843 1.50847 5.53961 1.57131 4.50305 2.09947C3.46815 2.62676 2.62676 3.46815 2.09947 4.50306C1.57131 5.53961 1.50847 6.85843 1.50102 9.26416M1.50102 9.26416C1.5 9.58896 1.5 9.93359 1.5 10.3V25.7C1.5 26.0663 1.5 26.4111 1.50102 26.7359M43.2359 1.50102C42.0947 2.50878 41.375 3.98284 41.375 5.625C41.375 8.66257 43.8373 11.125 46.875 11.125C48.517 11.125 49.9913 10.4053 50.9989 9.26416M43.2359 1.50102C45.6416 1.50847 46.9605 1.57131 47.997 2.09947C49.0318 2.62676 49.8733 3.46815 50.4005 4.50306C50.9288 5.53961 50.9915 6.85843 50.9989 9.26416M1.50102 26.7359C2.50878 25.5947 3.98284 24.875 5.625 24.875C8.66257 24.875 11.125 27.3374 11.125 30.375C11.125 32.017 10.4053 33.4913 9.26416 34.4989M1.50102 26.7359C1.50847 29.1416 1.57131 30.4602 2.09947 31.497C2.62676 32.5318 3.46815 33.3733 4.50305 33.9005C5.53961 34.4288 6.85843 34.4915 9.26416 34.4989M9.26416 34.4989C9.58896 34.5 9.93359 34.5 10.3 34.5H42.2C42.5663 34.5 42.9111 34.5 43.2359 34.4989M43.2359 34.4989C42.0947 33.4913 41.375 32.017 41.375 30.375C41.375 27.3374 43.8373 24.875 46.875 24.875C48.5176 24.875 49.9921 25.5952 51 26.737M43.2359 34.4989C45.6416 34.4915 46.9605 34.4288 47.997 33.9005C49.0318 33.3733 49.8733 32.5318 50.4005 31.497C50.9285 30.4605 50.9926 29.1419 51 26.737M51 26.737C51.0011 26.412 51 26.0669 51 25.7V10.3C51 9.93359 51 9.58896 50.9989 9.26416M31.75 18C31.75 21.0376 29.2876 23.5 26.25 23.5C23.2123 23.5 20.75 21.0376 20.75 18C20.75 14.9624 23.2123 12.5 26.25 12.5C29.2876 12.5 31.75 14.9624 31.75 18Z" stroke="#194BED" stroke-width="3" stroke-linecap="round" stroke-linejoin="round"/>
<circle cx="26.25" cy="18.25" r="7" fill="white" stroke="#FF8D67" stroke-width="2"/>
</svg>
