<svg width="48" height="48" viewBox="0 0 48 48" fill="none" xmlns="http://www.w3.org/2000/svg">
<path d="M23.9907 0.799805C11.1836 0.799805 0.799805 11.1818 0.799805 23.9907C0.799805 36.7997 11.1836 47.1799 23.9907 47.1817C36.7997 47.1799 47.1817 36.7979 47.1817 23.9907C47.1817 11.1836 36.7979 0.799805 23.9907 0.799805ZM23.9889 34.6192C18.1291 34.6192 13.3622 29.8506 13.3622 23.9907C13.3622 18.1309 18.1309 13.3622 23.9907 13.3622C29.8506 13.3622 34.6192 18.1309 34.6192 23.9907C34.6192 29.8506 29.8506 34.6192 23.9889 34.6192ZM35.5817 19.1459L42.8824 14.2649C44.3904 17.1812 45.2477 20.4872 45.2477 23.9907C45.2477 27.4508 44.4122 30.7151 42.9404 33.6061L35.627 28.7141C36.2197 27.2551 36.5532 25.6637 36.5532 23.9907C36.5532 22.2725 36.2052 20.6376 35.5817 19.1459ZM41.9164 12.5865L34.6845 17.4222C33.6332 15.7149 32.1887 14.2812 30.4704 13.2444L35.308 6.01074C37.9651 7.68912 40.2235 9.93843 41.9146 12.5883L41.9164 12.5865ZM33.626 5.05012L28.7359 12.3617C27.2714 11.7636 25.6727 11.4283 23.9926 11.4283C22.3124 11.4283 20.7119 11.7636 19.2474 12.3617L14.3573 5.05012C17.2519 3.57112 20.5234 2.73193 23.9907 2.73193C27.4581 2.73193 30.7314 3.57112 33.626 5.05012ZM12.6735 6.00712L17.5129 13.2426C15.791 14.283 14.3446 15.7203 13.2916 17.4313L6.05787 12.5937C7.75074 9.94024 10.0127 7.6873 12.6735 6.00712ZM5.09362 14.2739L12.3962 19.1568C11.7745 20.6467 11.4301 22.2779 11.4301 23.9907C11.4301 25.6582 11.7618 27.2478 12.3527 28.7014L5.03743 33.5952C3.56931 30.7079 2.73555 27.4454 2.73555 23.9907C2.73555 20.4908 3.59106 17.1884 5.09724 14.2739H5.09362ZM5.9908 35.2808L13.2263 30.4432C14.2703 32.1814 15.7221 33.6441 17.4512 34.7026L12.6137 41.9345C9.94387 40.2362 7.67643 37.9597 5.9908 35.2808ZM14.2939 42.8987L19.1786 35.5944C20.6612 36.2106 22.2834 36.5532 23.9889 36.5532H23.9907C25.6963 36.5532 27.3221 36.2106 28.8047 35.5944L33.6894 42.8987C30.7786 44.3977 27.4834 45.2496 23.9907 45.2496C20.4981 45.2496 17.2029 44.3977 14.2939 42.8987ZM35.3696 41.9327L30.5321 34.699C32.2576 33.6423 33.7057 32.1851 34.7497 30.4505L41.9852 35.2899C40.2996 37.9633 38.0358 40.2362 35.3696 41.9327Z" fill="#29266E"/>
<path d="M28.5673 23.9636C28.5673 26.5061 26.5061 28.5673 23.9636 28.5673C21.421 28.5673 19.3598 26.5061 19.3598 23.9636C19.3598 21.421 21.421 19.3598 23.9636 19.3598C26.5061 19.3598 28.5673 21.421 28.5673 23.9636Z" fill="#FF8D67"/>
</svg>
