<svg width="53" height="53" viewBox="0 0 53 53" fill="none" xmlns="http://www.w3.org/2000/svg">
<path fill-rule="evenodd" clip-rule="evenodd" d="M50.2144 4.47563H31.2206V0L0 4.81875V47.0569L31.2206 52.4344V45.8006H50.2144C50.7896 45.8298 51.353 45.6299 51.7813 45.2448C52.2096 44.8597 52.468 44.3207 52.5 43.7456V6.52875C52.4675 5.95399 52.2089 5.41544 51.7807 5.03074C51.3524 4.64604 50.7893 4.44647 50.2144 4.47563ZM50.5144 44.0869H31.1569L31.125 40.545H35.7881V36.42H31.0894L31.0669 33.9825H35.7881V29.8575H31.0312L31.0088 27.42H35.7881V23.295H30.9938V20.8575H35.7881V16.7325H30.9938V14.295H35.7881V10.17H30.9938V6.42H50.5144V44.0869Z" fill="#194BED"/>
<path d="M46.5187 10.1641H38.4131V14.2891H46.5187V10.1641Z" fill="#FF8D67"/>
<path d="M46.5187 16.7285H38.4131V20.8535H46.5187V16.7285Z" fill="#91ABFF"/>
<path d="M46.5187 23.293H38.4131V27.418H46.5187V23.293Z" fill="#FF8D67"/>
<path d="M46.5187 29.8574H38.4131V33.9824H46.5187V29.8574Z" fill="#91ABFF"/>
<path d="M46.5187 36.4219H38.4131V40.5469H46.5187V36.4219Z" fill="#FF8D67"/>
<path fill-rule="evenodd" clip-rule="evenodd" d="M8.15066 16.2286L12.1744 15.998L14.7038 22.9523L17.6925 15.7111L21.7163 15.4805L16.83 25.3542L21.7163 35.2523L17.4619 34.9655L14.5894 27.4205L11.715 34.6786L7.80566 34.3336L12.3469 25.5905L8.15066 16.2286Z" fill="white"/>
</svg>
