<svg width="50" height="45" viewBox="0 0 50 45" fill="none" xmlns="http://www.w3.org/2000/svg">
<path d="M5.97738 6.76481H7.42594V3.55112C7.42594 3.1026 7.78402 2.74049 8.22754 2.74049H9.65169V0.810625C9.65169 0.362107 10.0098 0 10.4533 0H23.4416C23.8851 0 24.2432 0.362107 24.2432 0.810625V2.74049H41.7603C42.2038 2.74049 42.5619 3.1026 42.5619 3.55112V6.76893H44.0226C44.4661 6.76893 44.8242 7.13103 44.8242 7.57955C44.8242 7.63716 44.8202 7.69477 44.8079 7.75238L42.0085 28.5694C41.9189 29.2484 41.6219 29.8779 41.1743 30.3347C40.7267 30.7873 40.1408 31.0671 39.445 31.0671H28.8696V33.4784H29.7323C30.3589 33.4784 30.8716 33.9969 30.8716 34.6306V36.7127H35.1196C35.6283 36.7127 36.0636 37.0542 36.2061 37.5233H46.8262C48.3439 37.5233 49.3245 38.3751 49.7559 39.4614C49.9186 39.8729 50 40.3173 50 40.7535C50 41.1896 49.9186 41.6341 49.7559 42.0455C49.3245 43.1319 48.3439 43.9836 46.8262 43.9836H36.2508C36.1898 44.5597 35.7015 45.0082 35.1196 45.0082H29.5532H15.7878C15.2018 45.0082 14.7176 44.5556 14.6566 43.9836H3.17383C1.65609 43.9836 0.675456 43.1319 0.244141 42.0455C0.0813802 41.6341 0 41.1896 0 40.7535C0 40.3173 0.0813802 39.8729 0.244141 39.4614C0.675456 38.3751 1.65609 37.5233 3.17383 37.5233H14.6973C14.8438 37.0542 15.2751 36.7127 15.7837 36.7127H19.34V34.6306C19.34 33.9969 19.8527 33.4784 20.4793 33.4784H21.167V31.0671H9.92025C9.22445 31.0671 8.62223 30.7832 8.17057 30.3306C7.71891 29.8738 7.42594 29.236 7.3527 28.5488L5.18392 7.67008C5.13916 7.22568 5.45654 6.83065 5.896 6.78539C5.92448 6.76893 5.95296 6.76893 5.97738 6.76481ZM12.7686 14.1674H19.397V16.052H15.4622V17.5828H18.8232V19.3521H15.4622V22.9362H12.7726V14.1674H12.7686ZM20.3776 14.1674H28.5238V16.336H25.7894V22.9403H23.1079V16.336H20.3776V14.1674ZM29.8706 14.1674H34.3262C35.2946 14.1674 36.023 14.402 36.5031 14.867C36.9873 15.336 37.2274 15.9985 37.2274 16.8585C37.2274 17.7432 36.9629 18.4386 36.438 18.9365C35.909 19.4344 35.1074 19.6854 34.0251 19.6854H32.5602V22.9403H29.8706V14.1674ZM32.5643 17.9078H33.2194C33.7362 17.9078 34.0983 17.8173 34.3099 17.6362C34.5174 17.4552 34.6232 17.2248 34.6232 16.9408C34.6232 16.6651 34.5337 16.4306 34.3506 16.2413C34.1715 16.0479 33.8298 15.9533 33.3293 15.9533H32.5643V17.9078ZM22.9411 33.4702H27.0955V31.0877H22.9411V33.4702ZM36.259 39.0417V42.4447H46.8262C47.6278 42.4447 48.1364 42.0167 48.3561 41.4695C48.4456 41.2473 48.4904 40.9962 48.4904 40.7452C48.4904 40.4942 48.4456 40.2432 48.3561 40.021C48.1364 39.4738 47.6278 39.0458 46.8262 39.0458H36.259V39.0417ZM14.6484 42.4447V39.0417H3.17383C2.37223 39.0417 1.86361 39.4696 1.64388 40.0169C1.55436 40.2391 1.5096 40.4901 1.5096 40.7411C1.5096 40.9921 1.55436 41.2431 1.64388 41.4653C1.86361 42.0126 2.37223 42.4406 3.17383 42.4406H14.6484V42.4447ZM8.23161 8.38606H6.86849L8.94369 28.3719C8.97624 28.6928 9.10238 28.9768 9.29769 29.1743C9.46045 29.3389 9.67204 29.4376 9.92025 29.4376H39.4369C39.6769 29.4376 39.8844 29.3389 40.0391 29.1825C40.2384 28.9809 40.3727 28.6805 40.4175 28.3472L43.103 8.38606H8.23161ZM9.02913 4.36174V6.7607L40.9546 6.41917V4.36174H23.4416C22.998 4.36174 22.64 3.99963 22.64 3.55112V1.62125H11.2549V3.55112C11.2549 3.99963 10.8968 4.36174 10.4533 4.36174H9.02913Z" fill="#194BED"/>
<rect x="11" y="11" width="29" height="14" fill="#EEF5FF"/>
<path d="M14.7585 24V15.2727H20.5369V16.794H16.6037V18.8736H20.1534V20.3949H16.6037V24H14.7585ZM21.5657 16.794V15.2727H28.7333V16.794H26.0614V24H24.2375V16.794H21.5657ZM30.0337 24V15.2727H33.4769C34.1388 15.2727 34.7027 15.3991 35.1686 15.652C35.6345 15.902 35.9896 16.25 36.234 16.696C36.4811 17.1392 36.6047 17.6506 36.6047 18.2301C36.6047 18.8097 36.4797 19.321 36.2297 19.7642C35.9797 20.2074 35.6175 20.5526 35.1431 20.7997C34.6715 21.0469 34.1004 21.1705 33.43 21.1705H31.2354V19.6918H33.1317C33.4868 19.6918 33.7794 19.6307 34.0095 19.5085C34.2425 19.3835 34.4158 19.2116 34.5294 18.9929C34.6459 18.7713 34.7041 18.517 34.7041 18.2301C34.7041 17.9403 34.6459 17.6875 34.5294 17.4716C34.4158 17.2528 34.2425 17.0838 34.0095 16.9645C33.7766 16.8423 33.4811 16.7812 33.1232 16.7812H31.8788V24H30.0337Z" fill="#FF8D67"/>
</svg>
