<svg width="60" height="60" viewBox="0 0 60 60" fill="none" xmlns="http://www.w3.org/2000/svg">
<path d="M59.1308 24.2879L53.7799 23.7918C53.2083 21.6035 52.3363 19.51 51.1806 17.5518L54.6141 13.417C54.93 13.0366 54.9041 12.4781 54.5544 12.1284L47.8479 5.4219C47.4981 5.07222 46.9398 5.04632 46.5592 5.36225L42.4175 8.80123C40.4582 7.6487 38.3636 6.77987 36.1738 6.21139L35.6785 0.868944C35.6329 0.376523 35.2198 0 34.7253 0H25.241C24.7464 0 24.3334 0.37664 24.2876 0.869061L23.7916 6.21995C21.6029 6.79159 19.5097 7.6637 17.5516 8.81916L13.4169 5.38593C13.0365 5.06999 12.4781 5.09577 12.1283 5.44558L5.42179 12.1519C5.0721 12.5015 5.0462 13.0601 5.36214 13.4404L8.80123 17.5822C7.6487 19.5413 6.77987 21.6359 6.21128 23.8258L0.868826 24.321C0.37664 24.3667 0 24.7798 0 25.2745V34.7256C0 35.2202 0.37664 35.6332 0.869061 35.679L6.21151 36.1742C6.7801 38.3642 7.64893 40.4587 8.80147 42.4179L5.36237 46.5597C5.04644 46.9401 5.07233 47.4986 5.42202 47.8483L12.1285 54.5548C12.4783 54.9046 13.0368 54.9305 13.4171 54.6144L17.552 51.1811C19.5102 52.3368 21.6032 53.2086 23.7919 53.7802L24.288 59.1311C24.3336 59.6235 24.7468 60.0001 25.2413 60.0001H34.7256C35.2202 60.0001 35.6332 59.6235 35.679 59.1311L36.1743 53.7886C38.3641 53.2201 40.4587 52.3513 42.4179 51.1986L46.5597 54.6376C46.9402 54.9538 47.4985 54.9275 47.8484 54.578L54.5549 47.8715C54.9046 47.5218 54.9304 46.9633 54.6145 46.5829L51.1811 42.448C52.3367 40.4901 53.2086 38.3968 53.7802 36.2081L59.1311 35.712C59.6235 35.6664 60.0001 35.2532 60.0001 34.7587V25.2411C59.9999 24.7467 59.6232 24.3335 59.1308 24.2879ZM58.085 33.886L52.9248 34.3643C52.5136 34.4024 52.1732 34.6999 52.0804 35.1023C51.5145 37.5524 50.5444 39.8814 49.197 42.0243C48.9767 42.3747 49.0065 42.8271 49.2709 43.1455L52.5836 47.1349L47.1115 52.607L43.116 49.2896C42.798 49.0255 42.3463 48.9952 41.9961 49.2149C39.8516 50.5587 37.5214 51.5251 35.0699 52.0876C34.6669 52.1801 34.3688 52.5208 34.3307 52.9324L33.8531 58.0852H26.114L25.6357 52.9249C25.5976 52.5137 25.3001 52.1734 24.8977 52.0805C22.4477 51.5146 20.1188 50.5445 17.9757 49.1972C17.6254 48.977 17.173 49.0068 16.8545 49.2713L12.8651 52.5838L7.39299 47.1117L10.7106 43.1164C10.9747 42.7982 11.0048 42.3466 10.7852 41.9963C9.44154 39.8521 8.47498 37.5217 7.91248 35.07C7.82002 34.667 7.47936 34.3689 7.06768 34.3308L1.91484 33.8532V26.1476L7.06768 25.6701C7.47936 25.6319 7.82014 25.3339 7.91248 24.9308C8.47498 22.4791 9.44154 20.1488 10.7852 18.0047C11.0048 17.6544 10.9747 17.2027 10.7106 16.8846L7.39299 12.8892L12.8651 7.41713L16.8545 10.7297C17.173 10.9942 17.6253 11.024 17.9757 10.8036C20.1186 9.45631 22.4475 8.48623 24.8977 7.92034C25.3 7.82741 25.5974 7.48698 25.6357 7.07588L26.114 1.91554H33.8527L34.3304 7.06838C34.3686 7.48006 34.6666 7.82084 35.0696 7.91319C37.521 8.47557 39.8513 9.44213 41.9957 10.7859C42.346 11.0054 42.7977 10.9754 43.1157 10.7113L47.1112 7.39381L52.5832 12.8659L49.2706 16.8553C49.0062 17.1737 48.9763 17.6261 49.1966 17.9765C50.5442 20.1198 51.5141 22.4487 52.08 24.8985C52.1729 25.301 52.5134 25.5984 52.9245 25.6365L58.0847 26.1147V33.886H58.085Z" fill="#194BED"/>
<path d="M30 9.25586C18.5613 9.25586 9.25537 18.5618 9.25537 30.0005C9.25537 34.7939 10.9358 39.4729 13.9872 43.1752C14.3234 43.5833 14.9269 43.6415 15.335 43.3052C15.7431 42.969 15.8012 42.3655 15.465 41.9574C12.6954 38.5971 11.1703 34.3507 11.1703 30.0005C11.1702 19.6178 19.6172 11.1708 30 11.1708C40.3828 11.1708 48.8297 19.6178 48.8297 30.0006C48.8297 40.3834 40.3828 48.8302 30 48.8302C25.6496 48.8302 21.4032 47.305 18.043 44.5356C17.6348 44.1992 17.0316 44.2575 16.6952 44.6655C16.359 45.0736 16.417 45.677 16.8252 46.0133C20.5275 49.0646 25.2064 50.7451 30 50.7451C41.4386 50.7451 50.7446 41.4391 50.7446 30.0005C50.7446 18.5618 41.4386 9.25586 30 9.25586Z" fill="#194BED"/>
<path d="M29.9998 13.0859C20.6728 13.0859 13.085 20.674 13.085 30.0009C13.085 39.3277 20.6728 46.9158 29.9998 46.9158C39.3267 46.9158 46.9146 39.3278 46.9146 30.001C46.9146 20.6739 39.3267 13.0859 29.9998 13.0859ZM43.9406 24.4646L37.8458 26.4449C36.9827 24.5481 35.4526 23.018 33.5558 22.1549L35.5362 16.0602C39.3612 17.5845 42.4161 20.6396 43.9406 24.4646ZM36.7018 30.0011C36.7018 33.6967 33.6952 36.7032 29.9998 36.7032C26.3042 36.7032 23.2977 33.6966 23.2977 30.0011C23.2977 26.3054 26.3043 23.2988 29.9998 23.2988C33.6953 23.2988 36.7018 26.3055 36.7018 30.0011ZM29.9998 15.0008C31.2819 15.0009 32.5268 15.1628 33.7154 15.4668L31.7358 21.5595C31.1748 21.4443 30.5943 21.3837 29.9998 21.3837C29.4053 21.3837 28.8246 21.4442 28.2638 21.5595L26.2841 15.4668C27.4727 15.1628 28.7176 15.0008 29.9998 15.0008ZM24.4635 16.0602L26.4438 22.1549C24.547 23.018 23.017 24.5481 22.154 26.4449L16.0592 24.4646C17.5833 20.6396 20.6384 17.5845 24.4635 16.0602ZM14.9998 30.001C14.9998 28.719 15.1618 27.474 15.4659 26.2853L21.5585 28.265C21.4433 28.8259 21.3828 29.4065 21.3828 30.001C21.3828 30.5955 21.4432 31.1761 21.5585 31.737L15.4659 33.7166C15.1618 32.5279 14.9998 31.2831 14.9998 30.001ZM16.0589 35.5374L22.1537 33.557C23.0168 35.4538 24.5468 36.9838 26.4436 37.8469L24.4633 43.9417C20.6384 42.4173 17.5835 39.3624 16.0589 35.5374ZM29.9998 45.0011C28.7177 45.001 27.4727 44.8391 26.2841 44.535L28.2638 38.4423C28.8247 38.5575 29.4053 38.6181 29.9998 38.6181C30.5943 38.6181 31.1749 38.5576 31.7358 38.4423L33.7154 44.535C32.5268 44.839 31.2818 45.0011 29.9998 45.0011ZM35.5361 43.9418L33.5557 37.847C35.4525 36.9839 36.9826 35.4538 37.8457 33.557L43.9405 35.5374C42.416 39.3624 39.3612 42.4173 35.5361 43.9418ZM38.441 31.737C38.5562 31.176 38.6168 30.5955 38.6168 30.001C38.6168 29.4065 38.5563 28.8258 38.441 28.265L44.5337 26.2853C44.8378 27.4741 44.9997 28.719 44.9997 30.001C44.9997 31.283 44.8378 32.528 44.5337 33.7166L38.441 31.737Z" fill="#FF8D67"/>
</svg>
