<svg width="64" height="46" viewBox="0 0 64 46" fill="none" xmlns="http://www.w3.org/2000/svg">
<path d="M49.1923 8.88867C48.5045 8.88867 47.8325 9.01992 47.192 9.28067C44.4743 10.3797 43.1618 13.4877 44.2625 16.2159C45.0833 18.2319 47.0205 19.5339 49.201 19.5339C49.8835 19.5339 50.5503 19.4044 51.1838 19.1472C52.5068 18.6117 53.5393 17.5967 54.0923 16.2859C54.6488 14.9752 54.6628 13.5332 54.129 12.2154C53.3135 10.1942 51.3693 8.88867 49.1923 8.88867ZM51.7193 15.2762C51.4305 15.9517 50.8968 16.4767 50.2178 16.7532C49.8905 16.8827 49.5475 16.9509 49.2028 16.9509C48.0758 16.9509 47.0765 16.2807 46.6583 15.2412C46.0895 13.8394 46.7668 12.2364 48.1633 11.6712C48.4923 11.5382 48.8405 11.4699 49.1923 11.4699C50.3158 11.4699 51.3168 12.1437 51.7403 13.1814C52.0115 13.8587 52.0045 14.6024 51.7193 15.2762Z" fill="#FF8D67"/>
<path d="M17.7507 21C13.479 21 10 24.4755 10 28.7525C10 33.019 13.4772 36.491 17.7507 36.491C22.0207 36.491 25.4963 33.019 25.4963 28.7525C25.4963 24.4773 22.0207 21 17.7507 21ZM17.7507 33.9098C14.9017 33.9098 12.5812 31.5963 12.5812 28.7525C12.5812 25.9018 14.9017 23.583 17.7507 23.583C20.5997 23.583 22.915 25.9018 22.915 28.7525C22.915 31.5963 20.5997 33.9098 17.7507 33.9098Z" fill="#FF8D67"/>
<path d="M33.4482 25.2082L30.2754 24.048C30.0899 23.5002 29.8677 22.9665 29.6122 22.445L31.0314 19.3755C31.3692 18.6492 31.2537 17.7847 30.7374 17.1792C30.1162 16.4407 29.4214 15.7477 28.6777 15.1195C28.3067 14.8062 27.8342 14.6312 27.3442 14.6312C27.0519 14.6312 26.7684 14.6925 26.5007 14.8097C26.4954 14.8132 26.4884 14.8168 26.4814 14.8203L23.4119 16.243C22.8974 15.991 22.3619 15.7687 21.8142 15.585L20.6417 12.3982C20.3652 11.6545 19.6739 11.1312 18.8829 11.063C17.9222 10.979 16.9299 10.979 15.9709 11.063C15.1782 11.1312 14.4869 11.6545 14.2069 12.4052L13.0432 15.578C12.4989 15.7652 11.9634 15.9875 11.4419 16.243L8.36719 14.8203C8.36194 14.8168 8.35669 14.8132 8.35144 14.8097C8.08194 14.6942 7.79844 14.6312 7.50619 14.6312C7.01444 14.6312 6.54019 14.808 6.17094 15.1212C5.42544 15.753 4.73419 16.446 4.11819 17.1723C3.60019 17.7778 3.48294 18.6387 3.81719 19.372L5.23994 22.4415C4.98794 22.956 4.76569 23.4915 4.58019 24.041L1.40219 25.2082C0.653188 25.483 0.126438 26.176 0.0564375 26.9793C-0.0188125 27.9418 -0.0188125 28.9147 0.0564375 29.8807C0.124688 30.677 0.651438 31.37 1.40044 31.643L4.57669 32.812C4.76219 33.358 4.98444 33.8917 5.23994 34.4097L3.81544 37.495C3.48644 38.2107 3.60194 39.0647 4.11119 39.6807C4.73244 40.4175 5.42894 41.1123 6.17619 41.7458C6.18144 41.7493 6.18494 41.7528 6.18844 41.7563C6.55944 42.0625 7.02669 42.227 7.50619 42.227C7.80719 42.227 8.10819 42.1605 8.37069 42.0363L11.4332 40.6135C11.9477 40.869 12.4849 41.0895 13.0379 41.2785L14.2069 44.4548C14.4869 45.2125 15.1817 45.7357 15.9779 45.7935C16.4662 45.8337 16.9544 45.8565 17.4252 45.8565C17.8977 45.8565 18.3842 45.8337 18.8742 45.7935C19.6704 45.7375 20.3652 45.2125 20.6434 44.4513L21.8089 41.2838C22.3514 41.0965 22.8869 40.8707 23.4084 40.6187L26.4972 42.0468C26.7632 42.164 27.0467 42.2252 27.3407 42.2252C27.8167 42.2252 28.2857 42.0608 28.6549 41.758C28.6619 41.7545 28.6689 41.7475 28.6759 41.7405C29.4179 41.1122 30.1109 40.4192 30.7304 39.6895C31.2537 39.084 31.3727 38.216 31.0314 37.4897L29.6122 34.415C29.8659 33.8935 30.0864 33.358 30.2719 32.8102L33.4482 31.6447C34.1989 31.3682 34.7239 30.6753 34.7939 29.879C34.8709 28.9165 34.8709 27.94 34.7922 26.967C34.7257 26.176 34.1954 25.4847 33.4482 25.2082ZM32.2442 29.3365L28.7844 30.6123C28.3977 30.7558 28.1002 31.0725 27.9882 31.468C27.7607 32.2625 27.4422 33.036 27.0432 33.7622C26.8437 34.121 26.8297 34.555 27.0029 34.9295L28.5482 38.2703C28.1457 38.7235 27.7117 39.154 27.2584 39.5565L23.9159 38.006C23.5449 37.8345 23.1109 37.852 22.7504 38.0462C22.0154 38.4522 21.2419 38.7725 20.4562 39.0053C20.0607 39.1155 19.7439 39.4113 19.6022 39.798L18.3387 43.2437C17.7192 43.284 17.1329 43.284 16.5152 43.2437L15.2429 39.791C15.0994 39.4042 14.7827 39.1085 14.3889 38.9947C13.5769 38.762 12.8052 38.44 12.0982 38.0462C11.7359 37.845 11.3019 37.8275 10.9274 38.0025L7.58844 39.5495C7.12994 39.147 6.69944 38.7112 6.30219 38.2667L7.84744 34.919C8.02069 34.5445 8.00319 34.1122 7.80369 33.7517C7.40119 33.022 7.08094 32.2537 6.85519 31.4627C6.74144 31.0672 6.44569 30.7452 6.05719 30.6052L2.60619 29.3365C2.57119 28.731 2.57119 28.1202 2.60619 27.5182L6.06419 26.246C6.44919 26.106 6.74319 25.7858 6.86044 25.3938C7.09319 24.5835 7.41169 23.8135 7.80719 23.0995C8.00669 22.7372 8.02419 22.3032 7.85094 21.9305L6.30569 18.595C6.70469 18.1452 7.13694 17.7148 7.59544 17.3053L10.9379 18.8522C11.3107 19.0272 11.7447 19.0098 12.1052 18.812C12.8367 18.406 13.6067 18.0857 14.3924 17.8617C14.7897 17.748 15.1082 17.4522 15.2499 17.0637L16.5152 13.611C17.1207 13.5743 17.7332 13.5743 18.3387 13.611L19.6109 17.0707C19.7527 17.4627 20.0712 17.7585 20.4667 17.8687C21.2682 18.0997 22.0399 18.4165 22.7574 18.812C23.1162 19.0098 23.5502 19.0272 23.9247 18.8522L27.2602 17.3053C27.7169 17.7078 28.1474 18.14 28.5499 18.595L27.0047 21.941C26.8314 22.3137 26.8472 22.7477 27.0467 23.1065C27.4474 23.8327 27.7677 24.6028 27.9969 25.4008C28.1089 25.7945 28.4064 26.113 28.7932 26.253L32.2459 27.5182C32.2774 28.122 32.2774 28.7345 32.2442 29.3365Z" fill="#194BED"/>
<path d="M60.7354 14.9327C60.7582 14.5127 60.7652 14.0875 60.7424 13.6623L62.7619 11.8265C63.3132 11.3295 63.5319 10.542 63.3097 9.81925C63.0629 9.023 62.7514 8.253 62.3787 7.52325C62.0462 6.874 61.3829 6.46975 60.6619 6.46975C60.6339 6.46975 60.6077 6.46975 60.5937 6.46975L57.8707 6.56075C57.5959 6.2475 57.2949 5.94475 56.9799 5.656L57.1094 2.926C57.1094 2.9155 57.1094 2.9015 57.1129 2.88925C57.1269 2.1455 56.7122 1.45075 56.0734 1.1235C55.3524 0.74375 54.5912 0.42175 53.7949 0.15575C53.6042 0.0962496 53.4012 0.0612497 53.1982 0.0612497C52.6679 0.0612497 52.1534 0.2835 51.7859 0.67375L49.9257 2.667C49.4987 2.64075 49.0787 2.63725 48.6534 2.65825L46.8177 0.6335C46.4554 0.231 45.9304 0 45.3844 0C45.1902 0 44.9977 0.0297503 44.8104 0.0875003C44.0282 0.3325 43.2582 0.6405 42.5232 1.015C41.8494 1.35275 41.4329 2.05975 41.4644 2.80175L41.5537 5.52825C41.2352 5.81175 40.9342 6.1075 40.6489 6.42075L37.9207 6.2895C37.1647 6.25275 36.4647 6.657 36.1217 7.3185C35.7402 8.04125 35.4147 8.80775 35.1539 9.59525C35.1522 9.604 35.1487 9.6145 35.1452 9.6215C34.9299 10.3303 35.1242 11.0915 35.6737 11.6165L37.6652 13.4733C37.6372 13.8985 37.6337 14.3255 37.6547 14.749L35.6282 16.5847C35.0787 17.0922 34.8669 17.8745 35.0839 18.5763C35.2012 18.9665 35.3377 19.348 35.5004 19.7523C35.6649 20.1548 35.8329 20.5223 36.0114 20.8723C36.3404 21.532 37.0019 21.938 37.7387 21.938C37.7597 21.938 37.7754 21.938 37.8034 21.9345L40.5212 21.8435C40.8012 22.162 41.1022 22.4648 41.4172 22.7518L41.2859 25.4905C41.2544 26.2308 41.6604 26.9325 42.3132 27.2773C43.0114 27.6483 43.7762 27.9737 44.5934 28.2467C44.7877 28.3132 44.9942 28.3447 45.1989 28.3447C45.7362 28.3447 46.2507 28.119 46.6112 27.7253L48.4697 25.7408C48.8932 25.7653 49.3167 25.7688 49.7454 25.7478L51.5777 27.762C51.9452 28.168 52.4702 28.399 53.0127 28.399C53.2034 28.399 53.3977 28.3728 53.5814 28.315C54.3689 28.07 55.1424 27.7585 55.8634 27.391C56.5372 27.0603 56.9572 26.355 56.9327 25.5938L56.8417 22.8778C57.1584 22.5978 57.4612 22.295 57.7464 21.9817L60.4747 22.113C60.5079 22.1165 60.5377 22.1165 60.5709 22.1165C61.2954 22.1165 61.9464 21.7193 62.2772 21.084C62.6569 20.3718 62.9824 19.6088 63.2449 18.8108C63.4777 18.1055 63.2799 17.3162 62.7322 16.7982L60.7354 14.9327ZM58.1227 13.2703C58.1979 13.9458 58.1909 14.623 58.1087 15.2828C58.0562 15.6923 58.2084 16.1035 58.5077 16.3853L60.6532 18.3943C60.5114 18.7828 60.3522 19.1555 60.1754 19.5142L57.2442 19.3708C56.8312 19.3533 56.4374 19.5283 56.1802 19.8468C55.7497 20.3788 55.2614 20.8583 54.7312 21.2748C54.4074 21.5285 54.2254 21.9205 54.2394 22.3335L54.3392 25.2577C53.9717 25.4292 53.5919 25.585 53.2087 25.7197L51.2329 23.541C50.9862 23.2733 50.6379 23.121 50.2792 23.121C50.2319 23.121 50.1829 23.121 50.1392 23.128C49.4514 23.2015 48.7724 23.1945 48.1197 23.114C47.7137 23.0615 47.2989 23.212 47.0189 23.5148L45.0134 25.6568C44.6197 25.5133 44.2469 25.3505 43.8882 25.1808L44.0299 22.246C44.0509 21.833 43.8707 21.4392 43.5522 21.1802C43.0219 20.7497 42.5459 20.2668 42.1347 19.7418C41.8809 19.4128 41.4872 19.2308 41.0724 19.2413L38.1429 19.3428C38.0607 19.1608 37.9784 18.977 37.8979 18.7793C37.8192 18.5885 37.7492 18.3977 37.6827 18.214L39.8579 16.2382C40.1624 15.9617 40.3199 15.554 40.2727 15.148C40.2027 14.483 40.2097 13.797 40.2884 13.1145C40.3374 12.7085 40.1887 12.3008 39.8877 12.019L37.7439 10.0153C37.8839 9.63025 38.0414 9.2575 38.2199 8.8935L41.1599 9.03175C41.5712 9.05275 41.9649 8.87425 42.2239 8.55575C42.6439 8.03775 43.1339 7.55475 43.6694 7.12775C43.9914 6.874 44.1717 6.4855 44.1577 6.07425L44.0614 3.143C44.4307 2.97325 44.8104 2.81925 45.1919 2.6845L47.1642 4.86325C47.4424 5.166 47.8467 5.32 48.2527 5.27975C48.9247 5.208 49.6107 5.2115 50.2897 5.29375C50.6957 5.33925 51.1052 5.19225 51.3817 4.89125L53.3837 2.75275C53.7669 2.89275 54.1449 3.0555 54.5142 3.22875L54.3742 6.16C54.3532 6.5695 54.5282 6.96325 54.8432 7.22225C55.3874 7.6615 55.8617 8.15325 56.2677 8.67125C56.5232 8.99325 56.9134 9.17525 57.3264 9.16475L60.2629 9.06675C60.4309 9.4325 60.5849 9.80875 60.7197 10.199L58.5409 12.1748C58.2364 12.453 58.0807 12.859 58.1227 13.2703Z" fill="#91ABFF"/>
</svg>
