<svg width="23" height="23" viewBox="0 0 23 23" fill="none" xmlns="http://www.w3.org/2000/svg">
<path d="M9.19844 1.37448C9.80146 -0.459073 12.3952 -0.45907 12.9982 1.37448L14.6188 6.30211C14.8173 6.90548 15.2905 7.37872 15.8939 7.57716L20.8215 9.19777C22.6551 9.80079 22.6551 12.3945 20.8215 12.9975L15.8939 14.6182C15.2905 14.8166 14.8173 15.2898 14.6188 15.8932L12.9982 20.8208C12.3952 22.6544 9.80146 22.6544 9.19844 20.8208L7.57783 15.8932C7.3794 15.2898 6.90615 14.8166 6.30278 14.6182L1.37515 12.9975C-0.458402 12.3945 -0.458399 9.80079 1.37515 9.19777L6.30278 7.57716C6.90615 7.37872 7.3794 6.90548 7.57783 6.30211L9.19844 1.37448Z" fill="#FFCC8A"/>
</svg>
