<svg width="72" height="71" viewBox="0 0 72 71" fill="none" xmlns="http://www.w3.org/2000/svg">
<path d="M20.6395 30.7174C21.3053 29.0291 23.6947 29.0291 24.3605 30.7174L28.5453 41.328C28.7486 41.8434 29.1566 42.2514 29.672 42.4547L40.2826 46.6395C41.9709 47.3053 41.9709 49.6947 40.2826 50.3605L29.672 54.5453C29.1566 54.7486 28.7486 55.1566 28.5453 55.672L24.3605 66.2826C23.6947 67.9709 21.3053 67.9709 20.6395 66.2826L16.4547 55.672C16.2514 55.1566 15.8434 54.7486 15.328 54.5453L4.71744 50.3605C3.02914 49.6947 3.02914 47.3053 4.71743 46.6395L15.328 42.4547C15.8434 42.2514 16.2514 41.8434 16.4547 41.328L20.6395 30.7174Z" fill="#5BD4B8"/>
<path d="M54.6395 4.71743C55.3053 3.02914 57.6947 3.02914 58.3605 4.71743L60.5654 10.3079C60.7687 10.8233 61.1767 11.2313 61.6921 11.4346L67.2826 13.6395C68.9709 14.3053 68.9709 16.6947 67.2826 17.3605L61.6921 19.5654C61.1767 19.7687 60.7687 20.1767 60.5654 20.6921L58.3605 26.2826C57.6947 27.9709 55.3053 27.9709 54.6395 26.2826L52.4346 20.6921C52.2313 20.1767 51.8233 19.7687 51.3079 19.5654L45.7174 17.3605C44.0291 16.6947 44.0291 14.3053 45.7174 13.6395L51.3079 11.4346C51.8233 11.2313 52.2313 10.8233 52.4346 10.3079L54.6395 4.71743Z" fill="#5BD4B8"/>
</svg>
