<svg width="51" height="51" viewBox="0 0 51 51" fill="none" xmlns="http://www.w3.org/2000/svg">
<path d="M41.4375 9.5625V15.9375H9.5625V9.5625H41.4375ZM41.4375 6.375H9.5625C8.71712 6.375 7.90637 6.71082 7.3086 7.3086C6.71082 7.90637 6.375 8.71712 6.375 9.5625V15.9375C6.375 16.7829 6.71082 17.5936 7.3086 18.1914C7.90637 18.7892 8.71712 19.125 9.5625 19.125H41.4375C42.2829 19.125 43.0936 18.7892 43.6914 18.1914C44.2892 17.5936 44.625 16.7829 44.625 15.9375V9.5625C44.625 8.71712 44.2892 7.90637 43.6914 7.3086C43.0936 6.71082 42.2829 6.375 41.4375 6.375Z" fill="#849FF6"/>
<path d="M15.9375 25.5V41.4375H9.5625V25.5H15.9375ZM15.9375 22.3125H9.5625C8.71712 22.3125 7.90637 22.6483 7.3086 23.2461C6.71082 23.8439 6.375 24.6546 6.375 25.5V41.4375C6.375 42.2829 6.71082 43.0936 7.3086 43.6914C7.90637 44.2892 8.71712 44.625 9.5625 44.625H15.9375C16.7829 44.625 17.5936 44.2892 18.1914 43.6914C18.7892 43.0936 19.125 42.2829 19.125 41.4375V25.5C19.125 24.6546 18.7892 23.8439 18.1914 23.2461C17.5936 22.6483 16.7829 22.3125 15.9375 22.3125Z" fill="#FF8D67"/>
<path d="M41.4375 25.5V41.4375H25.5V25.5H41.4375ZM41.4375 22.3125H25.5C24.6546 22.3125 23.8439 22.6483 23.2461 23.2461C22.6483 23.8439 22.3125 24.6546 22.3125 25.5V41.4375C22.3125 42.2829 22.6483 43.0936 23.2461 43.6914C23.8439 44.2892 24.6546 44.625 25.5 44.625H41.4375C42.2829 44.625 43.0936 44.2892 43.6914 43.6914C44.2892 43.0936 44.625 42.2829 44.625 41.4375V25.5C44.625 24.6546 44.2892 23.8439 43.6914 23.2461C43.0936 22.6483 42.2829 22.3125 41.4375 22.3125Z" fill="#194BED"/>
</svg>
