<svg width="46" height="27" viewBox="0 0 46 27" fill="none" xmlns="http://www.w3.org/2000/svg">
<path d="M7.62694 26.7846C7.004 26.7846 6.37741 26.7011 5.75931 26.5324C3.85795 26.0134 2.27104 24.7542 1.29147 22.9865L0.966673 22.3999C-1.02954 18.7981 0.165954 14.1715 3.63132 12.0868L18.2463 3.29549C19.9254 2.28502 21.8864 2.01138 23.7622 2.52362C25.6635 3.04265 27.2497 4.30228 28.2293 6.06997L28.5534 6.65467C30.5499 10.2579 29.3548 14.8849 25.8895 16.9693L24.5963 17.7469L23.0541 15.0843L24.3473 14.3062C26.3994 13.0719 27.1012 10.3221 25.912 8.17578L25.588 7.59113C25.0117 6.55162 24.0848 5.81288 22.9771 5.51052C21.8927 5.2142 20.7605 5.37424 19.7884 5.95822L5.17349 14.7498C3.12137 15.9841 2.41957 18.734 3.60841 20.8799L3.93316 21.4661C4.50872 22.5046 5.43608 23.2433 6.54408 23.5456C7.62846 23.8412 8.76093 23.683 9.73238 23.0976L12.9966 21.1339L14.5387 23.7966L11.2745 25.7601C10.1482 26.4381 8.89576 26.7846 7.62694 26.7846Z" fill="#FF8D67"/>
<path d="M23.6058 24.5134C22.9829 24.5134 22.356 24.4299 21.7374 24.2613C19.8365 23.7423 18.2502 22.4826 17.2707 20.715L16.9462 20.1295C14.9501 16.527 16.1452 11.9003 19.6101 9.81591L20.9034 9.03799C21.6259 8.60431 22.5555 8.8485 22.9807 9.58346C23.4066 10.3187 23.1669 11.2669 22.4455 11.7006L21.1522 12.4786C19.1006 13.7129 18.3988 16.4632 19.5879 18.609L19.912 19.1945C20.4879 20.2332 21.4148 20.972 22.5225 21.2743C23.6066 21.571 24.7394 21.4117 25.7116 20.8262L40.3266 12.0351C42.3787 10.8008 43.0805 8.05091 41.8913 5.9054L41.5665 5.31888C40.991 4.28041 40.064 3.54208 38.9563 3.23977C37.8723 2.94381 36.7393 3.10276 35.7672 3.68742L32.503 5.65096C31.7808 6.0866 30.8516 5.84158 30.4258 5.10558C29.9999 4.37026 30.2395 3.42206 30.9609 2.98838L34.2252 1.02479C35.9044 0.0138563 37.8623 -0.260512 39.7414 0.252408C41.6424 0.771849 43.229 2.03107 44.2082 3.79875L44.5329 4.38496C46.5295 7.98673 45.3344 12.6134 41.8687 14.6982L27.2538 23.4893C26.1272 24.1669 24.8747 24.5134 23.6058 24.5134Z" fill="#194BED"/>
</svg>
