<svg width="68" height="64" viewBox="0 0 68 64" fill="none" xmlns="http://www.w3.org/2000/svg">
<path d="M65.2083 55.707H39.875M1.875 55.707H27.2083" stroke="#4E78FF" stroke-width="3.75" stroke-linecap="round"/>
<path d="M33.5416 49.375V39.875" stroke="#4E78FF" stroke-width="3.75" stroke-linecap="round"/>
<path d="M33.5416 62.0417C37.0394 62.0417 39.8749 59.2061 39.8749 55.7083C39.8749 52.2105 37.0394 49.375 33.5416 49.375C30.0438 49.375 27.2083 52.2105 27.2083 55.7083C27.2083 59.2061 30.0438 62.0417 33.5416 62.0417Z" stroke="#FF8D67" stroke-width="3.75"/>
<path d="M39.875 39.875H11.375C6.12831 39.875 1.875 35.6219 1.875 30.375C1.875 25.1283 6.12831 20.875 11.375 20.875H55.7083C60.9552 20.875 65.2083 25.1283 65.2083 30.375C65.2083 35.6219 60.9552 39.875 55.7083 39.875H52.5417" stroke="#4E78FF" stroke-width="3.75" stroke-linecap="round"/>
<path d="M33.5417 1.875H55.7083C60.9552 1.875 65.2083 6.12831 65.2083 11.375C65.2083 16.6217 60.9552 20.875 55.7083 20.875H11.375C6.12831 20.875 1.875 16.6217 1.875 11.375C1.875 6.12831 6.12831 1.875 11.375 1.875H20.875" stroke="#4E78FF" stroke-width="3.75" stroke-linecap="round"/>
<path d="M36.7083 11.375H55.7083" stroke="#91ABFF" stroke-width="3.75" stroke-linecap="round"/>
<path d="M36.7083 30.375H55.7083" stroke="#91ABFF" stroke-width="3.75" stroke-linecap="round"/>
<path d="M14.5417 14.5404C16.2906 14.5404 17.7083 13.1226 17.7083 11.3737C17.7083 9.6248 16.2906 8.20703 14.5417 8.20703C12.7928 8.20703 11.375 9.6248 11.375 11.3737C11.375 13.1226 12.7928 14.5404 14.5417 14.5404Z" fill="#FF8D67"/>
<path d="M14.5417 33.5404C16.2906 33.5404 17.7083 32.1226 17.7083 30.3737C17.7083 28.6248 16.2906 27.207 14.5417 27.207C12.7928 27.207 11.375 28.6248 11.375 30.3737C11.375 32.1226 12.7928 33.5404 14.5417 33.5404Z" fill="#FF8D67"/>
</svg>
