<svg width="47" height="44" viewBox="0 0 47 44" fill="none" xmlns="http://www.w3.org/2000/svg">
<path d="M20.7802 16.6057C18.8846 14.0302 15.8309 12.3593 12.3911 12.3593C6.64092 12.3593 1.97969 17.0205 1.97969 22.7707C1.97969 28.5209 6.64092 33.1821 12.3911 33.1821H29.5207C38.1229 33.1821 45.0946 26.2104 45.0946 17.6082C45.0946 9.00596 38.1229 2.03428 29.5207 2.03428C22.6815 2.03428 16.868 6.44199 14.7765 12.5782" fill="white"/>
<path d="M41.4475 37.1635C41.4475 36.9791 41.4763 36.8005 41.5339 36.6334H30.3562V17.0493C30.3562 16.7324 30.0969 16.4731 29.78 16.4731C29.4631 16.4731 29.2038 16.7324 29.2038 17.0493V37.7857H41.5685C41.4936 37.5956 41.4475 37.3824 41.4475 37.1635Z" fill="#FF8D67"/>
<path d="M7.26318 38.6154C7.06152 38.1142 6.57178 37.7569 5.99561 37.7569C5.24082 37.7569 4.63008 38.3677 4.63008 39.1225C4.63008 39.8772 5.24082 40.488 5.99561 40.488C6.54297 40.488 7.01543 40.1653 7.23438 39.6986C7.31504 39.5258 7.36113 39.3299 7.36113 39.1225C7.36113 38.9438 7.32656 38.771 7.26318 38.6154Z" fill="white"/>
<path d="M43.1011 35.5156C42.3751 35.5156 41.7586 35.9823 41.5396 36.6334C41.482 36.8005 41.4532 36.9791 41.4532 37.1635C41.4532 37.3824 41.4936 37.5898 41.5742 37.7857C41.822 38.3907 42.4097 38.8171 43.1068 38.8171C44.0172 38.8171 44.7604 38.0796 44.7604 37.1635C44.7547 36.2531 44.0114 35.5156 43.1011 35.5156ZM34.3317 7.84785C34.4527 7.55401 34.3145 7.21406 34.0206 7.09307C29.5265 5.23203 26.225 6.19424 24.2487 7.3293C22.1054 8.55654 21.0395 10.2217 20.9991 10.2966C20.832 10.5674 20.9127 10.9188 21.1777 11.0917C21.2757 11.1493 21.3794 11.1781 21.4831 11.1781C21.6732 11.1781 21.8634 11.0859 21.9729 10.9131C21.9844 10.8958 22.9581 9.39199 24.8652 8.30879C27.4062 6.87412 30.3331 6.82227 33.577 8.16475C33.8708 8.27998 34.2107 8.1417 34.3317 7.84785Z" fill="#29266E"/>
<path d="M43.1011 40.2345C42.3866 40.2345 41.7816 40.6839 41.5512 41.3177H24.7961V34.3287H29.2038V32.024H24.7961V23.9922C24.7961 23.6753 24.5368 23.416 24.2199 23.416C23.903 23.416 23.6437 23.6753 23.6437 23.9922V32.024H19.7892V23.9922C19.7892 23.6753 19.5299 23.416 19.213 23.416C18.8961 23.416 18.6368 23.6753 18.6368 23.9922V32.024H12.3911C7.28623 32.024 3.13203 27.8698 3.13203 22.7649C3.13203 17.6601 7.28623 13.5059 12.3911 13.5059C15.3238 13.5059 18.1125 14.9175 19.8525 17.2855C20.2271 17.7983 20.953 17.9078 21.4658 17.5333C21.9786 17.1588 22.0881 16.4328 21.7136 15.92C20.6592 14.4911 19.2706 13.3042 17.6977 12.4918C17.2425 12.2556 16.77 12.0481 16.286 11.8753C18.5504 6.63213 23.7359 3.18662 29.5265 3.18662C37.4776 3.18662 43.948 9.65703 43.948 17.6082C43.948 25.2771 37.9328 31.5631 30.3677 32.001V34.3114C34.5219 34.1098 38.3937 32.3928 41.3553 29.4312C44.5127 26.2738 46.2527 22.0735 46.2527 17.6082C46.2527 13.1429 44.5127 8.94258 41.3553 5.78516C38.1979 2.62773 33.9976 0.887695 29.5322 0.887695C22.6873 0.887695 16.5741 5.0419 14.0274 11.3279C13.4916 11.253 12.9442 11.2127 12.4026 11.2127C6.02441 11.2127 0.838867 16.3982 0.838867 22.7765C0.838867 29.1547 6.02441 34.3402 12.4026 34.3402H18.6483V38.5981H8.45586C8.20811 37.4688 7.1998 36.6161 5.99561 36.6161C4.60703 36.6161 3.47773 37.7454 3.47773 39.134C3.47773 40.5226 4.60703 41.6519 5.99561 41.6519C7.171 41.6519 8.16201 40.8395 8.43857 39.7505H19.7892V34.3402H23.6437V42.4815H41.5569C41.7932 43.1038 42.3981 43.5475 43.1011 43.5475C44.0114 43.5475 44.7547 42.81 44.7547 41.8938C44.7547 40.972 44.0114 40.2345 43.1011 40.2345ZM7.23438 39.6986C7.01543 40.1653 6.54297 40.488 5.99561 40.488C5.24082 40.488 4.63008 39.8772 4.63008 39.1225C4.63008 38.3677 5.24082 37.7569 5.99561 37.7569C6.56602 37.7569 7.06152 38.1142 7.26318 38.6154C7.32656 38.771 7.36113 38.9438 7.36113 39.1225C7.36113 39.3299 7.31504 39.5258 7.23438 39.6986Z" fill="#29266E"/>
</svg>
