<svg width="23" height="23" viewBox="0 0 23 23" fill="none" xmlns="http://www.w3.org/2000/svg">
<path d="M9.1985 1.37448C9.80152 -0.459073 12.3953 -0.45907 12.9983 1.37448L14.6189 6.30211C14.8173 6.90548 15.2906 7.37872 15.8939 7.57716L20.8216 9.19777C22.6551 9.80079 22.6551 12.3945 20.8216 12.9975L15.8939 14.6182C15.2906 14.8166 14.8173 15.2898 14.6189 15.8932L12.9983 20.8208C12.3953 22.6544 9.80152 22.6544 9.1985 20.8208L7.57789 15.8932C7.37946 15.2898 6.90621 14.8166 6.30284 14.6182L1.37521 12.9975C-0.458341 12.3945 -0.458338 9.80079 1.37521 9.19777L6.30284 7.57716C6.90621 7.37872 7.37946 6.90548 7.57789 6.30211L9.1985 1.37448Z" fill="#FF8D67"/>
</svg>
