<svg width="59" height="59" viewBox="0 0 59 59" fill="none" xmlns="http://www.w3.org/2000/svg">
<path d="M54.125 17L43.125 22.5M43.125 22.5C43.125 22.5 42.2871 22.919 41.75 23.1875C36.9171 25.6039 29.375 29.375 29.375 29.375M43.125 22.5V32.125M43.125 22.5L17 8.75M29.375 29.375L4.625 17M29.375 29.375V55.5" stroke="#FF8D67" stroke-width="3.75" stroke-linecap="round"/>
<path d="M39.2137 5.67542L44.7137 8.56168C50.6308 11.6668 53.5893 13.2194 55.2321 16.0093C56.875 18.7992 56.875 22.2708 56.875 29.2141V29.5359C56.875 36.4791 56.875 39.951 55.2321 42.7408C53.5893 45.5307 50.6308 47.0831 44.7137 50.1884L39.2137 53.0745C34.3858 55.6081 31.9718 56.875 29.375 56.875C26.7782 56.875 24.3642 55.6081 19.5363 53.0745L14.0363 50.1884C8.11923 47.0831 5.16067 45.5307 3.51785 42.7408C1.875 39.951 1.875 36.4791 1.875 29.5359V29.2141C1.875 22.2708 1.875 18.7992 3.51785 16.0093C5.16067 13.2194 8.11923 11.6668 14.0363 8.56168L19.5363 5.67542C24.3642 3.14181 26.7782 1.875 29.375 1.875C31.9718 1.875 34.3858 3.14181 39.2137 5.67542Z" stroke="#194BED" stroke-width="3.75" stroke-linecap="round"/>
</svg>
