<svg width="41" height="41" viewBox="0 0 41 41" fill="none" xmlns="http://www.w3.org/2000/svg">
<path d="M38.0721 9.43505V40.9998H3.82715V0H28.6371L33.0316 4.39461L38.0721 9.43505Z" fill="#FFFEFE"/>
<path d="M19.3515 2.74609H2.92773V10.0947H19.3515V2.74609Z" fill="#FF8D67"/>
<path d="M8.81879 5.15556C8.74632 4.98051 8.64975 4.82355 8.51698 4.69079C8.38421 4.55802 8.22117 4.44935 8.03403 4.37688C7.84088 4.2984 7.62354 4.26221 7.38211 4.26221H5.57715V8.92235H6.48868V7.16568H7.38211C7.62354 7.16568 7.84088 7.12948 8.03403 7.05101C8.22117 6.97854 8.38413 6.86995 8.51698 6.7371C8.64983 6.60433 8.7464 6.45338 8.81879 6.27233C8.88518 6.09728 8.92145 5.91013 8.92145 5.71699C8.92137 5.51775 8.88518 5.33061 8.81879 5.15556ZM7.83479 6.17567C7.71403 6.29035 7.54507 6.35072 7.33983 6.35072H6.48868V5.071H7.33983C7.54507 5.071 7.71411 5.13138 7.83479 5.25205C7.94946 5.36672 8.00984 5.52368 8.00984 5.71683C8.00992 5.90405 7.94954 6.061 7.83479 6.17567Z" fill="#FFFEFE"/>
<path d="M13.1771 6.0666C13.1711 5.90364 13.1651 5.75878 13.147 5.62593C13.1289 5.49308 13.0987 5.3724 13.0564 5.25773C13.0141 5.14906 12.9598 5.0404 12.8873 4.94382C12.7244 4.70839 12.5252 4.53334 12.3018 4.42468C12.0724 4.31601 11.8008 4.26172 11.4809 4.26172H9.80273V8.92187H11.4809C11.8008 8.92187 12.0724 8.86757 12.3018 8.75891C12.5252 8.65024 12.7244 8.47519 12.8873 8.23976C12.9598 8.14319 13.0141 8.03452 13.0564 7.92585C13.0987 7.81118 13.1289 7.69042 13.147 7.55765C13.1651 7.42488 13.1711 7.27994 13.1771 7.11698C13.1832 6.96003 13.1832 6.78498 13.1832 6.59183C13.1832 6.39868 13.1832 6.22355 13.1771 6.0666ZM12.2656 7.06269C12.2656 7.20155 12.2535 7.31021 12.2414 7.40679C12.2293 7.49736 12.2112 7.58184 12.1871 7.64222C12.163 7.7086 12.1268 7.76898 12.0846 7.82327C11.9336 8.01642 11.7043 8.10699 11.4025 8.10699H10.7083V5.07059H11.4025C11.7043 5.07059 11.9337 5.16716 12.0846 5.36031C12.1268 5.4146 12.163 5.46898 12.1871 5.53536C12.2112 5.60175 12.2294 5.68022 12.2414 5.7768C12.2535 5.86737 12.2656 5.98204 12.2656 6.11481C12.2716 6.24766 12.2716 6.41062 12.2716 6.59167C12.2717 6.77289 12.2717 6.92984 12.2656 7.06269Z" fill="#FFFEFE"/>
<path d="M17.0706 5.07059V4.26172H13.998V8.92187H14.9096V7.0325H16.7507V6.21755H14.9096V5.07059H17.0706Z" fill="#FFFEFE"/>
<path d="M8.81879 5.15556C8.74632 4.98051 8.64975 4.82355 8.51698 4.69079C8.38421 4.55802 8.22117 4.44935 8.03403 4.37688C7.84088 4.2984 7.62354 4.26221 7.38211 4.26221H5.57715V8.92235H6.48868V7.16568H7.38211C7.62354 7.16568 7.84088 7.12948 8.03403 7.05101C8.22117 6.97854 8.38413 6.86995 8.51698 6.7371C8.64983 6.60433 8.7464 6.45338 8.81879 6.27233C8.88518 6.09728 8.92145 5.91013 8.92145 5.71699C8.92137 5.51775 8.88518 5.33061 8.81879 5.15556ZM7.83479 6.17567C7.71403 6.29035 7.54507 6.35072 7.33983 6.35072H6.48868V5.071H7.33983C7.54507 5.071 7.71411 5.13138 7.83479 5.25205C7.94946 5.36672 8.00984 5.52368 8.00984 5.71683C8.00992 5.90405 7.94954 6.061 7.83479 6.17567Z" fill="#FFFEFE"/>
<path opacity="0.08" d="M38.0721 9.43497V40.9998H3.82715V33.599L19.8359 17.5903L20.7836 16.6426L21.3088 16.1173L22.1841 15.2421L23.2224 14.2038L33.0316 4.39453L38.0721 9.43497Z" fill="#29266E"/>
<path d="M38.0718 9.43609H28.6357V0L38.0718 9.43609Z" fill="#29266E"/>
<path d="M33.1819 29.6817C32.9827 29.3316 32.711 28.9996 32.373 28.6978C32.0954 28.4443 31.7694 28.2088 31.4011 27.9915C29.9161 27.1163 27.7974 26.6937 24.9179 26.6937H24.6282C24.4712 26.5488 24.3083 26.404 24.1392 26.253C23.0466 25.2691 22.1774 24.2006 21.5013 23.0114C22.8293 20.0837 23.4631 17.476 23.3846 15.2545C23.3726 14.8802 23.3183 14.5301 23.2217 14.2041C23.0768 13.679 22.8354 13.2141 22.4973 12.8338C22.4913 12.8278 22.4913 12.8278 22.4852 12.8217C21.948 12.2181 21.1995 11.874 20.4388 11.874C19.6721 11.874 18.9659 12.206 18.4528 12.8157C17.9457 13.4194 17.6741 14.2464 17.662 15.2182C17.6439 16.7032 17.7646 18.1097 18.0182 19.4075C18.0423 19.5102 18.0605 19.6128 18.0846 19.7154C18.3381 20.8925 18.7124 22.0092 19.1953 23.0475C18.6278 24.2004 18.0544 25.1965 17.6559 25.8726C17.3541 26.3857 17.0221 26.9229 16.678 27.4602C15.1267 27.7379 13.8107 28.0759 12.6638 28.4985C11.1124 29.0599 9.8689 29.7842 8.97547 30.6475C8.39594 31.2028 8.00356 31.7944 7.81041 32.4101C7.60517 33.044 7.61727 33.6778 7.84661 34.2452C8.05785 34.7704 8.43815 35.211 8.94528 35.5128C9.06604 35.5853 9.1928 35.6456 9.32557 35.7C9.71195 35.8569 10.1344 35.9414 10.5751 35.9414C11.5953 35.9414 12.6456 35.5008 13.533 34.71C15.187 33.231 16.8953 30.8527 17.9034 29.3496C18.7303 29.2228 19.6298 29.1141 20.644 29.0055C21.8392 28.8847 22.8956 28.8123 23.8554 28.776C24.1512 29.0417 24.435 29.2952 24.7066 29.5366C26.2157 30.8827 27.3626 31.8546 28.4009 32.5367C28.4009 32.5427 28.4069 32.5427 28.413 32.5427C28.8235 32.8144 29.2159 33.0377 29.6082 33.2188C30.0489 33.4241 30.4956 33.5328 30.9544 33.5328C31.5339 33.5328 32.0771 33.3577 32.5299 33.0378C32.9887 32.7058 33.3207 32.2289 33.4716 31.6917C33.6467 31.0459 33.5441 30.3276 33.1819 29.6817ZM19.8352 17.5906C19.7507 16.8421 19.7144 16.0634 19.7265 15.2424C19.7386 14.4637 20.0223 13.9385 20.4388 13.9385C20.7527 13.9385 21.0847 14.2222 21.2356 14.7655C21.2779 14.9284 21.3081 15.1156 21.3141 15.3268C21.3262 15.5804 21.3201 15.846 21.3081 16.1176C21.2719 16.8843 21.139 17.6991 20.9097 18.5745C20.7708 19.1359 20.5898 19.7214 20.3664 20.3311C20.1129 19.474 19.9318 18.5625 19.8352 17.5906ZM9.76632 33.4786C9.66366 33.2251 9.77841 32.7361 10.4062 32.1325C11.366 31.215 12.8691 30.4906 14.9638 29.9412C14.5654 30.4845 14.173 30.9795 13.7927 31.4322C13.2132 32.1324 12.6579 32.724 12.1568 33.1707C11.7282 33.557 11.2574 33.7985 10.8107 33.8589C10.7322 33.871 10.6537 33.877 10.5753 33.877C10.1828 33.8771 9.8629 33.7201 9.76632 33.4786ZM19.4126 27.0619L19.4549 26.9955L19.3885 27.0076C19.4006 26.9774 19.4187 26.9472 19.4368 26.9231C19.6903 26.4945 20.0102 25.9452 20.3543 25.3114L20.3845 25.3778L20.463 25.2148C20.7165 25.577 20.9942 25.9332 21.284 26.2772C21.4228 26.4402 21.5677 26.5971 21.7125 26.7541L21.616 26.7601L21.7004 26.8385C21.4529 26.8566 21.1934 26.8808 20.9338 26.9049C20.7708 26.923 20.6018 26.9351 20.4327 26.9532C20.0827 26.9894 19.7386 27.0257 19.4126 27.0619ZM29.572 30.8286C28.8537 30.3698 28.0509 29.7239 27.0609 28.8607C28.4674 29.0055 29.572 29.3134 30.3568 29.7722C30.7009 29.9714 30.9604 30.1767 31.1355 30.3758C31.4252 30.6837 31.5279 30.9614 31.4735 31.1485C31.4252 31.3356 31.214 31.4624 30.9544 31.4624C30.8034 31.4624 30.6465 31.4262 30.4835 31.3477C30.2058 31.215 29.9161 31.0519 29.6082 30.8528C29.5961 30.8528 29.5841 30.8407 29.572 30.8286Z" fill="#FF8D67"/>
</svg>
