<svg width="52" height="54" viewBox="0 0 52 54" fill="none" xmlns="http://www.w3.org/2000/svg">
<path d="M18.9121 24.05C18.6621 24.025 18.3621 24.025 18.0871 24.05C12.1371 23.85 7.41211 18.975 7.41211 12.975C7.41211 6.85 12.3621 1.875 18.5121 1.875C24.637 1.875 29.612 6.85 29.612 12.975C29.587 18.975 24.862 23.85 18.9121 24.05Z" stroke="#194BED" stroke-width="3.75" stroke-linecap="round" stroke-linejoin="round"/>
<path d="M37.034 6.875C41.884 6.875 45.784 10.8 45.784 15.625C45.784 20.35 42.034 24.2 37.359 24.375C37.159 24.35 36.934 24.35 36.709 24.375" stroke="#FF8D67" stroke-width="3.75" stroke-linecap="round" stroke-linejoin="round"/>
<path d="M6.4125 33.275C0.3625 37.325 0.3625 43.925 6.4125 47.95C13.2875 52.55 24.5625 52.55 31.4375 47.95C37.4875 43.9 37.4875 37.3 31.4375 33.275C24.5875 28.7 13.3125 28.7 6.4125 33.275Z" stroke="#194BED" stroke-width="3.75" stroke-linecap="round" stroke-linejoin="round"/>
<path d="M41.8604 46.875C43.6604 46.5 45.3604 45.775 46.7604 44.7C50.6604 41.775 50.6604 36.95 46.7604 34.025C45.3854 32.975 43.7104 32.275 41.9354 31.875" stroke="#FF8D67" stroke-width="3.75" stroke-linecap="round" stroke-linejoin="round"/>
</svg>
