<svg width="45" height="45" viewBox="0 0 45 45" fill="none" xmlns="http://www.w3.org/2000/svg">
<path d="M41.25 19.6875V22.5C41.25 31.3388 41.25 35.7583 38.5041 38.5041C35.7583 41.25 31.3388 41.25 22.5 41.25C13.6612 41.25 9.24174 41.25 6.49588 38.5041C3.75 35.7583 3.75 31.3388 3.75 22.5C3.75 13.6612 3.75 9.24174 6.49588 6.49588C9.24174 3.75 13.6612 3.75 22.5 3.75H25.3125" stroke="#29266E" stroke-width="2" stroke-linecap="round"/>
<path d="M13.125 26.25L16.4942 22.2069C17.8293 20.6049 18.4968 19.8038 19.3749 19.8038C20.2532 19.8038 20.9207 20.6049 22.2559 22.2069L22.7441 22.7931C24.0793 24.3951 24.7468 25.1962 25.6251 25.1962C26.5031 25.1962 27.1708 24.3951 28.5058 22.7931L31.875 18.75" stroke="#FF8D67" stroke-width="2" stroke-linecap="round"/>
<path d="M35.625 15C38.7316 15 41.25 12.4816 41.25 9.375C41.25 6.2684 38.7316 3.75 35.625 3.75C32.5184 3.75 30 6.2684 30 9.375C30 12.4816 32.5184 15 35.625 15Z" stroke="#29266E" stroke-width="2"/>
</svg>
