<svg width="67" height="67" viewBox="0 0 67 67" fill="none" xmlns="http://www.w3.org/2000/svg">
<path d="M62.1361 0.783203L61.6131 7.3949H58.1032V40.0767C58.1032 41.1463 57.6783 42.1721 56.922 42.9285C56.1657 43.6848 55.1399 44.1097 54.0703 44.1097H32.9014V4.96782C32.9014 2.64536 34.5177 0.783203 36.5106 0.783203H62.1361Z" fill="white"/>
<path d="M57.8887 38.5499C57.9463 39.3659 57.3186 40.909 56.7641 41.1653C51.4078 43.8591 52.3598 37.7914 52.3598 37.7078L52.4697 20.373C52.4697 17.1927 49.7444 14.6191 46.3549 14.6191H32.7549V38.3302L51.4549 43.6394L51.413 44.1102H54.086C55.1556 44.1102 56.1813 43.6853 56.9377 42.929C57.694 42.1727 58.1189 41.1469 58.1189 40.0773V38.9684L57.8887 38.5499Z" fill="white"/>
<path d="M58.1184 38.7444C57.9103 38.7444 57.7107 38.6617 57.5636 38.5146C57.4164 38.3674 57.3337 38.1678 57.3337 37.9598V6.45483C57.3337 6.24674 57.4164 6.04717 57.5636 5.90002C57.7107 5.75288 57.9103 5.67022 58.1184 5.67022H60.9116L61.2777 1.56929H36.5101C35.7609 1.56929 35.0425 1.86689 34.5128 2.3966C33.983 2.92632 33.6854 3.64477 33.6854 4.39391V37.9598C33.6854 38.1678 33.6028 38.3674 33.4556 38.5146C33.3085 38.6617 33.1089 38.7444 32.9008 38.7444C32.6927 38.7444 32.4932 38.6617 32.346 38.5146C32.1989 38.3674 32.1162 38.1678 32.1162 37.9598V4.39391C32.1176 3.22901 32.581 2.11223 33.4047 1.28852C34.2284 0.464813 35.3452 0.00144701 36.5101 6.27039e-05H62.1408C62.2498 -0.00132464 62.3579 0.0203239 62.4579 0.0635913C62.558 0.106859 62.6478 0.170769 62.7214 0.25114C62.795 0.332002 62.851 0.427153 62.8861 0.530652C62.9212 0.634151 62.9346 0.743775 62.9254 0.852678L62.4024 6.52283C62.3853 6.71892 62.2952 6.90144 62.1498 7.03418C62.0045 7.16692 61.8146 7.24019 61.6177 7.23945H58.8925V37.9598C58.8925 38.166 58.8113 38.364 58.6664 38.5109C58.5215 38.6577 58.3246 38.7416 58.1184 38.7444Z" fill="#194BED"/>
<path d="M21.9689 37.2587H20.2846C20.0765 37.2587 19.877 37.176 19.7298 37.0289C19.5827 36.8817 19.5 36.6822 19.5 36.4741C19.5 36.266 19.5827 36.0664 19.7298 35.9193C19.877 35.7721 20.0765 35.6895 20.2846 35.6895H21.9689C22.177 35.6895 22.3766 35.7721 22.5237 35.9193C22.6709 36.0664 22.7535 36.266 22.7535 36.4741C22.7535 36.6822 22.6709 36.8817 22.5237 37.0289C22.3766 37.176 22.177 37.2587 21.9689 37.2587Z" fill="white"/>
<path d="M25.7558 37.2587H24.061C23.8529 37.2587 23.6533 37.176 23.5062 37.0289C23.359 36.8817 23.2764 36.6822 23.2764 36.4741C23.2764 36.266 23.359 36.0664 23.5062 35.9193C23.6533 35.7721 23.8529 35.6895 24.061 35.6895H25.761C25.9691 35.6895 26.1686 35.7721 26.3158 35.9193C26.4629 36.0664 26.5456 36.266 26.5456 36.4741C26.5456 36.6822 26.4629 36.8817 26.3158 37.0289C26.1686 37.176 25.9691 37.2587 25.761 37.2587H25.7558Z" fill="white"/>
<path d="M29.5276 37.2587H27.8276C27.6195 37.2587 27.4199 37.176 27.2728 37.0289C27.1256 36.8817 27.043 36.6822 27.043 36.4741C27.043 36.266 27.1256 36.0664 27.2728 35.9193C27.4199 35.7721 27.6195 35.6895 27.8276 35.6895H29.5276C29.7357 35.6895 29.9352 35.7721 30.0824 35.9193C30.2295 36.0664 30.3122 36.266 30.3122 36.4741C30.3122 36.6822 30.2295 36.8817 30.0824 37.0289C29.9352 37.176 29.7357 37.2587 29.5276 37.2587Z" fill="white"/>
<path d="M33.2991 37.2587H31.5991C31.391 37.2587 31.1914 37.176 31.0443 37.0289C30.8971 36.8817 30.8145 36.6822 30.8145 36.4741C30.8145 36.266 30.8971 36.0664 31.0443 35.9193C31.1914 35.7721 31.391 35.6895 31.5991 35.6895H33.2991C33.5072 35.6895 33.7067 35.7721 33.8539 35.9193C34.001 36.0664 34.0837 36.266 34.0837 36.4741C34.0837 36.6822 34.001 36.8817 33.8539 37.0289C33.7067 37.176 33.5072 37.2587 33.2991 37.2587Z" fill="white"/>
<path d="M37.0699 37.2587H35.3647C35.1566 37.2587 34.957 37.176 34.8099 37.0289C34.6627 36.8817 34.5801 36.6822 34.5801 36.4741C34.5801 36.266 34.6627 36.0664 34.8099 35.9193C34.957 35.7721 35.1566 35.6895 35.3647 35.6895H37.0699C37.278 35.6895 37.4776 35.7721 37.6247 35.9193C37.7719 36.0664 37.8545 36.266 37.8545 36.4741C37.8545 36.6822 37.7719 36.8817 37.6247 37.0289C37.4776 37.176 37.278 37.2587 37.0699 37.2587Z" fill="white"/>
<path d="M37.0702 33.0321H20.2846C20.0765 33.0321 19.877 32.9495 19.7298 32.8023C19.5827 32.6552 19.5 32.4556 19.5 32.2475C19.5 32.0394 19.5827 31.8398 19.7298 31.6927C19.877 31.5456 20.0765 31.4629 20.2846 31.4629H37.0702C37.2782 31.4629 37.4778 31.5456 37.625 31.6927C37.7721 31.8398 37.8548 32.0394 37.8548 32.2475C37.8548 32.4556 37.7721 32.6552 37.625 32.8023C37.4778 32.9495 37.2782 33.0321 37.0702 33.0321Z" fill="white"/>
<path d="M20.4465 14.8711H46.0773L45.5542 20.5413H42.0496V54.0182H16.832V18.4803C16.832 18.0059 16.9256 17.5362 17.1073 17.0979C17.289 16.6597 17.5553 16.2616 17.891 15.9264C18.2267 15.5911 18.6252 15.3254 19.0637 15.1443C19.5022 14.9633 19.9721 14.8704 20.4465 14.8711Z" fill="white"/>
<path d="M42.05 54.797H16.8325C16.6244 54.797 16.4248 54.7144 16.2777 54.5672C16.1305 54.4201 16.0479 54.2205 16.0479 54.0124V18.4798C16.0492 17.314 16.5133 16.1964 17.3382 15.3725C18.163 14.5487 19.2811 14.0859 20.4469 14.0859H46.0777C46.186 14.087 46.293 14.1104 46.3919 14.1546C46.4908 14.1988 46.5796 14.2629 46.6527 14.3428C46.7258 14.4228 46.7817 14.517 46.8168 14.6194C46.852 14.7219 46.8657 14.8305 46.8571 14.9386L46.334 20.6139C46.3158 20.8082 46.2259 20.9887 46.0818 21.1202C45.9377 21.2518 45.7497 21.3249 45.5546 21.3253H42.8346V54.0124C42.8346 54.1154 42.8143 54.2175 42.7749 54.3127C42.7355 54.4079 42.6777 54.4944 42.6048 54.5672C42.532 54.6401 42.4455 54.6979 42.3503 54.7373C42.2551 54.7767 42.153 54.797 42.05 54.797ZM17.6171 53.2278H41.2654V20.5407C41.2654 20.3326 41.3481 20.133 41.4952 19.9859C41.6423 19.8388 41.8419 19.7561 42.05 19.7561H44.8432L45.2094 15.6552H20.4469C19.6973 15.6552 18.9783 15.9526 18.4478 16.4822C17.9172 17.0117 17.6185 17.7302 17.6171 18.4798V53.2278Z" fill="#194BED"/>
<path d="M4.39341 26.5039H30.0242L29.5116 32.1688H26.0017V65.6458H0.78418V30.1131C0.78418 29.1559 1.16444 28.2379 1.8413 27.561C2.51816 26.8842 3.43618 26.5039 4.39341 26.5039Z" fill="white"/>
<path d="M26.0022 66.4299H0.784615C0.576522 66.4299 0.376952 66.3472 0.229809 66.2001C0.0826646 66.0529 0 65.8533 0 65.6453V30.1126C0.00138431 28.9477 0.464751 27.8309 1.28846 27.0072C2.11216 26.1835 3.22895 25.7202 4.39385 25.7188H30.0246C30.1341 25.7177 30.2425 25.74 30.3426 25.7842C30.4427 25.8284 30.5323 25.8935 30.6052 25.9751C30.6789 26.0548 30.7351 26.149 30.7702 26.2517C30.8053 26.3544 30.8186 26.4633 30.8092 26.5714L30.2862 32.2416C30.2691 32.4376 30.179 32.6202 30.0336 32.7529C29.8883 32.8856 29.6984 32.9589 29.5015 32.9582H26.7868V65.6453C26.7868 65.8533 26.7041 66.0529 26.557 66.2001C26.4098 66.3472 26.2102 66.4299 26.0022 66.4299ZM1.56923 64.8606H25.2175V32.1683C25.2175 31.9602 25.3002 31.7607 25.4473 31.6135C25.5945 31.4664 25.7941 31.3837 26.0022 31.3837H28.7954L29.1615 27.2828H4.39385C4.02247 27.2828 3.65474 27.356 3.3117 27.4983C2.96866 27.6406 2.65705 27.8491 2.39469 28.1119C2.13233 28.3748 1.92438 28.6868 1.78274 29.0301C1.6411 29.3734 1.56854 29.7413 1.56923 30.1126V64.8606Z" fill="#194BED"/>
<path d="M6.15586 57.7216H4.45063C4.24254 57.7216 4.04297 57.6389 3.89582 57.4918C3.74868 57.3446 3.66602 57.1451 3.66602 56.937C3.66602 56.7289 3.74868 56.5293 3.89582 56.3822C4.04297 56.235 4.24254 56.1523 4.45063 56.1523H6.15586C6.36395 56.1523 6.56352 56.235 6.71067 56.3822C6.85781 56.5293 6.94048 56.7289 6.94048 56.937C6.94048 57.1451 6.85781 57.3446 6.71067 57.4918C6.56352 57.6389 6.36395 57.7216 6.15586 57.7216Z" fill="#FF8D67"/>
<path d="M9.93781 57.7216H8.22211C8.01402 57.7216 7.81445 57.6389 7.66731 57.4918C7.52016 57.3446 7.4375 57.1451 7.4375 56.937C7.4375 56.7289 7.52016 56.5293 7.66731 56.3822C7.81445 56.235 8.01402 56.1523 8.22211 56.1523H9.93781C10.1459 56.1523 10.3455 56.235 10.4926 56.3822C10.6398 56.5293 10.7224 56.7289 10.7224 56.937C10.7224 57.1451 10.6398 57.3446 10.4926 57.4918C10.3455 57.6389 10.1459 57.7216 9.93781 57.7216Z" fill="#FF8D67"/>
<path d="M13.6936 57.7216H11.9936C11.7855 57.7216 11.5859 57.6389 11.4388 57.4918C11.2916 57.3446 11.209 57.1451 11.209 56.937C11.209 56.7289 11.2916 56.5293 11.4388 56.3822C11.5859 56.235 11.7855 56.1523 11.9936 56.1523H13.6936C13.9017 56.1523 14.1013 56.235 14.2484 56.3822C14.3956 56.5293 14.4782 56.7289 14.4782 56.937C14.4782 57.1451 14.3956 57.3446 14.2484 57.4918C14.1013 57.6389 13.9017 57.7216 13.6936 57.7216Z" fill="#FF8D67"/>
<path d="M17.4651 57.7216H15.7651C15.557 57.7216 15.3574 57.6389 15.2103 57.4918C15.0631 57.3446 14.9805 57.1451 14.9805 56.937C14.9805 56.7289 15.0631 56.5293 15.2103 56.3822C15.3574 56.235 15.557 56.1523 15.7651 56.1523H17.4651C17.6732 56.1523 17.8727 56.235 18.0199 56.3822C18.167 56.5293 18.2497 56.7289 18.2497 56.937C18.2497 57.1451 18.167 57.3446 18.0199 57.4918C17.8727 57.6389 17.6732 57.7216 17.4651 57.7216Z" fill="#FF8D67"/>
<path d="M21.2366 57.7216H19.5366C19.3285 57.7216 19.1289 57.6389 18.9818 57.4918C18.8346 57.3446 18.752 57.1451 18.752 56.937C18.752 56.7289 18.8346 56.5293 18.9818 56.3822C19.1289 56.235 19.3285 56.1523 19.5366 56.1523H21.2366C21.4447 56.1523 21.6442 56.235 21.7914 56.3822C21.9385 56.5293 22.0212 56.7289 22.0212 56.937C22.0212 57.1451 21.9385 57.3446 21.7914 57.4918C21.6442 57.6389 21.4447 57.7216 21.2366 57.7216Z" fill="#FF8D67"/>
<path d="M21.2362 53.495H4.45063C4.24254 53.495 4.04297 53.4123 3.89582 53.2652C3.74868 53.1181 3.66602 52.9185 3.66602 52.7104C3.66602 52.5023 3.74868 52.3027 3.89582 52.1556C4.04297 52.0084 4.24254 51.9258 4.45063 51.9258H21.2362C21.4443 51.9258 21.6438 52.0084 21.791 52.1556C21.9381 52.3027 22.0208 52.5023 22.0208 52.7104C22.0208 52.9185 21.9381 53.1181 21.791 53.2652C21.6438 53.4123 21.4443 53.495 21.2362 53.495Z" fill="#FF8D67"/>
<path d="M21.2362 49.2684H4.45063C4.24254 49.2684 4.04297 49.1858 3.89582 49.0386C3.74868 48.8915 3.66602 48.6919 3.66602 48.4838C3.66602 48.2757 3.74868 48.0762 3.89582 47.929C4.04297 47.7819 4.24254 47.6992 4.45063 47.6992H21.2362C21.4443 47.6992 21.6438 47.7819 21.791 47.929C21.9381 48.0762 22.0208 48.2757 22.0208 48.4838C22.0208 48.6919 21.9381 48.8915 21.791 49.0386C21.6438 49.1858 21.4443 49.2684 21.2362 49.2684Z" fill="#FF8D67"/>
<path d="M21.2362 45.0419H4.45063C4.24254 45.0419 4.04297 44.9592 3.89582 44.8121C3.74868 44.6649 3.66602 44.4654 3.66602 44.2573C3.66602 44.0492 3.74868 43.8496 3.89582 43.7025C4.04297 43.5553 4.24254 43.4727 4.45063 43.4727H21.2362C21.4443 43.4727 21.6438 43.5553 21.791 43.7025C21.9381 43.8496 22.0208 44.0492 22.0208 44.2573C22.0208 44.4654 21.9381 44.6649 21.791 44.8121C21.6438 44.9592 21.4443 45.0419 21.2362 45.0419Z" fill="#FF8D67"/>
<path d="M30.014 26.5039C29.4869 26.5032 28.9649 26.6065 28.4778 26.8079C27.9907 27.0093 27.5482 27.3048 27.1755 27.6775C26.8028 28.0501 26.5073 28.4927 26.306 28.9798C26.1046 29.4668 26.0013 29.9889 26.002 30.5159V59.9233H38.1426L34.0312 30.5159C34.0312 29.9886 33.9272 29.4665 33.7253 28.9794C33.5233 28.4923 33.2274 28.0498 32.8543 27.6771C32.4811 27.3045 32.0383 27.0091 31.5509 26.8078C31.0635 26.6065 30.5413 26.5032 30.014 26.5039Z" fill="white"/>
<path opacity="0.5" d="M26.002 30.516V59.9234H28.722V30.516C28.7238 29.6892 28.9804 28.883 29.4568 28.2072C29.9332 27.5315 30.6063 27.0189 31.3844 26.7394C30.9468 26.581 30.4846 26.5013 30.0192 26.504C29.4917 26.5026 28.9691 26.6054 28.4814 26.8065C27.9938 27.0075 27.5506 27.3029 27.1774 27.6757C26.8041 28.0484 26.5082 28.4912 26.3064 28.9786C26.1047 29.466 26.0013 29.9885 26.002 30.516Z" fill="#FF8D67"/>
<path d="M38.0482 59.9236C39.1123 59.9236 40.1327 59.5009 40.8851 58.7485C41.6375 57.9961 42.0602 56.9757 42.0602 55.9116V30.0141C38.2731 28.5913 34.5593 27.2679 31.4365 26.7344C32.0799 26.9834 32.6512 27.3887 33.0987 27.9139C33.5462 28.439 33.8558 29.0673 33.9996 29.7421C34.0354 29.9247 34.0529 30.1104 34.0519 30.2965V55.9273C34.056 56.9859 34.4784 58 35.227 58.7485C35.9755 59.4971 36.9896 59.9195 38.0482 59.9236Z" fill="white"/>
<path d="M40.2764 57.4287C39.2757 57.3088 38.3546 56.8231 37.6903 56.0652C37.026 55.3072 36.6653 54.3304 36.6777 53.3226V32.1327C36.6828 30.8787 36.2537 29.6616 35.4632 28.688C34.6728 27.7145 33.5697 27.0446 32.3414 26.7921L31.7607 26.6875C32.4468 26.9556 33.0498 27.4001 33.5091 27.976C33.9683 28.5518 34.2674 29.2387 34.3761 29.9672V55.8647C34.3803 56.8121 34.7191 57.7276 35.3328 58.4493C35.9465 59.1711 36.7955 59.6528 37.7299 59.8093C38.6643 59.9657 39.6239 59.7869 40.4392 59.3044C41.2546 58.8219 41.8731 58.0668 42.1857 57.1724C41.5798 57.4127 40.9242 57.5007 40.2764 57.4287Z" fill="white"/>
<path d="M38.0479 60.7079C36.7753 60.7079 35.5547 60.2027 34.6544 59.3033C33.754 58.4039 33.2475 57.1839 33.2461 55.9113V30.4008C33.2461 30.1927 33.3288 29.9932 33.4759 29.846C33.623 29.6989 33.8226 29.6162 34.0307 29.6162C34.2388 29.6162 34.4384 29.6989 34.5855 29.846C34.7327 29.9932 34.8153 30.1927 34.8153 30.4008V55.9113C34.8489 56.7455 35.2039 57.5343 35.806 58.1126C36.408 58.6909 37.2105 59.0139 38.0453 59.0139C38.8802 59.0139 39.6826 58.6909 40.2847 58.1126C40.8868 57.5343 41.2418 56.7455 41.2753 55.9113V30.019C41.2753 29.8109 41.358 29.6113 41.5051 29.4642C41.6523 29.317 41.8518 29.2344 42.0599 29.2344C42.268 29.2344 42.4676 29.317 42.6147 29.4642C42.7619 29.6113 42.8446 29.8109 42.8446 30.019V55.9113C42.8432 57.183 42.3374 58.4022 41.4381 59.3015C40.5389 60.2007 39.3197 60.7065 38.0479 60.7079Z" fill="#194BED"/>
<path d="M46.0778 14.8711C45.0123 14.8711 43.9905 15.2943 43.2372 16.0477C42.4838 16.8011 42.0605 17.8229 42.0605 18.8883V44.0274H54.2012C50.8273 43.5043 49.4359 41.412 50.1316 37.6877L50.4559 18.904C50.4559 16.6862 48.2956 14.8711 46.0778 14.8711Z" fill="white"/>
<path opacity="0.5" d="M42.0498 18.8884V44.0275H44.7698V18.8884C44.7694 18.0611 45.0245 17.2539 45.5001 16.577C45.9757 15.9002 46.6486 15.3866 47.427 15.1065C46.9894 14.9481 46.5272 14.8685 46.0618 14.8712C45.5345 14.8712 45.0124 14.9751 44.5253 15.1771C44.0382 15.379 43.5957 15.675 43.223 16.0481C42.8504 16.4212 42.555 16.8641 42.3537 17.3515C42.1524 17.8388 42.0491 18.3611 42.0498 18.8884Z" fill="#FF8D67"/>
<path d="M54.2013 44.8117H42.0607C41.8526 44.8117 41.653 44.7291 41.5059 44.5819C41.3587 44.4348 41.2761 44.2352 41.2761 44.0271V18.888C41.2548 18.2445 41.3632 17.6032 41.5948 17.0024C41.8264 16.4015 42.1765 15.8534 42.6243 15.3907C43.072 14.9279 43.6083 14.5599 44.2012 14.3086C44.794 14.0572 45.4314 13.9277 46.0753 13.9277C46.7192 13.9277 47.3566 14.0572 47.9494 14.3086C48.5423 14.5599 49.0785 14.9279 49.5263 15.3907C49.974 15.8534 50.3241 16.4015 50.5557 17.0024C50.7874 17.6032 50.8958 18.2445 50.8745 18.888C50.8745 19.0961 50.7919 19.2957 50.6447 19.4429C50.4976 19.59 50.298 19.6727 50.0899 19.6727C49.8818 19.6727 49.6822 19.59 49.5351 19.4429C49.3879 19.2957 49.3053 19.0961 49.3053 18.888C49.3228 18.4529 49.2522 18.0188 49.0978 17.6116C48.9434 17.2045 48.7083 16.8327 48.4066 16.5187C48.1049 16.2046 47.7429 15.9548 47.3423 15.7841C46.9417 15.6134 46.5107 15.5254 46.0753 15.5254C45.6398 15.5254 45.2089 15.6134 44.8082 15.7841C44.4076 15.9548 44.0456 16.2046 43.744 16.5187C43.4423 16.8327 43.2072 17.2045 43.0528 17.6116C42.8983 18.0188 42.8278 18.4529 42.8453 18.888V43.2425H54.149C54.2559 43.2354 54.3631 43.2502 54.4641 43.2861C54.5651 43.322 54.6576 43.3782 54.736 43.4512C54.8144 43.5242 54.8771 43.6125 54.92 43.7107C54.963 43.8088 54.9854 43.9147 54.9859 44.0219C54.9866 44.1254 54.9668 44.228 54.9277 44.3238C54.8886 44.4196 54.8309 44.5067 54.7579 44.5801C54.685 44.6535 54.5983 44.7118 54.5028 44.7515C54.4072 44.7913 54.3048 44.8117 54.2013 44.8117Z" fill="#194BED"/>
<path d="M54.1065 44.812C52.8343 44.8106 51.6146 44.305 50.7145 43.4059C49.8144 42.5068 49.3075 41.2876 49.3047 40.0154V18.7209C49.3047 18.5129 49.3874 18.3133 49.5345 18.1661C49.6816 18.019 49.8812 17.9363 50.0893 17.9363C50.2974 17.9363 50.497 18.019 50.6441 18.1661C50.7913 18.3133 50.8739 18.5129 50.8739 18.7209V40.0154C50.8564 40.4505 50.927 40.8847 51.0814 41.2918C51.2358 41.699 51.4709 42.0707 51.7726 42.3848C52.0743 42.6988 52.4363 42.9487 52.8369 43.1194C53.2375 43.2901 53.6685 43.378 54.1039 43.378C54.5394 43.378 54.9703 43.2901 55.371 43.1194C55.7716 42.9487 56.1336 42.6988 56.4352 42.3848C56.7369 42.0707 56.972 41.699 57.1264 41.2918C57.2809 40.8847 57.3514 40.4505 57.3339 40.0154V18.3862C57.3339 18.1781 57.4166 17.9785 57.5637 17.8314C57.7109 17.6842 57.9104 17.6016 58.1185 17.6016C58.3266 17.6016 58.5262 17.6842 58.6733 17.8314C58.8205 17.9785 58.9031 18.1781 58.9031 18.3862V40.0154C58.9018 41.2871 58.396 42.5064 57.4967 43.4056C56.5975 44.3048 55.3782 44.8106 54.1065 44.812Z" fill="#194BED"/>
<path d="M66.1581 13.3373V4.80589C66.1206 3.76622 65.6812 2.78166 64.9324 2.05942C64.1836 1.33718 63.1839 0.933594 62.1435 0.933594C61.1032 0.933594 60.1034 1.33718 59.3546 2.05942C58.6058 2.78166 58.1664 3.76622 58.1289 4.80589V13.3373H66.1581Z" fill="white"/>
<path opacity="0.5" d="M60.8597 13.3371V4.79527C60.8611 3.96908 61.1169 3.16337 61.5924 2.48768C62.0678 1.81198 62.7397 1.29906 63.5169 1.01865C63.0793 0.860256 62.6171 0.780565 62.1517 0.78327C61.6246 0.782581 61.1026 0.885885 60.6155 1.08726C60.1284 1.28864 59.6859 1.58414 59.3132 1.95682C58.9405 2.32951 58.645 2.77206 58.4436 3.25913C58.2423 3.7462 58.139 4.26821 58.1397 4.79527V13.3371H60.8597Z" fill="#FF8D67"/>
<path d="M66.1423 14.1117H58.1393C57.9312 14.1117 57.7316 14.0291 57.5845 13.8819C57.4373 13.7348 57.3546 13.5352 57.3546 13.3271V4.79573C57.3958 3.55031 57.9194 2.36966 58.815 1.5032C59.7105 0.636743 60.9078 0.152344 62.1539 0.152344C63.4 0.152344 64.5973 0.636743 65.4928 1.5032C66.3883 2.36966 66.912 3.55031 66.9531 4.79573V13.3376C66.9518 13.442 66.9296 13.545 66.8879 13.6408C66.8463 13.7365 66.7859 13.8229 66.7104 13.895C66.6349 13.9671 66.5458 14.0234 66.4482 14.0606C66.3507 14.0978 66.2467 14.1152 66.1423 14.1117ZM58.9239 12.5425H65.3839V4.79573C65.3503 3.96157 64.9953 3.17274 64.3932 2.59442C63.7912 2.0161 62.9887 1.69312 62.1539 1.69312C61.319 1.69312 60.5166 2.0161 59.9145 2.59442C59.3124 3.17274 58.9575 3.96157 58.9239 4.79573V12.5425ZM38.1368 60.7074H26.0014C25.7933 60.7074 25.5938 60.6247 25.4466 60.4776C25.2995 60.3305 25.2168 60.1309 25.2168 59.9228V30.5154C25.2579 29.27 25.7816 28.0894 26.6771 27.2229C27.5726 26.3564 28.7699 25.872 30.016 25.872C31.2621 25.872 32.4594 26.3564 33.355 27.2229C34.2505 28.0894 34.7741 29.27 34.8153 30.5154C34.8153 30.7235 34.7326 30.9231 34.5855 31.0702C34.4383 31.2174 34.2387 31.3 34.0306 31.3C33.8225 31.3 33.623 31.2174 33.4758 31.0702C33.3287 30.9231 33.246 30.7235 33.246 30.5154C33.2125 29.6813 32.8575 28.8924 32.2554 28.3141C31.6533 27.7358 30.8509 27.4128 30.016 27.4128C29.1812 27.4128 28.3787 27.7358 27.7767 28.3141C27.1746 28.8924 26.8196 29.6813 26.786 30.5154V59.1382H38.0897C38.1964 59.131 38.3034 59.1459 38.4041 59.1818C38.5047 59.2177 38.597 59.274 38.675 59.3471C38.753 59.4202 38.8151 59.5086 38.8575 59.6067C38.8999 59.7049 38.9217 59.8107 38.9214 59.9176C38.9221 60.021 38.9023 60.1236 38.8632 60.2194C38.8241 60.3152 38.7664 60.4023 38.6935 60.4758C38.6205 60.5492 38.5338 60.6074 38.4383 60.6472C38.3427 60.687 38.2403 60.7074 38.1368 60.7074Z" fill="#194BED"/>
<path d="M37.7028 20.9755H20.9643C20.7562 20.9755 20.5566 20.8928 20.4095 20.7457C20.2624 20.5986 20.1797 20.399 20.1797 20.1909C20.1797 19.9828 20.2624 19.7832 20.4095 19.6361C20.5566 19.4889 20.7562 19.4063 20.9643 19.4063H37.7028C37.9109 19.4063 38.1104 19.4889 38.2576 19.6361C38.4047 19.7832 38.4874 19.9828 38.4874 20.1909C38.4874 20.399 38.4047 20.5986 38.2576 20.7457C38.1104 20.8928 37.9109 20.9755 37.7028 20.9755ZM37.7028 24.4017H20.9643C20.7562 24.4017 20.5566 24.319 20.4095 24.1719C20.2624 24.0247 20.1797 23.8251 20.1797 23.6171C20.1797 23.409 20.2624 23.2094 20.4095 23.0622C20.5566 22.9151 20.7562 22.8324 20.9643 22.8324H37.7028C37.9109 22.8324 38.1104 22.9151 38.2576 23.0622C38.4047 23.2094 38.4874 23.409 38.4874 23.6171C38.4874 23.8251 38.4047 24.0247 38.2576 24.1719C38.1104 24.319 37.9109 24.4017 37.7028 24.4017ZM53.8763 7.30751H37.1378C36.9297 7.30751 36.7302 7.22485 36.583 7.0777C36.4359 6.93056 36.3532 6.73099 36.3532 6.5229C36.3532 6.3148 36.4359 6.11523 36.583 5.96809C36.7302 5.82095 36.9297 5.73828 37.1378 5.73828H53.8763C54.0844 5.73828 54.284 5.82095 54.4311 5.96809C54.5783 6.11523 54.6609 6.3148 54.6609 6.5229C54.6609 6.73099 54.5783 6.93056 54.4311 7.0777C54.284 7.22485 54.0844 7.30751 53.8763 7.30751ZM53.8763 10.7232H37.1378C36.9297 10.7232 36.7302 10.6405 36.583 10.4934C36.4359 10.3463 36.3532 10.1467 36.3532 9.93859C36.3532 9.7305 36.4359 9.53093 36.583 9.38378C36.7302 9.23664 36.9297 9.15397 37.1378 9.15397H53.8763C54.0844 9.15397 54.284 9.23664 54.4311 9.38378C54.5783 9.53093 54.6609 9.7305 54.6609 9.93859C54.6609 10.1467 54.5783 10.3463 54.4311 10.4934C54.284 10.6405 54.0844 10.7232 53.8763 10.7232Z" fill="white"/>
<path d="M9.1846 34.5595H4.34614C4.13805 34.5595 3.93848 34.4768 3.79133 34.3297C3.64419 34.1825 3.56152 33.9829 3.56152 33.7748C3.56152 33.5668 3.64419 33.3672 3.79133 33.22C3.93848 33.0729 4.13805 32.9902 4.34614 32.9902H9.1846C9.39269 32.9902 9.59226 33.0729 9.73941 33.22C9.88655 33.3672 9.96922 33.5668 9.96922 33.7748C9.96922 33.9829 9.88655 34.1825 9.73941 34.3297C9.59226 34.4768 9.39269 34.5595 9.1846 34.5595Z" fill="#194BED"/>
<path d="M6.76801 40.0143C6.55992 40.0143 6.36035 39.9316 6.21321 39.7845C6.06606 39.6374 5.9834 39.4378 5.9834 39.2297V33.9257C5.9834 33.7176 6.06606 33.518 6.21321 33.3709C6.36035 33.2237 6.55992 33.1411 6.76801 33.1411C6.97611 33.1411 7.17568 33.2237 7.32282 33.3709C7.46996 33.518 7.55263 33.7176 7.55263 33.9257V39.2402C7.54988 39.4464 7.466 39.6433 7.31915 39.7882C7.17231 39.9331 6.97431 40.0143 6.76801 40.0143ZM14.3945 40.0143C14.2409 40.0137 14.0908 39.9684 13.9626 39.8839C13.8344 39.7993 13.7336 39.6792 13.6726 39.5383L12.0302 35.7669L10.4086 39.5488C10.3268 39.7402 10.1722 39.8913 9.97898 39.9688C9.78573 40.0463 9.56961 40.0439 9.37817 39.962C9.18672 39.8802 9.03563 39.7256 8.95814 39.5324C8.88064 39.3391 8.88309 39.123 8.96494 38.9315L11.3083 33.4654C11.3686 33.3239 11.4692 33.2032 11.5975 33.1183C11.7259 33.0335 11.8763 32.9883 12.0302 32.9883C12.184 32.9883 12.3345 33.0335 12.4628 33.1183C12.5911 33.2032 12.6917 33.3239 12.752 33.4654L15.1163 38.9315C15.1601 39.0271 15.1841 39.1304 15.187 39.2355C15.1898 39.3405 15.1713 39.445 15.1327 39.5427C15.0941 39.6404 15.0362 39.7294 14.9624 39.8041C14.8885 39.8789 14.8003 39.9379 14.7031 39.9777C14.6036 40.0101 14.4988 40.0225 14.3945 40.0143Z" fill="#194BED"/>
<path d="M13.2229 37.3686H10.8481C10.64 37.3686 10.4404 37.2859 10.2933 37.1388C10.1461 36.9916 10.0635 36.7921 10.0635 36.584C10.0635 36.3759 10.1461 36.1763 10.2933 36.0292C10.4404 35.882 10.64 35.7994 10.8481 35.7994H13.2229C13.431 35.7994 13.6305 35.882 13.7777 36.0292C13.9248 36.1763 14.0075 36.3759 14.0075 36.584C14.0075 36.7921 13.9248 36.9916 13.7777 37.1388C13.6305 37.2859 13.431 37.3686 13.2229 37.3686ZM20.5721 40.0153C20.4564 40.0159 20.342 39.9909 20.2371 39.9421C20.1322 39.8932 20.0394 39.8218 19.9653 39.7329L15.5453 34.4289C15.465 34.3529 15.4017 34.2609 15.3594 34.1588C15.3172 34.0566 15.297 33.9467 15.3002 33.8362C15.3033 33.7257 15.3298 33.6172 15.3779 33.5177C15.426 33.4181 15.4945 33.3299 15.5791 33.2587C15.6636 33.1875 15.7622 33.1349 15.8685 33.1045C15.9747 33.0741 16.0862 33.0665 16.1956 33.0821C16.3051 33.0978 16.4099 33.1364 16.5034 33.1954C16.5968 33.2544 16.6768 33.3325 16.7379 33.4246L21.1632 38.739C21.2961 38.8987 21.3603 39.1045 21.3416 39.3114C21.323 39.5183 21.2231 39.7094 21.0638 39.8427C20.9252 39.9561 20.7512 40.0172 20.5721 40.0153Z" fill="#194BED"/>
<path d="M16.1471 40.0148C15.9559 40.0215 15.7693 39.9561 15.624 39.8318C15.5445 39.7661 15.4788 39.6854 15.4308 39.5943C15.3827 39.5031 15.3532 39.4033 15.344 39.3007C15.3347 39.198 15.3459 39.0946 15.3769 38.9963C15.4079 38.898 15.4581 38.8068 15.5246 38.7281L19.9655 33.4241C20.0987 33.2638 20.2901 33.1631 20.4976 33.1439C20.705 33.1248 20.9116 33.1889 21.0718 33.3221C21.2321 33.4552 21.3328 33.6466 21.352 33.8541C21.3711 34.0616 21.307 34.2681 21.1738 34.4284L16.7381 39.7428C16.6655 39.8286 16.5749 39.8974 16.4728 39.9444C16.3707 39.9914 16.2595 40.0155 16.1471 40.0148Z" fill="#194BED"/>
</svg>
