<svg width="46" height="47" viewBox="0 0 46 47" fill="none" xmlns="http://www.w3.org/2000/svg">
<path d="M27.2139 24.4395C27.2139 26.1998 25.7867 27.627 24.0264 27.627C22.266 27.627 20.8389 26.1998 20.8389 24.4395C20.8389 22.6791 22.266 21.252 24.0264 21.252C25.7867 21.252 27.2139 22.6791 27.2139 24.4395Z" fill="#194BED"/>
<path d="M32.5264 19.1269C34.2867 19.1269 35.7139 17.6999 35.7139 15.9395C35.7139 14.1791 34.2867 12.752 32.5264 12.752C30.766 12.752 29.3389 14.1791 29.3389 15.9395C29.3389 17.6999 30.766 19.1269 32.5264 19.1269Z" fill="#194BED"/>
<path d="M25.0889 11.6895C25.0889 13.4499 23.6617 14.877 21.9014 14.877C20.141 14.877 18.7139 13.4499 18.7139 11.6895C18.7139 9.92906 20.141 8.50195 21.9014 8.50195C23.6617 8.50195 25.0889 9.92906 25.0889 11.6895Z" fill="#194BED"/>
<path d="M13.4014 23.3769C15.1618 23.3769 16.5889 21.9498 16.5889 20.1894C16.5889 18.4291 15.1618 17.002 13.4014 17.002C11.641 17.002 10.2139 18.4291 10.2139 20.1894C10.2139 21.9498 11.641 23.3769 13.4014 23.3769Z" fill="#FF8D67"/>
<path d="M27.2139 35.0645C27.2139 36.8248 25.7867 38.252 24.0264 38.252C22.266 38.252 20.8389 36.8248 20.8389 35.0645C20.8389 33.3041 22.266 31.877 24.0264 31.877C25.7867 31.877 27.2139 33.3041 27.2139 35.0645Z" fill="#FF8D67"/>
<path d="M13.4014 34.002C15.1618 34.002 16.5889 32.5748 16.5889 30.8145C16.5889 29.0541 15.1618 27.627 13.4014 27.627C11.641 27.627 10.2139 29.0541 10.2139 30.8145C10.2139 32.5748 11.641 34.002 13.4014 34.002Z" fill="#194BED"/>
<path fill-rule="evenodd" clip-rule="evenodd" d="M21.9045 0.0481116C30.1988 -0.441497 39.0361 2.81548 43.8069 9.37508C45.2938 11.4192 45.9619 14.1031 45.5923 16.6431C45.2143 19.2408 43.7319 21.743 40.9137 23.1519C39.1961 24.0108 37.3562 25.3876 36.2236 26.9205C35.1095 28.4289 34.8929 29.7334 35.489 30.926C36.6125 33.1727 37.6034 35.9682 37.4359 38.6495C37.3494 40.0307 36.9519 41.4271 36.067 42.6708C35.1796 43.9178 33.8961 44.8793 32.2526 45.5368C28.5086 47.0343 24.2977 47.1002 20.4306 46.37C16.5582 45.6386 12.8587 44.078 10.0573 42.1173C5.97547 39.26 2.72182 35.465 1.10503 30.6996C-0.517 25.9186 -0.420287 20.3694 1.84141 14.1494C5.20594 4.89645 13.5337 0.542259 21.9045 0.0481116ZM22.1551 4.29074C15.0284 4.71142 8.48116 8.32594 5.83556 15.6017C3.8472 21.07 3.8679 25.6149 5.12972 29.3341C6.39679 33.0688 8.98689 36.1802 12.4945 38.6355C14.7695 40.2279 17.8993 41.5669 21.2192 42.1938C24.5448 42.8219 27.8894 42.7048 30.6742 41.5907C32.1179 41.0133 33.095 39.9721 33.1942 38.3843C33.2922 36.8156 32.6893 34.83 31.6878 32.8266C30.1117 29.6743 31.1536 26.6311 32.8053 24.3952C34.4388 22.1841 36.8726 20.4208 39.0131 19.3507C40.4449 18.6347 41.1846 17.418 41.3865 16.0311C41.5967 14.5863 41.2025 13.0196 40.3699 11.8749C36.6408 6.74762 29.3582 3.86553 22.1551 4.29074Z" fill="#849FF6"/>
</svg>
