<svg width="43" height="43" viewBox="0 0 43 43" fill="none" xmlns="http://www.w3.org/2000/svg">
<path d="M18.5696 5.1348C19.8644 2.86593 23.1356 2.86593 24.4304 5.1348C25.2927 6.64587 27.1627 7.25345 28.7485 6.53785C31.1296 5.46337 33.776 7.38608 33.4899 9.98271C33.2994 11.7121 34.4551 13.3027 36.1587 13.6559C38.7166 14.1863 39.7275 17.2973 37.9698 19.2298C36.7991 20.5169 36.7991 22.4831 37.9698 23.7702C39.7275 25.7027 38.7166 28.8137 36.1587 29.3441C34.4551 29.6973 33.2994 31.2879 33.4899 33.0173C33.776 35.6139 31.1296 37.5366 28.7485 36.4622C27.1627 35.7466 25.2927 36.3541 24.4304 37.8652C23.1356 40.1341 19.8644 40.1341 18.5696 37.8652C17.7073 36.3541 15.8373 35.7466 14.2515 36.4622C11.8704 37.5366 9.22398 35.6139 9.51006 33.0173C9.70058 31.2879 8.54489 29.6973 6.84131 29.3441C4.28336 28.8137 3.27253 25.7027 5.03024 23.7702C6.20086 22.4831 6.20086 20.5169 5.03024 19.2298C3.27253 17.2973 4.28336 14.1863 6.84131 13.6559C8.54489 13.3027 9.70058 11.7121 9.51006 9.98271C9.22398 7.38608 11.8704 5.46337 14.2515 6.53785C15.8373 7.25345 17.7073 6.64587 18.5696 5.1348Z" fill="url(#paint0_linear_2844_54286)"/>
<path d="M28.5 15.5L20 29L15 24" stroke="white" stroke-width="3" stroke-linecap="round" stroke-linejoin="round"/>
<defs>
<linearGradient id="paint0_linear_2844_54286" x1="17" y1="-5.5" x2="20.5" y2="42.5" gradientUnits="userSpaceOnUse">
<stop offset="0.349447" stop-color="#14752E"/>
<stop offset="0.916667" stop-color="#84F69F"/>
</linearGradient>
</defs>
</svg>
