<svg width="23" height="23" viewBox="0 0 23 23" fill="none" xmlns="http://www.w3.org/2000/svg">
<path d="M9.1985 1.37515C9.80152 -0.458402 12.3953 -0.458399 12.9983 1.37515L14.6189 6.30278C14.8173 6.90615 15.2906 7.3794 15.8939 7.57783L20.8216 9.19844C22.6551 9.80146 22.6551 12.3952 20.8216 12.9982L15.8939 14.6188C15.2906 14.8173 14.8173 15.2905 14.6189 15.8939L12.9983 20.8215C12.3953 22.6551 9.80152 22.6551 9.1985 20.8215L7.57789 15.8939C7.37946 15.2905 6.90621 14.8173 6.30284 14.6188L1.37521 12.9982C-0.458341 12.3952 -0.458338 9.80146 1.37521 9.19844L6.30284 7.57783C6.90621 7.3794 7.37946 6.90615 7.57789 6.30278L9.1985 1.37515Z" fill="white"/>
</svg>
