<svg width="254" height="187" viewBox="0 0 254 187" fill="none" xmlns="http://www.w3.org/2000/svg">
<path d="M5.22998 17.2543C5.24679 17.0387 5.36783 16.8534 5.45188 16.656C5.97974 15.417 6.51768 14.178 7.05225 12.939C7.07579 12.8874 7.10605 12.8388 7.13295 12.7902C8.3534 12.5594 9.57385 12.3256 10.7943 12.0948C11.4297 11.9733 12.0652 11.8549 12.7006 11.7334C12.7074 11.7911 12.6569 11.8032 12.6267 11.8245C10.1992 13.6162 7.76839 15.4079 5.33757 17.1996C5.30731 17.2209 5.28041 17.2603 5.22998 17.2543Z" fill="#CCD8FF"/>
<path d="M5.57518 17.2139C5.52911 17.266 5.4666 17.2515 5.40738 17.2515C4.14724 17.2515 2.8871 17.2515 1.62696 17.2544C1.50522 17.2544 1.46245 17.2515 1.51838 17.127C3.8248 12.1274 6.12464 7.12493 8.42776 2.12535C8.43434 2.10797 8.44421 2.09059 8.45409 2.07031C8.52318 2.11087 8.53305 2.17749 8.55937 2.23252C9.18451 3.48097 9.80635 4.72942 10.4315 5.97786C10.4743 6.06186 10.4644 6.12849 10.4282 6.20959C9.46088 8.39075 8.49686 10.5748 7.53283 12.756C7.5098 12.8081 7.49335 12.866 7.47361 12.9211C7.44729 12.9674 7.41768 13.0138 7.39465 13.063C6.87151 14.2448 6.34508 15.4267 5.82523 16.6114C5.74298 16.7968 5.62782 16.9764 5.60808 17.182C5.58176 17.1762 5.57518 17.1936 5.57518 17.2139Z" fill="#CCD8FF"/>
<path d="M14.3192 4.18274C14.5538 4.69988 14.795 5.21407 15.0263 5.73121C16.7247 9.50984 18.4232 13.2885 20.1183 17.0671C20.1249 17.0847 20.1315 17.1053 20.1414 17.1229C20.2075 17.2287 20.1646 17.2463 20.0423 17.2463C18.78 17.2463 17.5211 17.2493 16.2588 17.2552C16.1366 17.2552 16.0903 17.217 16.0507 17.1229C14.2894 13.0358 12.5282 8.94863 10.7604 4.86442C10.6613 4.63817 10.539 4.4178 10.4597 4.18274C10.4729 4.17098 10.4895 4.15923 10.5027 4.14748C10.9785 4.14454 11.4576 4.1416 11.9335 4.1416C12.7133 4.1416 13.4898 4.14454 14.2696 4.14748C14.2894 4.15923 14.306 4.17098 14.3192 4.18274Z" fill="#CCD8FF"/>
<path d="M8.96558 0C10.1881 0 11.4072 0.0028057 12.6297 0.0028057C12.715 0.0028057 12.8004 0.0056113 12.8858 0.0056113C13.3126 0.883776 13.7395 1.76475 14.1732 2.64291C14.2176 2.7355 14.2005 2.76075 14.0776 2.76075C12.8448 2.75794 11.6086 2.75794 10.3759 2.76075C10.2974 2.76075 10.2393 2.75514 10.2052 2.68219C9.79538 1.79561 9.38218 0.911832 8.96899 0.0280564C8.96558 0.0196395 8.96899 0.0112226 8.96558 0Z" fill="#CCD8FF"/>
<path d="M56.0347 18.0013C56.0515 17.7857 56.1725 17.6005 56.2566 17.4031C56.7844 16.1641 57.3224 14.9251 57.8569 13.6861C57.8805 13.6344 57.9107 13.5859 57.9376 13.5373C59.1581 13.3065 60.3785 13.0726 61.599 12.8418C62.2344 12.7204 62.8699 12.6019 63.5053 12.4805C63.512 12.5382 63.4616 12.5503 63.4314 12.5716C61.0039 14.3633 58.5731 16.155 56.1423 17.9467C56.112 17.9679 56.0851 18.0074 56.0347 18.0013Z" fill="#CCD8FF"/>
<path d="M56.3799 17.9609C56.3338 18.0131 56.2713 17.9986 56.2121 17.9986C54.9519 17.9986 53.6918 17.9986 52.4316 18.0015C52.3099 18.0015 52.2671 17.9986 52.3231 17.874C54.6295 12.8745 56.9293 7.872 59.2325 2.87242C59.239 2.85504 59.2489 2.83766 59.2588 2.81738C59.3279 2.85794 59.3377 2.92456 59.3641 2.97959C59.9892 4.22804 60.611 5.47649 61.2362 6.72493C61.2789 6.80893 61.2691 6.87556 61.2329 6.95666C60.2656 9.13782 59.3015 11.3219 58.3375 13.503C58.3145 13.5552 58.298 13.6131 58.2783 13.6681C58.252 13.7145 58.2224 13.7608 58.1993 13.8101C57.6762 14.9919 57.1498 16.1737 56.6299 17.3584C56.5477 17.5438 56.4325 17.7234 56.4128 17.9291C56.3864 17.9233 56.3799 17.9407 56.3799 17.9609Z" fill="#CCD8FF"/>
<path d="M65.1239 4.92981C65.3585 5.44695 65.5997 5.96115 65.831 6.47828C67.5294 10.2569 69.2279 14.0355 70.923 17.8142C70.9296 17.8318 70.9362 17.8524 70.9461 17.87C71.0122 17.9758 70.9693 17.9934 70.847 17.9934C69.5847 17.9934 68.3258 17.9963 67.0635 18.0022C66.9413 18.0022 66.895 17.964 66.8553 17.87C65.0941 13.7829 63.3329 9.6957 61.5651 5.61149C61.466 5.38524 61.3437 5.16487 61.2644 4.92981C61.2776 4.91805 61.2941 4.9063 61.3074 4.89455C61.7832 4.89161 62.2623 4.88867 62.7381 4.88867C63.518 4.88867 64.2945 4.89161 65.0743 4.89455C65.0941 4.9063 65.1107 4.91805 65.1239 4.92981Z" fill="#CCD8FF"/>
<path d="M59.77 0.74707C60.9925 0.74707 62.2116 0.749876 63.4341 0.749876C63.5195 0.749876 63.6049 0.752682 63.6902 0.752682C64.1171 1.63085 64.5439 2.51182 64.9776 3.38998C65.022 3.48257 65.0049 3.50782 64.882 3.50782C63.6493 3.50501 62.4131 3.50501 61.1803 3.50782C61.1018 3.50782 61.0437 3.50221 61.0096 3.42926C60.5998 2.54268 60.1866 1.6589 59.7734 0.775127C59.77 0.76671 59.7734 0.758293 59.77 0.74707Z" fill="#CCD8FF"/>
<path d="M106.839 18.0013C106.856 17.7857 106.977 17.6005 107.061 17.4031C107.589 16.1641 108.127 14.9251 108.662 13.6861C108.685 13.6344 108.715 13.5859 108.742 13.5373C109.963 13.3065 111.183 13.0726 112.404 12.8418C113.039 12.7204 113.675 12.6019 114.31 12.4805C114.317 12.5382 114.266 12.5503 114.236 12.5716C111.809 14.3633 109.378 16.155 106.947 17.9467C106.917 17.9679 106.89 18.0074 106.839 18.0013Z" fill="#CCD8FF"/>
<path d="M107.185 17.9609C107.138 18.0131 107.076 17.9986 107.017 17.9986C105.757 17.9986 104.496 17.9986 103.236 18.0015C103.115 18.0015 103.072 17.9986 103.128 17.874C105.434 12.8745 107.734 7.872 110.037 2.87242C110.044 2.85504 110.054 2.83766 110.063 2.81738C110.133 2.85794 110.142 2.92456 110.169 2.97959C110.794 4.22804 111.416 5.47649 112.041 6.72493C112.084 6.80893 112.074 6.87556 112.038 6.95666C111.07 9.13782 110.106 11.3219 109.142 13.503C109.119 13.5552 109.103 13.6131 109.083 13.6681C109.057 13.7145 109.027 13.7608 109.004 13.8101C108.481 14.9919 107.954 16.1737 107.435 17.3584C107.352 17.5438 107.237 17.7234 107.217 17.9291C107.191 17.9233 107.185 17.9407 107.185 17.9609Z" fill="#CCD8FF"/>
<path d="M115.929 4.92981C116.163 5.44695 116.404 5.96115 116.636 6.47828C118.334 10.2569 120.033 14.0355 121.728 17.8142C121.734 17.8318 121.741 17.8524 121.751 17.87C121.817 17.9758 121.774 17.9934 121.652 17.9934C120.389 17.9934 119.13 17.9963 117.868 18.0022C117.746 18.0022 117.7 17.964 117.66 17.87C115.899 13.7829 114.138 9.6957 112.37 5.61149C112.271 5.38524 112.148 5.16487 112.069 4.92981C112.082 4.91805 112.099 4.9063 112.112 4.89455C112.588 4.89161 113.067 4.88867 113.543 4.88867C114.323 4.88867 115.099 4.89161 115.879 4.89455C115.899 4.9063 115.915 4.91805 115.929 4.92981Z" fill="#CCD8FF"/>
<path d="M110.575 0.74707C111.797 0.74707 113.016 0.749876 114.239 0.749876C114.324 0.749876 114.41 0.752682 114.495 0.752682C114.922 1.63085 115.349 2.51182 115.782 3.38998C115.827 3.48257 115.81 3.50782 115.687 3.50782C114.454 3.50501 113.218 3.50501 111.985 3.50782C111.906 3.50782 111.848 3.50221 111.814 3.42926C111.405 2.54268 110.991 1.6589 110.578 0.775127C110.575 0.76671 110.578 0.758293 110.575 0.74707Z" fill="#CCD8FF"/>
<path d="M157.644 17.2543C157.66 17.0387 157.781 16.8534 157.865 16.656C158.393 15.417 158.931 14.178 159.466 12.939C159.489 12.8874 159.52 12.8388 159.547 12.7902C160.767 12.5594 161.987 12.3256 163.208 12.0948C163.843 11.9733 164.479 11.8549 165.114 11.7334C165.121 11.7911 165.07 11.8032 165.04 11.8245C162.613 13.6162 160.182 15.4079 157.751 17.1996C157.721 17.2209 157.694 17.2603 157.644 17.2543Z" fill="#CCD8FF"/>
<path d="M157.989 17.2139C157.943 17.266 157.88 17.2515 157.821 17.2515C156.561 17.2515 155.301 17.2515 154.041 17.2544C153.919 17.2544 153.876 17.2515 153.932 17.127C156.239 12.1274 158.538 7.12493 160.842 2.12535C160.848 2.10797 160.858 2.09059 160.868 2.07031C160.937 2.11087 160.947 2.17749 160.973 2.23252C161.598 3.48097 162.22 4.72942 162.845 5.97786C162.888 6.06186 162.878 6.12849 162.842 6.20959C161.875 8.39075 160.911 10.5748 159.947 12.756C159.924 12.8081 159.907 12.866 159.887 12.9211C159.861 12.9674 159.831 13.0138 159.808 13.063C159.285 14.2448 158.759 15.4267 158.239 16.6114C158.157 16.7968 158.042 16.9764 158.022 17.182C157.996 17.1762 157.989 17.1936 157.989 17.2139Z" fill="#CCD8FF"/>
<path d="M166.733 4.18274C166.968 4.69988 167.209 5.21407 167.44 5.73121C169.139 9.50984 170.837 13.2885 172.532 17.0671C172.539 17.0847 172.545 17.1053 172.555 17.1229C172.621 17.2287 172.578 17.2463 172.456 17.2463C171.194 17.2463 169.935 17.2493 168.673 17.2552C168.55 17.2552 168.504 17.217 168.464 17.1229C166.703 13.0358 164.942 8.94863 163.174 4.86442C163.075 4.63817 162.953 4.4178 162.874 4.18274C162.887 4.17098 162.903 4.15923 162.916 4.14748C163.392 4.14454 163.871 4.1416 164.347 4.1416C165.127 4.1416 165.904 4.14454 166.683 4.14748C166.703 4.15923 166.72 4.17098 166.733 4.18274Z" fill="#CCD8FF"/>
<path d="M161.379 0C162.602 0 163.821 0.0028057 165.043 0.0028057C165.129 0.0028057 165.214 0.0056113 165.3 0.0056113C165.726 0.883776 166.153 1.76475 166.587 2.64291C166.631 2.7355 166.614 2.76075 166.491 2.76075C165.259 2.75794 164.022 2.75794 162.79 2.76075C162.711 2.76075 162.653 2.75514 162.619 2.68219C162.209 1.79561 161.796 0.911832 161.383 0.0280564C161.379 0.0196395 161.383 0.0112226 161.379 0Z" fill="#CCD8FF"/>
<path d="M208.448 17.2543C208.465 17.0387 208.586 16.8534 208.67 16.656C209.198 15.417 209.736 14.178 210.271 12.939C210.294 12.8874 210.324 12.8388 210.351 12.7902C211.572 12.5594 212.792 12.3256 214.013 12.0948C214.648 11.9733 215.283 11.8549 215.919 11.7334C215.926 11.7911 215.875 11.8032 215.845 11.8245C213.417 13.6162 210.987 15.4079 208.556 17.1996C208.526 17.2209 208.499 17.2603 208.448 17.2543Z" fill="#CCD8FF"/>
<path d="M208.794 17.2139C208.748 17.266 208.685 17.2515 208.626 17.2515C207.366 17.2515 206.106 17.2515 204.845 17.2544C204.724 17.2544 204.681 17.2515 204.737 17.127C207.043 12.1274 209.343 7.12493 211.646 2.12535C211.653 2.10797 211.663 2.09059 211.673 2.07031C211.742 2.11087 211.752 2.17749 211.778 2.23252C212.403 3.48097 213.025 4.72942 213.65 5.97786C213.693 6.06186 213.683 6.12849 213.647 6.20959C212.679 8.39075 211.715 10.5748 210.751 12.756C210.728 12.8081 210.712 12.866 210.692 12.9211C210.666 12.9674 210.636 13.0138 210.613 13.063C210.09 14.2448 209.564 15.4267 209.044 16.6114C208.961 16.7968 208.846 16.9764 208.827 17.182C208.8 17.1762 208.794 17.1936 208.794 17.2139Z" fill="#CCD8FF"/>
<path d="M217.538 4.18274C217.772 4.69988 218.014 5.21407 218.245 5.73121C219.943 9.50984 221.642 13.2885 223.337 17.0671C223.343 17.0847 223.35 17.1053 223.36 17.1229C223.426 17.2287 223.383 17.2463 223.261 17.2463C221.999 17.2463 220.74 17.2493 219.477 17.2552C219.355 17.2552 219.309 17.217 219.269 17.1229C217.508 13.0358 215.747 8.94863 213.979 4.86442C213.88 4.63817 213.758 4.4178 213.678 4.18274C213.691 4.17098 213.708 4.15923 213.721 4.14748C214.197 4.14454 214.676 4.1416 215.152 4.1416C215.932 4.1416 216.708 4.14454 217.488 4.14748C217.508 4.15923 217.524 4.17098 217.538 4.18274Z" fill="#CCD8FF"/>
<path d="M212.184 0C213.406 0 214.625 0.0028057 215.848 0.0028057C215.933 0.0028057 216.019 0.0056113 216.104 0.0056113C216.531 0.883776 216.958 1.76475 217.391 2.64291C217.436 2.7355 217.419 2.76075 217.296 2.76075C216.063 2.75794 214.827 2.75794 213.594 2.76075C213.516 2.76075 213.458 2.75514 213.423 2.68219C213.014 1.79561 212.6 0.911832 212.187 0.0280564C212.184 0.0196395 212.187 0.0112226 212.184 0Z" fill="#CCD8FF"/>
<path d="M3.73584 69.5531C3.75265 69.3375 3.87369 69.1522 3.95774 68.9549C4.48559 67.7158 5.02354 66.4768 5.55811 65.2378C5.58165 65.1862 5.61191 65.1376 5.63881 65.089C6.85926 64.8582 8.07971 64.6244 9.30016 64.3936C9.93561 64.2721 10.571 64.1537 11.2065 64.0322C11.2132 64.0899 11.1628 64.1021 11.1325 64.1233C8.70507 65.915 6.27425 67.7067 3.84343 69.4984C3.81317 69.5197 3.78627 69.5592 3.73584 69.5531Z" fill="#CCD8FF"/>
<path d="M4.08104 69.5127C4.03497 69.5648 3.97246 69.5504 3.91324 69.5504C2.6531 69.5504 1.39296 69.5504 0.132817 69.5533C0.0110801 69.5533 -0.0316923 69.5504 0.0242408 69.4258C2.33066 64.4262 4.6305 59.4238 6.93362 54.4242C6.9402 54.4068 6.95007 54.3894 6.95994 54.3691C7.02904 54.4097 7.03891 54.4763 7.06523 54.5314C7.69037 55.7798 8.31221 57.0282 8.93734 58.2767C8.98012 58.3607 8.97025 58.4273 8.93405 58.5084C7.96674 60.6896 7.00272 62.8736 6.03869 65.0548C6.01566 65.1069 5.99921 65.1649 5.97947 65.2199C5.95315 65.2662 5.92354 65.3126 5.90051 65.3618C5.37737 66.5437 4.85094 67.7255 4.33109 68.9102C4.24883 69.0956 4.13368 69.2752 4.11394 69.4808C4.08762 69.475 4.08104 69.4924 4.08104 69.5127Z" fill="#CCD8FF"/>
<path d="M12.825 56.4816C13.0597 56.9987 13.3009 57.5129 13.5322 58.03C15.2306 61.8087 16.929 65.5873 18.6242 69.3659C18.6308 69.3836 18.6374 69.4041 18.6473 69.4218C18.7134 69.5275 18.6704 69.5452 18.5482 69.5452C17.2859 69.5452 16.027 69.5481 14.7647 69.554C14.6424 69.554 14.5962 69.5158 14.5565 69.4218C12.7953 65.3346 11.0341 61.2475 9.26627 57.1632C9.16714 56.937 9.04488 56.7166 8.96558 56.4816C8.97879 56.4698 8.99531 56.4581 9.00853 56.4463C9.48436 56.4434 9.96349 56.4404 10.4393 56.4404C11.2191 56.4404 11.9957 56.4434 12.7755 56.4463C12.7953 56.4581 12.8118 56.4698 12.825 56.4816Z" fill="#CCD8FF"/>
<path d="M7.47119 52.2988C8.6937 52.2988 9.91279 52.3016 11.1353 52.3016C11.2207 52.3016 11.306 52.3044 11.3914 52.3044C11.8183 53.1826 12.2451 54.0636 12.6788 54.9417C12.7232 55.0343 12.7061 55.0596 12.5832 55.0596C11.3504 55.0568 10.1143 55.0568 8.88151 55.0596C8.80297 55.0596 8.74492 55.054 8.71077 54.981C8.30099 54.0944 7.8878 53.2107 7.47461 52.3269C7.47119 52.3185 7.47461 52.3101 7.47119 52.2988Z" fill="#CCD8FF"/>
<path d="M54.5405 70.3002C54.5573 70.0846 54.6784 69.8993 54.7624 69.7019C55.2903 68.4629 55.8282 67.2239 56.3628 65.9849C56.3863 65.9333 56.4166 65.8847 56.4435 65.8361C57.6639 65.6053 58.8844 65.3715 60.1049 65.1407C60.7403 65.0192 61.3757 64.9008 62.0112 64.7793C62.0179 64.837 61.9675 64.8491 61.9372 64.8704C59.5098 66.6621 57.0789 68.4538 54.6481 70.2455C54.6179 70.2668 54.591 70.3062 54.5405 70.3002Z" fill="#CCD8FF"/>
<path d="M54.8857 70.2598C54.8397 70.3119 54.7771 70.2974 54.7179 70.2974C53.4578 70.2974 52.1976 70.2974 50.9375 70.3003C50.8158 70.3003 50.773 70.2974 50.8289 70.1729C53.1353 65.1733 55.4352 60.1708 57.7383 55.1712C57.7449 55.1539 57.7548 55.1365 57.7646 55.1162C57.8337 55.1568 57.8436 55.2234 57.8699 55.2784C58.4951 56.5269 59.1169 57.7753 59.742 59.0238C59.7848 59.1078 59.7749 59.1744 59.7387 59.2555C58.7714 61.4366 57.8074 63.6207 56.8434 65.8019C56.8204 65.854 56.8039 65.9119 56.7842 65.967C56.7578 66.0133 56.7282 66.0597 56.7052 66.1089C56.1821 67.2907 55.6556 68.4726 55.1358 69.6573C55.0535 69.8427 54.9384 70.0222 54.9186 70.2279C54.8923 70.2221 54.8857 70.2395 54.8857 70.2598Z" fill="#CCD8FF"/>
<path d="M63.6297 57.2286C63.8643 57.7458 64.1056 58.26 64.3369 58.7771C66.0353 62.5557 67.7337 66.3344 69.4289 70.113C69.4355 70.1306 69.4421 70.1512 69.452 70.1688C69.5181 70.2746 69.4751 70.2922 69.3529 70.2922C68.0906 70.2922 66.8316 70.2952 65.5694 70.3011C65.4471 70.3011 65.4009 70.2629 65.3612 70.1688C63.6 66.0817 61.8388 61.9945 60.071 57.9103C59.9718 57.6841 59.8496 57.4637 59.7703 57.2286C59.7835 57.2169 59.8 57.2051 59.8132 57.1934C60.289 57.1904 60.7682 57.1875 61.244 57.1875C62.0238 57.1875 62.8003 57.1904 63.5802 57.1934C63.6 57.2051 63.6165 57.2169 63.6297 57.2286Z" fill="#CCD8FF"/>
<path d="M58.2759 53.0459C59.4984 53.0459 60.7175 53.0487 61.94 53.0487C62.0254 53.0487 62.1107 53.0515 62.1961 53.0515C62.6229 53.9297 63.0498 54.8106 63.4835 55.6888C63.5279 55.7814 63.5108 55.8066 63.3879 55.8066C62.1551 55.8038 60.919 55.8038 59.6862 55.8066C59.6077 55.8066 59.5496 55.801 59.5155 55.7281C59.1057 54.8415 58.6925 53.9577 58.2793 53.074C58.2759 53.0655 58.2793 53.0571 58.2759 53.0459Z" fill="#CCD8FF"/>
<path d="M105.345 70.3002C105.362 70.0846 105.483 69.8993 105.567 69.7019C106.095 68.4629 106.633 67.2239 107.167 65.9849C107.191 65.9333 107.221 65.8847 107.248 65.8361C108.468 65.6053 109.689 65.3715 110.909 65.1407C111.545 65.0192 112.18 64.9008 112.816 64.7793C112.822 64.837 112.772 64.8491 112.742 64.8704C110.314 66.6621 107.883 68.4538 105.453 70.2455C105.422 70.2668 105.395 70.3062 105.345 70.3002Z" fill="#CCD8FF"/>
<path d="M105.69 70.2598C105.644 70.3119 105.582 70.2974 105.522 70.2974C104.262 70.2974 103.002 70.2974 101.742 70.3003C101.62 70.3003 101.577 70.2974 101.633 70.1729C103.94 65.1733 106.24 60.1708 108.543 55.1712C108.549 55.1539 108.559 55.1365 108.569 55.1162C108.638 55.1568 108.648 55.2234 108.674 55.2784C109.299 56.5269 109.921 57.7753 110.546 59.0238C110.589 59.1078 110.579 59.1744 110.543 59.2555C109.576 61.4366 108.612 63.6207 107.648 65.8019C107.625 65.854 107.608 65.9119 107.589 65.967C107.562 66.0133 107.533 66.0597 107.51 66.1089C106.986 67.2907 106.46 68.4726 105.94 69.6573C105.858 69.8427 105.743 70.0222 105.723 70.2279C105.697 70.2221 105.69 70.2395 105.69 70.2598Z" fill="#CCD8FF"/>
<path d="M114.434 57.2286C114.669 57.7458 114.91 58.26 115.141 58.7771C116.84 62.5557 118.538 66.3344 120.233 70.113C120.24 70.1306 120.247 70.1512 120.256 70.1688C120.323 70.2746 120.28 70.2922 120.157 70.2922C118.895 70.2922 117.636 70.2952 116.374 70.3011C116.252 70.3011 116.205 70.2629 116.166 70.1688C114.404 66.0817 112.643 61.9945 110.875 57.9103C110.776 57.6841 110.654 57.4637 110.575 57.2286C110.588 57.2169 110.604 57.2051 110.618 57.1934C111.093 57.1904 111.573 57.1875 112.048 57.1875C112.828 57.1875 113.605 57.1904 114.385 57.1934C114.404 57.2051 114.421 57.2169 114.434 57.2286Z" fill="#CCD8FF"/>
<path d="M109.08 53.0459C110.303 53.0459 111.522 53.0487 112.744 53.0487C112.83 53.0487 112.915 53.0515 113.001 53.0515C113.427 53.9297 113.854 54.8106 114.288 55.6888C114.332 55.7814 114.315 55.8066 114.192 55.8066C112.96 55.8038 111.723 55.8038 110.491 55.8066C110.412 55.8066 110.354 55.801 110.32 55.7281C109.91 54.8415 109.497 53.9577 109.084 53.074C109.08 53.0655 109.084 53.0571 109.08 53.0459Z" fill="#CCD8FF"/>
<path d="M156.15 69.5531C156.167 69.3375 156.288 69.1522 156.372 68.9549C156.9 67.7158 157.438 66.4768 157.972 65.2378C157.996 65.1862 158.026 65.1376 158.053 65.089C159.273 64.8582 160.494 64.6244 161.714 64.3936C162.35 64.2721 162.985 64.1537 163.621 64.0322C163.627 64.0899 163.577 64.1021 163.547 64.1233C161.119 65.915 158.688 67.7067 156.257 69.4984C156.227 69.5197 156.2 69.5592 156.15 69.5531Z" fill="#CCD8FF"/>
<path d="M156.495 69.5127C156.449 69.5648 156.387 69.5504 156.327 69.5504C155.067 69.5504 153.807 69.5504 152.547 69.5533C152.425 69.5533 152.382 69.5504 152.438 69.4258C154.745 64.4262 157.045 59.4238 159.348 54.4242C159.354 54.4068 159.364 54.3894 159.374 54.3691C159.443 54.4097 159.453 54.4763 159.479 54.5314C160.104 55.7798 160.726 57.0282 161.351 58.2767C161.394 58.3607 161.384 58.4273 161.348 58.5084C160.381 60.6896 159.417 62.8736 158.453 65.0548C158.43 65.1069 158.413 65.1649 158.394 65.2199C158.367 65.2662 158.338 65.3126 158.315 65.3618C157.791 66.5437 157.265 67.7255 156.745 68.9102C156.663 69.0956 156.548 69.2752 156.528 69.4808C156.502 69.475 156.495 69.4924 156.495 69.5127Z" fill="#CCD8FF"/>
<path d="M165.239 56.4816C165.474 56.9987 165.715 57.5129 165.946 58.03C167.645 61.8087 169.343 65.5873 171.038 69.3659C171.045 69.3836 171.051 69.4041 171.061 69.4218C171.127 69.5275 171.084 69.5452 170.962 69.5452C169.7 69.5452 168.441 69.5481 167.179 69.554C167.056 69.554 167.01 69.5158 166.971 69.4218C165.209 65.3346 163.448 61.2475 161.68 57.1632C161.581 56.937 161.459 56.7166 161.38 56.4816C161.393 56.4698 161.409 56.4581 161.423 56.4463C161.898 56.4434 162.378 56.4404 162.853 56.4404C163.633 56.4404 164.41 56.4434 165.19 56.4463C165.209 56.4581 165.226 56.4698 165.239 56.4816Z" fill="#CCD8FF"/>
<path d="M159.885 52.2988C161.108 52.2988 162.327 52.3016 163.549 52.3016C163.635 52.3016 163.72 52.3044 163.805 52.3044C164.232 53.1826 164.659 54.0636 165.093 54.9417C165.137 55.0343 165.12 55.0596 164.997 55.0596C163.764 55.0568 162.528 55.0568 161.296 55.0596C161.217 55.0596 161.159 55.054 161.125 54.981C160.715 54.0944 160.302 53.2107 159.889 52.3269C159.885 52.3185 159.889 52.3101 159.885 52.2988Z" fill="#CCD8FF"/>
<path d="M206.954 69.5531C206.971 69.3375 207.092 69.1522 207.176 68.9549C207.704 67.7158 208.242 66.4768 208.777 65.2378C208.8 65.1862 208.83 65.1376 208.857 65.089C210.078 64.8582 211.298 64.6244 212.519 64.3936C213.154 64.2721 213.79 64.1537 214.425 64.0322C214.432 64.0899 214.381 64.1021 214.351 64.1233C211.924 65.915 209.493 67.7067 207.062 69.4984C207.032 69.5197 207.005 69.5592 206.954 69.5531Z" fill="#CCD8FF"/>
<path d="M207.3 69.5127C207.253 69.5648 207.191 69.5504 207.132 69.5504C205.872 69.5504 204.611 69.5504 203.351 69.5533C203.23 69.5533 203.187 69.5504 203.243 69.4258C205.549 64.4262 207.849 59.4238 210.152 54.4242C210.159 54.4068 210.169 54.3894 210.178 54.3691C210.248 54.4097 210.257 54.4763 210.284 54.5314C210.909 55.7798 211.531 57.0282 212.156 58.2767C212.199 58.3607 212.189 58.4273 212.153 58.5084C211.185 60.6896 210.221 62.8736 209.257 65.0548C209.234 65.1069 209.218 65.1649 209.198 65.2199C209.172 65.2662 209.142 65.3126 209.119 65.3618C208.596 66.5437 208.069 67.7255 207.55 68.9102C207.467 69.0956 207.352 69.2752 207.332 69.4808C207.306 69.475 207.3 69.4924 207.3 69.5127Z" fill="#CCD8FF"/>
<path d="M216.044 56.4816C216.278 56.9987 216.519 57.5129 216.751 58.03C218.449 61.8087 220.148 65.5873 221.843 69.3659C221.849 69.3836 221.856 69.4041 221.866 69.4218C221.932 69.5275 221.889 69.5452 221.767 69.5452C220.504 69.5452 219.245 69.5481 217.983 69.554C217.861 69.554 217.815 69.5158 217.775 69.4218C216.014 65.3346 214.253 61.2475 212.485 57.1632C212.386 56.937 212.263 56.7166 212.184 56.4816C212.197 56.4698 212.214 56.4581 212.227 56.4463C212.703 56.4434 213.182 56.4404 213.658 56.4404C214.438 56.4404 215.214 56.4434 215.994 56.4463C216.014 56.4581 216.03 56.4698 216.044 56.4816Z" fill="#CCD8FF"/>
<path d="M210.69 52.2988C211.912 52.2988 213.131 52.3016 214.354 52.3016C214.439 52.3016 214.525 52.3044 214.61 52.3044C215.037 53.1826 215.464 54.0636 215.897 54.9417C215.942 55.0343 215.925 55.0596 215.802 55.0596C214.569 55.0568 213.333 55.0568 212.1 55.0596C212.021 55.0596 211.963 55.054 211.929 54.981C211.519 54.0944 211.106 53.2107 210.693 52.3269C210.69 52.3185 210.693 52.3101 210.69 52.2988Z" fill="#CCD8FF"/>
<path d="M258.104 69.5127C258.058 69.5648 257.995 69.5504 257.936 69.5504C256.676 69.5504 255.416 69.5504 254.156 69.5533C254.034 69.5533 253.991 69.5504 254.047 69.4258C256.353 64.4262 258.653 59.4238 260.956 54.4242C260.963 54.4068 260.973 54.3894 260.983 54.3691C261.052 54.4097 261.062 54.4763 261.088 54.5314C261.713 55.7798 262.335 57.0282 262.96 58.2767C263.003 58.3607 262.993 58.4273 262.957 58.5084C261.989 60.6896 261.025 62.8736 260.061 65.0548C260.038 65.1069 260.022 65.1649 260.002 65.2199C259.976 65.2662 259.946 65.3126 259.923 65.3618C259.4 66.5437 258.874 67.7255 258.354 68.9102C258.272 69.0956 258.156 69.2752 258.137 69.4808C258.11 69.475 258.104 69.4924 258.104 69.5127Z" fill="#CCD8FF"/>
<path d="M3.73584 127.084C3.75265 126.869 3.87369 126.683 3.95774 126.486C4.48559 125.247 5.02354 124.008 5.55811 122.769C5.58165 122.717 5.61191 122.669 5.63881 122.62C6.85926 122.389 8.07971 122.156 9.30016 121.925C9.93561 121.803 10.571 121.685 11.2065 121.563C11.2132 121.621 11.1628 121.633 11.1325 121.655C8.70507 123.446 6.27425 125.238 3.84343 127.03C3.81317 127.051 3.78627 127.09 3.73584 127.084Z" fill="#CCD8FF"/>
<path d="M4.08104 127.044C4.03497 127.096 3.97246 127.082 3.91324 127.082C2.6531 127.082 1.39296 127.082 0.132817 127.085C0.0110801 127.085 -0.0316923 127.082 0.0242408 126.957C2.33066 121.957 4.6305 116.955 6.93362 111.955C6.9402 111.938 6.95007 111.921 6.95994 111.9C7.02904 111.941 7.03891 112.008 7.06523 112.063C7.69037 113.311 8.31221 114.559 8.93734 115.808C8.98012 115.892 8.97025 115.959 8.93405 116.04C7.96674 118.221 7.00272 120.405 6.03869 122.586C6.01566 122.638 5.99921 122.696 5.97947 122.751C5.95315 122.797 5.92354 122.844 5.90051 122.893C5.37737 124.075 4.85094 125.257 4.33109 126.441C4.24883 126.627 4.13368 126.806 4.11394 127.012C4.08762 127.006 4.08104 127.024 4.08104 127.044Z" fill="#CCD8FF"/>
<path d="M12.825 114.013C13.0597 114.53 13.3009 115.044 13.5322 115.561C15.2306 119.34 16.929 123.119 18.6242 126.897C18.6308 126.915 18.6374 126.935 18.6473 126.953C18.7134 127.059 18.6704 127.076 18.5482 127.076C17.2859 127.076 16.027 127.079 14.7647 127.085C14.6424 127.085 14.5962 127.047 14.5565 126.953C12.7953 122.866 11.0341 118.779 9.26627 114.694C9.16714 114.468 9.04488 114.248 8.96558 114.013C8.97879 114.001 8.99531 113.989 9.00853 113.978C9.48436 113.975 9.96349 113.972 10.4393 113.972C11.2191 113.972 11.9957 113.975 12.7755 113.978C12.7953 113.989 12.8118 114.001 12.825 114.013Z" fill="#CCD8FF"/>
<path d="M7.47119 109.83C8.6937 109.83 9.91279 109.833 11.1353 109.833C11.2207 109.833 11.306 109.836 11.3914 109.836C11.8183 110.714 12.2451 111.595 12.6788 112.473C12.7232 112.566 12.7061 112.591 12.5832 112.591C11.3504 112.588 10.1143 112.588 8.88151 112.591C8.80297 112.591 8.74492 112.585 8.71077 112.512C8.30099 111.626 7.8878 110.742 7.47461 109.858C7.47119 109.85 7.47461 109.841 7.47119 109.83Z" fill="#CCD8FF"/>
<path d="M54.5405 127.831C54.5573 127.616 54.6784 127.431 54.7624 127.233C55.2903 125.994 55.8282 124.755 56.3628 123.516C56.3863 123.465 56.4166 123.416 56.4435 123.367C57.6639 123.137 58.8844 122.903 60.1049 122.672C60.7403 122.55 61.3757 122.432 62.0112 122.311C62.0179 122.368 61.9675 122.38 61.9372 122.402C59.5098 124.193 57.0789 125.985 54.6481 127.777C54.6179 127.798 54.591 127.837 54.5405 127.831Z" fill="#CCD8FF"/>
<path d="M54.8857 127.791C54.8397 127.843 54.7771 127.829 54.7179 127.829C53.4578 127.829 52.1976 127.829 50.9375 127.832C50.8158 127.832 50.773 127.829 50.8289 127.704C53.1353 122.705 55.4352 117.702 57.7383 112.702C57.7449 112.685 57.7548 112.668 57.7646 112.647C57.8337 112.688 57.8436 112.755 57.8699 112.81C58.4951 114.058 59.1169 115.307 59.742 116.555C59.7848 116.639 59.7749 116.706 59.7387 116.787C58.7714 118.968 57.8074 121.152 56.8434 123.333C56.8204 123.385 56.8039 123.443 56.7842 123.498C56.7578 123.545 56.7282 123.591 56.7052 123.64C56.1821 124.822 55.6556 126.004 55.1358 127.189C55.0535 127.374 54.9384 127.553 54.9186 127.759C54.8923 127.753 54.8857 127.771 54.8857 127.791Z" fill="#CCD8FF"/>
<path d="M63.6297 114.76C63.8643 115.277 64.1056 115.791 64.3369 116.308C66.0353 120.087 67.7337 123.866 69.4289 127.644C69.4355 127.662 69.4421 127.682 69.452 127.7C69.5181 127.806 69.4751 127.823 69.3529 127.823C68.0906 127.823 66.8316 127.826 65.5694 127.832C65.4471 127.832 65.4009 127.794 65.3612 127.7C63.6 123.613 61.8388 119.526 60.071 115.442C59.9718 115.215 59.8496 114.995 59.7703 114.76C59.7835 114.748 59.8 114.736 59.8132 114.725C60.289 114.722 60.7682 114.719 61.244 114.719C62.0238 114.719 62.8003 114.722 63.5802 114.725C63.6 114.736 63.6165 114.748 63.6297 114.76Z" fill="#CCD8FF"/>
<path d="M58.2759 110.577C59.4984 110.577 60.7175 110.58 61.94 110.58C62.0254 110.58 62.1107 110.583 62.1961 110.583C62.6229 111.461 63.0498 112.342 63.4835 113.22C63.5279 113.313 63.5108 113.338 63.3879 113.338C62.1551 113.335 60.919 113.335 59.6862 113.338C59.6077 113.338 59.5496 113.332 59.5155 113.259C59.1057 112.373 58.6925 111.489 58.2793 110.605C58.2759 110.597 58.2793 110.588 58.2759 110.577Z" fill="#CCD8FF"/>
<path d="M105.345 127.831C105.362 127.616 105.483 127.431 105.567 127.233C106.095 125.994 106.633 124.755 107.167 123.516C107.191 123.465 107.221 123.416 107.248 123.367C108.468 123.137 109.689 122.903 110.909 122.672C111.545 122.55 112.18 122.432 112.816 122.311C112.822 122.368 112.772 122.38 112.742 122.402C110.314 124.193 107.883 125.985 105.453 127.777C105.422 127.798 105.395 127.837 105.345 127.831Z" fill="#CCD8FF"/>
<path d="M105.69 127.791C105.644 127.843 105.582 127.829 105.522 127.829C104.262 127.829 103.002 127.829 101.742 127.832C101.62 127.832 101.577 127.829 101.633 127.704C103.94 122.705 106.24 117.702 108.543 112.702C108.549 112.685 108.559 112.668 108.569 112.647C108.638 112.688 108.648 112.755 108.674 112.81C109.299 114.058 109.921 115.307 110.546 116.555C110.589 116.639 110.579 116.706 110.543 116.787C109.576 118.968 108.612 121.152 107.648 123.333C107.625 123.385 107.608 123.443 107.589 123.498C107.562 123.545 107.533 123.591 107.51 123.64C106.986 124.822 106.46 126.004 105.94 127.189C105.858 127.374 105.743 127.553 105.723 127.759C105.697 127.753 105.69 127.771 105.69 127.791Z" fill="#CCD8FF"/>
<path d="M114.434 114.76C114.669 115.277 114.91 115.791 115.141 116.308C116.84 120.087 118.538 123.866 120.233 127.644C120.24 127.662 120.247 127.682 120.256 127.7C120.323 127.806 120.28 127.823 120.157 127.823C118.895 127.823 117.636 127.826 116.374 127.832C116.252 127.832 116.205 127.794 116.166 127.7C114.404 123.613 112.643 119.526 110.875 115.442C110.776 115.215 110.654 114.995 110.575 114.76C110.588 114.748 110.604 114.736 110.618 114.725C111.093 114.722 111.573 114.719 112.048 114.719C112.828 114.719 113.605 114.722 114.385 114.725C114.404 114.736 114.421 114.748 114.434 114.76Z" fill="#CCD8FF"/>
<path d="M109.08 110.577C110.303 110.577 111.522 110.58 112.744 110.58C112.83 110.58 112.915 110.583 113.001 110.583C113.427 111.461 113.854 112.342 114.288 113.22C114.332 113.313 114.315 113.338 114.192 113.338C112.96 113.335 111.723 113.335 110.491 113.338C110.412 113.338 110.354 113.332 110.32 113.259C109.91 112.373 109.497 111.489 109.084 110.605C109.08 110.597 109.084 110.588 109.08 110.577Z" fill="#CCD8FF"/>
<path d="M156.15 127.084C156.167 126.869 156.288 126.683 156.372 126.486C156.9 125.247 157.438 124.008 157.972 122.769C157.996 122.717 158.026 122.669 158.053 122.62C159.273 122.389 160.494 122.156 161.714 121.925C162.35 121.803 162.985 121.685 163.621 121.563C163.627 121.621 163.577 121.633 163.547 121.655C161.119 123.446 158.688 125.238 156.257 127.03C156.227 127.051 156.2 127.09 156.15 127.084Z" fill="#CCD8FF"/>
<path d="M156.495 127.044C156.449 127.096 156.387 127.082 156.327 127.082C155.067 127.082 153.807 127.082 152.547 127.085C152.425 127.085 152.382 127.082 152.438 126.957C154.745 121.957 157.045 116.955 159.348 111.955C159.354 111.938 159.364 111.921 159.374 111.9C159.443 111.941 159.453 112.008 159.479 112.063C160.104 113.311 160.726 114.559 161.351 115.808C161.394 115.892 161.384 115.959 161.348 116.04C160.381 118.221 159.417 120.405 158.453 122.586C158.43 122.638 158.413 122.696 158.394 122.751C158.367 122.797 158.338 122.844 158.315 122.893C157.791 124.075 157.265 125.257 156.745 126.441C156.663 126.627 156.548 126.806 156.528 127.012C156.502 127.006 156.495 127.024 156.495 127.044Z" fill="#CCD8FF"/>
<path d="M165.239 114.013C165.474 114.53 165.715 115.044 165.946 115.561C167.645 119.34 169.343 123.119 171.038 126.897C171.045 126.915 171.051 126.935 171.061 126.953C171.127 127.059 171.084 127.076 170.962 127.076C169.7 127.076 168.441 127.079 167.179 127.085C167.056 127.085 167.01 127.047 166.971 126.953C165.209 122.866 163.448 118.779 161.68 114.694C161.581 114.468 161.459 114.248 161.38 114.013C161.393 114.001 161.409 113.989 161.423 113.978C161.898 113.975 162.378 113.972 162.853 113.972C163.633 113.972 164.41 113.975 165.19 113.978C165.209 113.989 165.226 114.001 165.239 114.013Z" fill="#CCD8FF"/>
<path d="M159.885 109.83C161.108 109.83 162.327 109.833 163.549 109.833C163.635 109.833 163.72 109.836 163.805 109.836C164.232 110.714 164.659 111.595 165.093 112.473C165.137 112.566 165.12 112.591 164.997 112.591C163.764 112.588 162.528 112.588 161.296 112.591C161.217 112.591 161.159 112.585 161.125 112.512C160.715 111.626 160.302 110.742 159.889 109.858C159.885 109.85 159.889 109.841 159.885 109.83Z" fill="#CCD8FF"/>
<path d="M206.954 127.084C206.971 126.869 207.092 126.683 207.176 126.486C207.704 125.247 208.242 124.008 208.777 122.769C208.8 122.717 208.83 122.669 208.857 122.62C210.078 122.389 211.298 122.156 212.519 121.925C213.154 121.803 213.79 121.685 214.425 121.563C214.432 121.621 214.381 121.633 214.351 121.655C211.924 123.446 209.493 125.238 207.062 127.03C207.032 127.051 207.005 127.09 206.954 127.084Z" fill="#CCD8FF"/>
<path d="M207.3 127.044C207.253 127.096 207.191 127.082 207.132 127.082C205.872 127.082 204.611 127.082 203.351 127.085C203.23 127.085 203.187 127.082 203.243 126.957C205.549 121.957 207.849 116.955 210.152 111.955C210.159 111.938 210.169 111.921 210.178 111.9C210.248 111.941 210.257 112.008 210.284 112.063C210.909 113.311 211.531 114.559 212.156 115.808C212.199 115.892 212.189 115.959 212.153 116.04C211.185 118.221 210.221 120.405 209.257 122.586C209.234 122.638 209.218 122.696 209.198 122.751C209.172 122.797 209.142 122.844 209.119 122.893C208.596 124.075 208.069 125.257 207.55 126.441C207.467 126.627 207.352 126.806 207.332 127.012C207.306 127.006 207.3 127.024 207.3 127.044Z" fill="#CCD8FF"/>
<path d="M216.044 114.013C216.278 114.53 216.519 115.044 216.751 115.561C218.449 119.34 220.148 123.119 221.843 126.897C221.849 126.915 221.856 126.935 221.866 126.953C221.932 127.059 221.889 127.076 221.767 127.076C220.504 127.076 219.245 127.079 217.983 127.085C217.861 127.085 217.815 127.047 217.775 126.953C216.014 122.866 214.253 118.779 212.485 114.694C212.386 114.468 212.263 114.248 212.184 114.013C212.197 114.001 212.214 113.989 212.227 113.978C212.703 113.975 213.182 113.972 213.658 113.972C214.438 113.972 215.214 113.975 215.994 113.978C216.014 113.989 216.03 114.001 216.044 114.013Z" fill="#CCD8FF"/>
<path d="M210.69 109.83C211.912 109.83 213.131 109.833 214.354 109.833C214.439 109.833 214.525 109.836 214.61 109.836C215.037 110.714 215.464 111.595 215.897 112.473C215.942 112.566 215.925 112.591 215.802 112.591C214.569 112.588 213.333 112.588 212.1 112.591C212.021 112.591 211.963 112.585 211.929 112.512C211.519 111.626 211.106 110.742 210.693 109.858C210.69 109.85 210.693 109.841 210.69 109.83Z" fill="#CCD8FF"/>
<path d="M258.104 127.044C258.058 127.096 257.995 127.082 257.936 127.082C256.676 127.082 255.416 127.082 254.156 127.085C254.034 127.085 253.991 127.082 254.047 126.957C256.353 121.957 258.653 116.955 260.956 111.955C260.963 111.938 260.973 111.921 260.983 111.9C261.052 111.941 261.062 112.008 261.088 112.063C261.713 113.311 262.335 114.559 262.96 115.808C263.003 115.892 262.993 115.959 262.957 116.04C261.989 118.221 261.025 120.405 260.061 122.586C260.038 122.638 260.022 122.696 260.002 122.751C259.976 122.797 259.946 122.844 259.923 122.893C259.4 124.075 258.874 125.257 258.354 126.441C258.272 126.627 258.156 126.806 258.137 127.012C258.11 127.006 258.104 127.024 258.104 127.044Z" fill="#CCD8FF"/>
<path d="M3.73584 186.104C3.75265 185.888 3.87369 185.703 3.95774 185.506C4.48559 184.267 5.02354 183.028 5.55811 181.789C5.58165 181.737 5.61191 181.688 5.63881 181.64C6.85926 181.409 8.07971 181.175 9.30016 180.944C9.93561 180.823 10.571 180.704 11.2065 180.583C11.2132 180.641 11.1628 180.653 11.1325 180.674C8.70507 182.466 6.27425 184.258 3.84343 186.049C3.81317 186.07 3.78627 186.11 3.73584 186.104Z" fill="#CCD8FF"/>
<path d="M4.08104 186.063C4.03497 186.116 3.97246 186.101 3.91324 186.101C2.6531 186.101 1.39296 186.101 0.132817 186.104C0.0110801 186.104 -0.0316923 186.101 0.0242408 185.977C2.33066 180.977 4.6305 175.975 6.93362 170.975C6.9402 170.958 6.95007 170.94 6.95994 170.92C7.02904 170.96 7.03891 171.027 7.06523 171.082C7.69037 172.331 8.31221 173.579 8.93734 174.827C8.98012 174.911 8.97025 174.978 8.93405 175.059C7.96674 177.24 7.00272 179.424 6.03869 181.606C6.01566 181.658 5.99921 181.716 5.97947 181.771C5.95315 181.817 5.92354 181.863 5.90051 181.913C5.37737 183.094 4.85094 184.276 4.33109 185.461C4.24883 185.646 4.13368 185.826 4.11394 186.032C4.08762 186.026 4.08104 186.043 4.08104 186.063Z" fill="#CCD8FF"/>
<path d="M12.825 173.031C13.0597 173.549 13.3009 174.063 13.5322 174.58C15.2306 178.358 16.929 182.137 18.6242 185.916C18.6308 185.933 18.6374 185.954 18.6473 185.972C18.7134 186.077 18.6704 186.095 18.5482 186.095C17.2859 186.095 16.027 186.098 14.7647 186.104C14.6424 186.104 14.5962 186.066 14.5565 185.972C12.7953 181.884 11.0341 177.797 9.26627 173.713C9.16714 173.487 9.04488 173.266 8.96558 173.031C8.97879 173.02 8.99531 173.008 9.00853 172.996C9.48436 172.993 9.96349 172.99 10.4393 172.99C11.2191 172.99 11.9957 172.993 12.7755 172.996C12.7953 173.008 12.8118 173.02 12.825 173.031Z" fill="#CCD8FF"/>
<path d="M7.47119 168.85C8.6937 168.85 9.91279 168.852 11.1353 168.852C11.2207 168.852 11.306 168.855 11.3914 168.855C11.8183 169.733 12.2451 170.614 12.6788 171.493C12.7232 171.585 12.7061 171.61 12.5832 171.61C11.3504 171.608 10.1143 171.608 8.88151 171.61C8.80297 171.61 8.74492 171.605 8.71077 171.532C8.30099 170.645 7.8878 169.761 7.47461 168.878C7.47119 168.869 7.47461 168.861 7.47119 168.85Z" fill="#CCD8FF"/>
<path d="M54.5405 186.854C54.5573 186.638 54.6784 186.453 54.7624 186.256C55.2903 185.017 55.8282 183.778 56.3628 182.539C56.3863 182.487 56.4166 182.438 56.4435 182.39C57.6639 182.159 58.8844 181.925 60.1049 181.694C60.7403 181.573 61.3757 181.454 62.0112 181.333C62.0179 181.391 61.9675 181.403 61.9372 181.424C59.5098 183.216 57.0789 185.008 54.6481 186.799C54.6179 186.82 54.591 186.86 54.5405 186.854Z" fill="#CCD8FF"/>
<path d="M54.8857 186.813C54.8397 186.866 54.7771 186.851 54.7179 186.851C53.4578 186.851 52.1976 186.851 50.9375 186.854C50.8158 186.854 50.773 186.851 50.8289 186.727C53.1353 181.727 55.4352 176.725 57.7383 171.725C57.7449 171.708 57.7548 171.69 57.7646 171.67C57.8337 171.71 57.8436 171.777 57.8699 171.832C58.4951 173.081 59.1169 174.329 59.742 175.577C59.7848 175.661 59.7749 175.728 59.7387 175.809C58.7714 177.99 57.8074 180.174 56.8434 182.356C56.8204 182.408 56.8039 182.466 56.7842 182.521C56.7578 182.567 56.7282 182.613 56.7052 182.663C56.1821 183.844 55.6556 185.026 55.1358 186.211C55.0535 186.396 54.9384 186.576 54.9186 186.782C54.8923 186.776 54.8857 186.793 54.8857 186.813Z" fill="#CCD8FF"/>
<path d="M63.6297 173.782C63.8643 174.299 64.1056 174.814 64.3369 175.331C66.0353 179.109 67.7337 182.888 69.4289 186.667C69.4355 186.684 69.4421 186.705 69.452 186.723C69.5181 186.828 69.4751 186.846 69.3529 186.846C68.0906 186.846 66.8316 186.849 65.5694 186.855C65.4471 186.855 65.4009 186.817 65.3612 186.723C63.6 182.635 61.8388 178.548 60.071 174.464C59.9718 174.238 59.8496 174.017 59.7703 173.782C59.7835 173.771 59.8 173.759 59.8132 173.747C60.289 173.744 60.7682 173.741 61.244 173.741C62.0238 173.741 62.8003 173.744 63.5802 173.747C63.6 173.759 63.6165 173.771 63.6297 173.782Z" fill="#CCD8FF"/>
<path d="M58.2759 169.6C59.4984 169.6 60.7175 169.602 61.94 169.602C62.0254 169.602 62.1107 169.605 62.1961 169.605C62.6229 170.483 63.0498 171.364 63.4835 172.243C63.5279 172.335 63.5108 172.36 63.3879 172.36C62.1551 172.358 60.919 172.358 59.6862 172.36C59.6077 172.36 59.5496 172.355 59.5155 172.282C59.1057 171.395 58.6925 170.511 58.2793 169.628C58.2759 169.619 58.2793 169.611 58.2759 169.6Z" fill="#CCD8FF"/>
<path d="M105.345 186.854C105.362 186.638 105.483 186.453 105.567 186.256C106.095 185.017 106.633 183.778 107.167 182.539C107.191 182.487 107.221 182.438 107.248 182.39C108.468 182.159 109.689 181.925 110.909 181.694C111.545 181.573 112.18 181.454 112.816 181.333C112.822 181.391 112.772 181.403 112.742 181.424C110.314 183.216 107.883 185.008 105.453 186.799C105.422 186.82 105.395 186.86 105.345 186.854Z" fill="#CCD8FF"/>
<path d="M105.69 186.813C105.644 186.866 105.582 186.851 105.522 186.851C104.262 186.851 103.002 186.851 101.742 186.854C101.62 186.854 101.577 186.851 101.633 186.727C103.94 181.727 106.24 176.725 108.543 171.725C108.549 171.708 108.559 171.69 108.569 171.67C108.638 171.71 108.648 171.777 108.674 171.832C109.299 173.081 109.921 174.329 110.546 175.577C110.589 175.661 110.579 175.728 110.543 175.809C109.576 177.99 108.612 180.174 107.648 182.356C107.625 182.408 107.608 182.466 107.589 182.521C107.562 182.567 107.533 182.613 107.51 182.663C106.986 183.844 106.46 185.026 105.94 186.211C105.858 186.396 105.743 186.576 105.723 186.782C105.697 186.776 105.69 186.793 105.69 186.813Z" fill="#CCD8FF"/>
<path d="M114.434 173.782C114.669 174.299 114.91 174.814 115.141 175.331C116.84 179.109 118.538 182.888 120.233 186.667C120.24 186.684 120.247 186.705 120.256 186.723C120.323 186.828 120.28 186.846 120.157 186.846C118.895 186.846 117.636 186.849 116.374 186.855C116.252 186.855 116.205 186.817 116.166 186.723C114.404 182.635 112.643 178.548 110.875 174.464C110.776 174.238 110.654 174.017 110.575 173.782C110.588 173.771 110.604 173.759 110.618 173.747C111.093 173.744 111.573 173.741 112.048 173.741C112.828 173.741 113.605 173.744 114.385 173.747C114.404 173.759 114.421 173.771 114.434 173.782Z" fill="#CCD8FF"/>
<path d="M109.08 169.6C110.303 169.6 111.522 169.602 112.744 169.602C112.83 169.602 112.915 169.605 113.001 169.605C113.427 170.483 113.854 171.364 114.288 172.243C114.332 172.335 114.315 172.36 114.192 172.36C112.96 172.358 111.723 172.358 110.491 172.36C110.412 172.36 110.354 172.355 110.32 172.282C109.91 171.395 109.497 170.511 109.084 169.628C109.08 169.619 109.084 169.611 109.08 169.6Z" fill="#CCD8FF"/>
<path d="M156.15 186.104C156.166 185.888 156.288 185.703 156.372 185.506C156.899 184.267 157.437 183.028 157.972 181.789C157.995 181.737 158.026 181.688 158.053 181.64C159.273 181.409 160.494 181.175 161.714 180.944C162.349 180.823 162.985 180.704 163.62 180.583C163.627 180.641 163.577 180.653 163.546 180.674C161.119 182.466 158.688 184.258 156.257 186.049C156.227 186.07 156.2 186.11 156.15 186.104Z" fill="#CCD8FF"/>
<path d="M156.495 186.063C156.449 186.116 156.386 186.101 156.327 186.101C155.067 186.101 153.807 186.101 152.547 186.104C152.425 186.104 152.382 186.101 152.438 185.977C154.744 180.977 157.044 175.975 159.347 170.975C159.354 170.958 159.364 170.94 159.374 170.92C159.443 170.96 159.453 171.027 159.479 171.082C160.104 172.331 160.726 173.579 161.351 174.827C161.394 174.911 161.384 174.978 161.348 175.059C160.381 177.24 159.417 179.424 158.453 181.606C158.429 181.658 158.413 181.716 158.393 181.771C158.367 181.817 158.337 181.863 158.314 181.913C157.791 183.094 157.265 184.276 156.745 185.461C156.663 185.646 156.547 185.826 156.528 186.032C156.501 186.026 156.495 186.043 156.495 186.063Z" fill="#CCD8FF"/>
<path d="M165.239 173.031C165.473 173.549 165.715 174.063 165.946 174.58C167.644 178.358 169.343 182.137 171.038 185.916C171.045 185.933 171.051 185.954 171.061 185.972C171.127 186.077 171.084 186.095 170.962 186.095C169.7 186.095 168.441 186.098 167.179 186.104C167.056 186.104 167.01 186.066 166.97 185.972C165.209 181.884 163.448 177.797 161.68 173.713C161.581 173.487 161.459 173.266 161.379 173.031C161.393 173.02 161.409 173.008 161.422 172.996C161.898 172.993 162.377 172.99 162.853 172.99C163.633 172.99 164.409 172.993 165.189 172.996C165.209 173.008 165.226 173.02 165.239 173.031Z" fill="#CCD8FF"/>
<path d="M159.885 168.85C161.108 168.85 162.327 168.852 163.549 168.852C163.634 168.852 163.72 168.855 163.805 168.855C164.232 169.733 164.659 170.614 165.093 171.493C165.137 171.585 165.12 171.61 164.997 171.61C163.764 171.608 162.528 171.608 161.295 171.61C161.217 171.61 161.159 171.605 161.125 171.532C160.715 170.645 160.302 169.761 159.888 168.878C159.885 168.869 159.888 168.861 159.885 168.85Z" fill="#CCD8FF"/>
<path d="M206.954 186.104C206.971 185.888 207.092 185.703 207.176 185.506C207.704 184.267 208.242 183.028 208.776 181.789C208.8 181.737 208.83 181.688 208.857 181.64C210.078 181.409 211.298 181.175 212.518 180.944C213.154 180.823 213.789 180.704 214.425 180.583C214.431 180.641 214.381 180.653 214.351 180.674C211.923 182.466 209.493 184.258 207.062 186.049C207.031 186.07 207.005 186.11 206.954 186.104Z" fill="#CCD8FF"/>
<path d="M207.299 186.063C207.253 186.116 207.191 186.101 207.131 186.101C205.871 186.101 204.611 186.101 203.351 186.104C203.229 186.104 203.187 186.101 203.243 185.977C205.549 180.977 207.849 175.975 210.152 170.975C210.158 170.958 210.168 170.94 210.178 170.92C210.247 170.96 210.257 171.027 210.283 171.082C210.909 172.331 211.53 173.579 212.156 174.827C212.198 174.911 212.189 174.978 212.152 175.059C211.185 177.24 210.221 179.424 209.257 181.606C209.234 181.658 209.217 181.716 209.198 181.771C209.171 181.817 209.142 181.863 209.119 181.913C208.596 183.094 208.069 184.276 207.549 185.461C207.467 185.646 207.352 185.826 207.332 186.032C207.306 186.026 207.299 186.043 207.299 186.063Z" fill="#CCD8FF"/>
<path d="M216.044 173.031C216.278 173.549 216.519 174.063 216.751 174.58C218.449 178.358 220.148 182.137 221.843 185.916C221.849 185.933 221.856 185.954 221.866 185.972C221.932 186.077 221.889 186.095 221.767 186.095C220.504 186.095 219.245 186.098 217.983 186.104C217.861 186.104 217.815 186.066 217.775 185.972C216.014 181.884 214.253 177.797 212.485 173.713C212.386 173.487 212.263 173.266 212.184 173.031C212.197 173.02 212.214 173.008 212.227 172.996C212.703 172.993 213.182 172.99 213.658 172.99C214.438 172.99 215.214 172.993 215.994 172.996C216.014 173.008 216.03 173.02 216.044 173.031Z" fill="#CCD8FF"/>
<path d="M210.69 168.85C211.912 168.85 213.131 168.852 214.354 168.852C214.439 168.852 214.525 168.855 214.61 168.855C215.037 169.733 215.464 170.614 215.897 171.493C215.942 171.585 215.925 171.61 215.802 171.61C214.569 171.608 213.333 171.608 212.1 171.61C212.021 171.61 211.963 171.605 211.929 171.532C211.519 170.645 211.106 169.761 210.693 168.878C210.69 168.869 210.693 168.861 210.69 168.85Z" fill="#CCD8FF"/>
<path d="M258.104 186.063C258.058 186.116 257.995 186.101 257.936 186.101C256.676 186.101 255.416 186.101 254.156 186.104C254.034 186.104 253.991 186.101 254.047 185.977C256.354 180.977 258.653 175.975 260.957 170.975C260.963 170.958 260.973 170.94 260.983 170.92C261.052 170.96 261.062 171.027 261.088 171.082C261.713 172.331 262.335 173.579 262.96 174.827C263.003 174.911 262.993 174.978 262.957 175.059C261.99 177.24 261.026 179.424 260.062 181.606C260.039 181.658 260.022 181.716 260.002 181.771C259.976 181.817 259.946 181.863 259.923 181.913C259.4 183.094 258.874 184.276 258.354 185.461C258.272 185.646 258.157 185.826 258.137 186.032C258.111 186.026 258.104 186.043 258.104 186.063Z" fill="#CCD8FF"/>
</svg>
