<svg width="958" height="496" viewBox="0 0 958 496" fill="none" xmlns="http://www.w3.org/2000/svg">
<path d="M1 86.0005C1 86.0005 90.2332 72.5069 128.991 136.249C167.749 199.991 114.811 333.611 162.549 408.685C210.288 483.759 509.951 331.723 659.31 380.355C808.669 428.988 832 495.001 832 495.001" stroke="#AEC1FF"/>
<path d="M0.5 42.9999C0.5 42.9999 114.585 23.3504 153.349 87.0028C192.113 150.655 139.167 284.088 186.912 359.056C234.658 434.024 534.37 282.202 683.753 330.766C833.137 379.331 892.5 495 892.5 495" stroke="#AEC1FF"/>
<path d="M1 4.5C1 4.5 151.174 -16.7498 189.894 46.93C228.615 110.61 175.728 244.101 223.42 319.101C271.113 394.102 570.489 242.214 719.705 290.799C868.921 339.384 957 495.001 957 495.001" stroke="#AEC1FF"/>
</svg>
