<svg width="69" height="62" viewBox="0 0 69 62" fill="none" xmlns="http://www.w3.org/2000/svg">
<path d="M59.6531 27.2746C59.6613 27.2992 59.6695 27.3156 59.6777 27.3402C59.6695 27.3238 59.6613 27.2992 59.6531 27.2746ZM60.6293 30.6789C60.6375 30.7117 60.6457 30.7527 60.6539 30.7855C60.6457 30.7527 60.6375 30.7199 60.6293 30.6789ZM60.3667 29.5223C60.375 29.5469 60.3832 29.5797 60.3914 29.6043C60.3832 29.5797 60.375 29.5551 60.3667 29.5223ZM59.85 27.7914C59.8582 27.8242 59.8746 27.857 59.8828 27.8898C59.8746 27.8652 59.8582 27.8324 59.85 27.7914ZM40.9418 43.8039C40.9418 43.7957 40.9335 43.7957 40.9335 43.7875C40.9335 43.7957 40.9335 43.8039 40.9418 43.8039ZM43.8703 42.8605C43.8457 42.877 43.8292 42.9016 43.8046 42.918C43.821 42.8934 43.8457 42.877 43.8703 42.8605ZM60.2191 28.9562C60.2273 28.9891 60.2355 29.0137 60.2437 29.0465C60.2355 29.0219 60.2273 28.9891 60.2191 28.9562ZM43.3207 43.4266C43.255 43.5086 43.1894 43.607 43.1238 43.6973C43.1894 43.5988 43.255 43.5086 43.3207 43.4266ZM58.0945 24.141C58.1027 24.1574 58.1191 24.1738 58.1273 24.1902C58.1191 24.182 58.1109 24.1656 58.0945 24.141ZM43.5421 43.1641C43.5175 43.1969 43.4847 43.2215 43.4601 43.2543C43.4847 43.2297 43.5175 43.1969 43.5421 43.1641ZM40.7367 43.3281C40.7285 43.3117 40.7285 43.3035 40.7203 43.2871C40.7285 43.3035 40.7367 43.3117 40.7367 43.3281ZM42.4839 44.977C42.4675 45.0098 42.4593 45.0426 42.4429 45.0836C42.4593 45.0508 42.4675 45.018 42.4839 44.977ZM58.6605 25.1172C58.6769 25.15 58.7015 25.191 58.7179 25.2238C58.7015 25.1828 58.6769 25.15 58.6605 25.1172ZM43.4191 43.3117C43.3863 43.3445 43.3617 43.3855 43.3289 43.4184C43.3617 43.3773 43.3863 43.3445 43.4191 43.3117ZM49.5468 46.634C49.5386 46.6258 49.5304 46.6176 49.5304 46.6094C49.5304 46.6258 49.5386 46.6258 49.5468 46.634ZM44.0179 42.7375C44.0015 42.7539 43.9851 42.7621 43.9687 42.7785C43.9851 42.7703 44.0015 42.7539 44.0179 42.7375ZM42.2543 45.6414C42.2132 45.6086 42.1722 45.5676 42.1312 45.5266C42.1722 45.5676 42.2132 45.6004 42.2543 45.6414ZM61.5562 35.8879L61.1132 35.5762L61.7859 36.0438L61.5562 35.8879ZM40.5562 42.7949C40.548 42.7703 40.5398 42.7539 40.5398 42.7293C40.548 42.7457 40.5562 42.7703 40.5562 42.7949ZM42.7464 44.3699C42.8367 44.1895 42.9269 44.0254 43.0171 43.8613C42.8777 44.0992 42.7382 44.3535 42.6152 44.6406C42.6562 44.5504 42.7054 44.4602 42.7464 44.3699ZM56.7492 22.2871C56.782 22.3281 56.8066 22.3609 56.8394 22.402C56.8148 22.3609 56.782 22.3199 56.7492 22.2871ZM40.6464 43.0656C40.6382 43.0492 40.63 43.0328 40.63 43.0082C40.6382 43.0328 40.6382 43.0492 40.6464 43.0656ZM61.0558 34.034C61.0558 34.0914 61.064 34.1406 61.064 34.198C61.064 34.1488 61.0558 34.0914 61.0558 34.034ZM42.3609 45.3051C42.3527 45.3215 42.3445 45.3461 42.3445 45.3625C42.3527 45.3461 42.3609 45.3215 42.3609 45.3051ZM60.8179 31.7617C60.8261 31.7945 60.8261 31.8191 60.8343 31.852C60.8261 31.8273 60.8261 31.7945 60.8179 31.7617ZM61.0148 33.468C61.023 33.5254 61.023 33.591 61.0312 33.6484C61.023 33.591 61.0148 33.5336 61.0148 33.468ZM57.471 23.2141C57.4875 23.2387 57.5039 23.2633 57.5285 23.2879C57.5121 23.2715 57.4957 23.2387 57.471 23.2141ZM60.9656 32.9266C60.9738 32.9758 60.9738 33.025 60.982 33.0824C60.9738 33.0332 60.9738 32.9758 60.9656 32.9266Z" fill="white"/>
<path d="M59.6367 41.9098L60.818 42.4348C61.8351 42.8859 62.5816 43.9359 63.1066 45.6422C63.7629 45.0598 64.493 44.0754 64.9031 42.4266C65.7808 38.932 61.8187 36.0773 61.7777 36.0445L61.1051 35.577L61.0805 34.7566C61.0723 34.568 61.064 34.3875 61.0558 34.207C61.0558 34.1496 61.0476 34.0922 61.0476 34.043C61.0394 33.9117 61.0312 33.7887 61.023 33.6574C61.0148 33.6 61.0148 33.5344 61.0066 33.477C60.9984 33.3457 60.982 33.2145 60.9738 33.0914C60.9656 33.0422 60.9656 32.993 60.9574 32.9355C60.941 32.7551 60.9164 32.5828 60.9 32.4105L60.8262 31.8691C60.818 31.8363 60.818 31.8117 60.8098 31.7789C60.7851 31.6313 60.7687 31.4836 60.7441 31.3441L60.7195 31.2211L60.6457 30.8027C60.6375 30.7699 60.6293 30.7289 60.6211 30.6961C60.5883 30.5238 60.5555 30.3598 60.5144 30.1875C60.4734 29.9988 60.4242 29.8102 60.3832 29.6215C60.375 29.5969 60.3668 29.5641 60.3586 29.5395C60.3176 29.3754 60.2765 29.2195 60.2273 29.0637C60.2191 29.0309 60.2109 29.0063 60.2027 28.9734C60.0961 28.6125 59.9894 28.2598 59.8664 27.9152C59.8582 27.8824 59.8418 27.8496 59.8336 27.8168C59.7762 27.6609 59.7269 27.5133 59.6695 27.3656C59.6613 27.341 59.6531 27.3246 59.6449 27.3C59.5793 27.1277 59.5137 26.9637 59.4398 26.7914C59.4316 26.7668 59.4234 26.7422 59.407 26.7258C59.3496 26.5863 59.284 26.4387 59.2183 26.2992C59.2019 26.2664 59.1855 26.2254 59.1691 26.1926C59.0953 26.0367 59.0215 25.8727 58.9476 25.7168C58.8656 25.5609 58.7836 25.3969 58.7015 25.241C58.6851 25.2082 58.6605 25.1672 58.6441 25.1344C58.5785 25.0113 58.5047 24.8883 58.439 24.7652C58.4226 24.7324 58.398 24.6996 58.3816 24.6668C58.2914 24.5191 58.2094 24.3715 58.1109 24.2238C58.1027 24.2074 58.0863 24.191 58.0781 24.1746C57.9961 24.0434 57.914 23.9203 57.832 23.7891C57.8074 23.748 57.7828 23.707 57.75 23.6742C57.668 23.5594 57.5859 23.4363 57.5039 23.3215C57.4875 23.2969 57.4711 23.2723 57.4465 23.2477C57.348 23.1082 57.2496 22.977 57.143 22.8375L57.0691 22.7391C56.9871 22.6324 56.9051 22.5258 56.823 22.4273C56.7902 22.3863 56.7656 22.3535 56.7328 22.3125C56.6262 22.1812 56.5113 22.05 56.4047 21.9188C54.9445 20.2535 53.4844 19.2609 52.664 18.7852C51.8519 19.2609 50.3918 20.2535 48.9234 21.9188C46.0031 25.2492 44.4281 29.5723 44.2558 34.7812L44.2312 35.6016L43.5586 36.0691C43.5258 36.0938 39.5555 38.9484 40.4414 42.443C40.466 42.5496 40.4988 42.648 40.5234 42.7465C40.5316 42.7711 40.5398 42.7875 40.5398 42.8121C40.5644 42.8859 40.5808 42.9598 40.6055 43.0336C40.6137 43.05 40.6219 43.0664 40.6219 43.091L40.6957 43.3125C40.7039 43.3289 40.7039 43.3371 40.7121 43.3535C40.7367 43.4273 40.7695 43.5012 40.7941 43.575C40.7941 43.5832 40.8023 43.5914 40.8023 43.5996L40.9008 43.8211C40.9008 43.8293 40.909 43.8293 40.909 43.8375C40.9418 43.9113 40.9746 43.9852 41.0156 44.059C41.0894 44.2066 41.1715 44.3461 41.2453 44.4773C41.4832 44.8629 41.7293 45.1746 41.9754 45.4289L41.9918 45.4453L42.0984 45.552C42.1394 45.593 42.1805 45.6258 42.2215 45.6668C42.2543 45.5766 42.2789 45.4781 42.3117 45.3879C42.3199 45.3715 42.3281 45.3469 42.3281 45.3305C42.3527 45.2566 42.3773 45.1828 42.4101 45.109C42.4265 45.0762 42.4347 45.0352 42.4512 45.0023C42.4758 44.9449 42.4922 44.8875 42.5168 44.8301C42.5332 44.7809 42.5578 44.7316 42.5824 44.6824C42.5824 44.6742 42.5906 44.6742 42.5906 44.666C42.7137 44.3789 42.8531 44.1164 42.9926 43.8867L43.0008 43.8785L43.0992 43.7309L43.1074 43.7227C43.173 43.6242 43.2387 43.534 43.3043 43.452L43.3125 43.4437C43.3371 43.4109 43.3699 43.3699 43.4027 43.3371C43.4191 43.3207 43.4355 43.3043 43.4437 43.2879C43.4683 43.2551 43.5012 43.2223 43.5258 43.1977L43.5914 43.132C43.6324 43.091 43.6652 43.05 43.7062 43.0172C43.7308 42.9926 43.7555 42.968 43.7883 42.9434C43.8129 42.927 43.8293 42.9023 43.8539 42.8859L43.9523 42.8121C43.9687 42.7957 43.9851 42.7875 44.0015 42.7711L44.1492 42.6727C44.1656 42.6645 44.182 42.6562 44.1984 42.6398L44.3215 42.566L44.3707 42.5414C44.4281 42.5086 44.4773 42.484 44.5348 42.4594L45.716 41.9344L46.5035 42.9598C46.6594 43.1566 46.8152 43.3617 46.9793 43.5668C47.7586 44.5594 48.5953 45.593 49.2023 46.2902C49.2844 46.3805 49.3582 46.4625 49.4238 46.5445C49.4566 46.5773 49.4812 46.6102 49.514 46.643C49.5223 46.6512 49.5305 46.6594 49.5305 46.6676C49.5633 46.7004 49.5879 46.7332 49.6125 46.7578H55.732C56.4129 46.0359 57.7582 44.3789 58.8492 42.9598L59.6367 41.9098ZM52.4918 34.7238C49.9324 34.7238 47.857 32.6402 47.857 30.0891C47.857 27.5297 49.9406 25.4543 52.4918 25.4543C55.043 25.4543 57.1265 27.5379 57.1265 30.0891C57.1265 32.6402 55.0512 34.7238 52.4918 34.7238Z" fill="white"/>
<path d="M46.61 19.5809C49.276 16.6031 51.9256 15.4465 52.0322 15.3973L52.6803 15.1184L53.3283 15.3973C53.4432 15.4465 56.0928 16.6031 58.7506 19.5809C59.6529 20.5898 60.6291 21.8859 61.5068 23.5102C61.3264 12.3293 52.1635 3.28125 40.9334 3.28125C32.6646 3.28125 25.2654 8.20312 22.0334 15.6926C22.7307 15.9387 23.4033 16.234 24.0596 16.5703C26.3072 17.7352 28.2842 19.425 29.7854 21.4676C30.3186 22.1977 30.1627 23.223 29.4326 23.7645C28.7025 24.2977 27.6771 24.1418 27.1357 23.4117C24.6502 20.032 20.6635 18.0141 16.4799 18.0141C9.18731 18.0141 3.26465 23.9449 3.26465 31.2293C3.26465 38.5219 9.19551 44.4445 16.4799 44.4445H37.6521C37.5127 44.059 37.3814 43.657 37.2748 43.2141C36.1182 38.6285 39.5307 35.1422 41.0318 33.8707C41.4502 26.7668 44.2721 22.1895 46.61 19.5809ZM34.2232 10.623C31.5162 12.1734 30.1709 14.2816 30.1545 14.3062C29.9986 14.5523 29.7279 14.6918 29.4572 14.6918C29.3096 14.6918 29.1537 14.6508 29.0225 14.5688C28.6369 14.3309 28.5221 13.8223 28.7682 13.4367C28.8338 13.3383 30.3514 10.9594 33.4111 9.20391C36.233 7.58789 40.9416 6.21797 47.3564 8.86758C47.7748 9.03984 47.9717 9.52383 47.7994 9.94219C47.6272 10.3605 47.1432 10.5574 46.7248 10.3852C42.0736 8.45742 37.8654 8.53945 34.2232 10.623Z" fill="white"/>
<path d="M45.1909 47.3566C45.3796 47.3238 45.5683 47.291 45.7487 47.25C45.6093 47.0859 45.478 46.9219 45.3468 46.7578C45.2894 46.9465 45.2319 47.1516 45.1909 47.3566Z" fill="#4E78FF"/>
<path d="M60.0223 46.7578C60.1617 47.2336 60.2766 47.775 60.3504 48.2754L60.5719 49.9652L62.2535 49.6781C62.434 49.6453 66.675 48.866 68.0941 43.2223C69.2508 38.6367 65.8383 35.1504 64.3371 33.8789C64.2633 32.632 64.1156 31.4672 63.9105 30.368C64.5012 28.2762 64.8047 26.0941 64.8047 23.8629C64.8047 17.4891 62.3191 11.4926 57.8156 6.98906C53.3039 2.47734 47.3156 0 40.9418 0C31.1719 0 22.4437 5.93086 18.818 14.8969C18.0469 14.7902 17.2676 14.7328 16.4965 14.7328C7.39922 14.7328 0 22.132 0 31.2293C0 40.3266 7.39922 47.7258 16.4965 47.7258H39.7113C41.3191 49.3336 43.0172 49.6535 43.132 49.6699L44.8055 49.9488L45.027 48.2672C45.068 47.9637 45.1254 47.652 45.1992 47.3484C45.2484 47.1434 45.2977 46.9383 45.3551 46.7496C45.4863 46.9137 45.6258 47.0777 45.757 47.2418C46.6184 48.2918 47.5125 49.309 48.0211 49.6863L48.4559 50.0062H56.9297L57.3645 49.6863C57.9387 49.2598 59.0461 47.9555 60.0223 46.7578ZM37.275 43.2223C37.3816 43.657 37.5129 44.0672 37.6523 44.4527H16.4801C9.1875 44.4527 3.26484 38.5219 3.26484 31.2375C3.26484 23.9449 9.1957 18.0223 16.4801 18.0223C20.6719 18.0223 24.6504 20.0402 27.1359 23.4199C27.6691 24.15 28.7027 24.3059 29.4328 23.7727C30.1629 23.2395 30.3187 22.2059 29.7855 21.4758C28.2844 19.4332 26.3074 17.7434 24.0598 16.5785C23.4035 16.2422 22.7309 15.9469 22.0336 15.7008C25.2656 8.20312 32.6648 3.28125 40.9336 3.28125C52.1637 3.28125 61.3266 12.3293 61.5152 23.5184C60.6375 21.8941 59.6613 20.5898 58.759 19.5891C56.093 16.6113 53.4434 15.4547 53.3367 15.4055L52.6887 15.1266L52.0406 15.4055C51.9258 15.4547 49.2762 16.6113 46.6184 19.5891C44.2805 22.1977 41.4586 26.775 41.0402 33.8871C39.5309 35.1504 36.1184 38.6367 37.275 43.2223ZM55.732 46.7332H49.6289C49.6043 46.7004 49.5715 46.6758 49.5469 46.643C49.5387 46.6348 49.5305 46.6266 49.5305 46.6184C49.4977 46.5855 49.473 46.5527 49.4402 46.5199C48.7184 45.716 47.5125 44.2313 46.5199 42.9352L45.7324 41.9098L44.5512 42.4348C44.4937 42.4594 44.4363 42.484 44.3871 42.5168L44.3379 42.5414L44.2148 42.6152C44.1984 42.6234 44.182 42.6316 44.1656 42.648L44.018 42.7465C44.0016 42.7629 43.9852 42.7711 43.9687 42.7875L43.8703 42.8613C43.8457 42.8777 43.8293 42.9023 43.8047 42.9188C43.7801 42.9434 43.7555 42.968 43.7227 42.9926C43.6816 43.0336 43.6406 43.0664 43.6078 43.1074L43.5422 43.173C43.5176 43.2059 43.4848 43.2305 43.4602 43.2633C43.4438 43.2797 43.4273 43.2961 43.4191 43.3125C43.3863 43.3453 43.3617 43.3863 43.3289 43.4191L43.3207 43.4273L43.1238 43.698L43.1156 43.7062L43.0172 43.8539L43.009 43.8621C42.9105 44.018 42.8203 44.1902 42.7383 44.3707C42.6973 44.4609 42.6562 44.5512 42.607 44.6496C42.607 44.6578 42.5988 44.6578 42.5988 44.666C42.5742 44.7152 42.5578 44.7645 42.5332 44.8137C42.5086 44.8711 42.484 44.9285 42.4676 44.9859C42.4512 45.0188 42.443 45.0516 42.4266 45.0926C42.402 45.1664 42.3691 45.2402 42.3445 45.3141C42.3363 45.3305 42.3281 45.3551 42.3281 45.3715C42.2953 45.4617 42.2707 45.552 42.2379 45.6504C42.1969 45.6176 42.1559 45.5766 42.1148 45.5355L42.0082 45.4289L41.9918 45.4125C41.6637 45.0762 41.3191 44.625 41.0238 44.0344C40.991 43.9605 40.95 43.8867 40.9172 43.8129C40.9172 43.8047 40.909 43.8047 40.909 43.7965L40.8105 43.575C40.8105 43.5668 40.8023 43.5586 40.8023 43.5504C40.7695 43.4766 40.7449 43.4027 40.7203 43.3289C40.7121 43.3125 40.7121 43.3043 40.7039 43.2879L40.6301 43.0664C40.6219 43.05 40.6137 43.0336 40.6137 43.009C40.5891 42.9352 40.5645 42.8613 40.548 42.7875C40.5398 42.7629 40.5316 42.7465 40.5316 42.7219C40.507 42.6234 40.4742 42.525 40.4496 42.4184C39.5719 38.9238 43.534 36.0691 43.5668 36.0445L44.2395 35.577L44.2641 34.7566C44.4363 29.5477 46.0031 25.2246 48.9316 21.8941C50.4 20.2289 51.8602 19.2363 52.6723 18.7605C53.4844 19.2363 54.9445 20.2289 56.4129 21.8941C56.5277 22.0254 56.6344 22.1566 56.741 22.2879C56.7738 22.3289 56.7984 22.3617 56.8312 22.4027C56.9133 22.5094 56.9953 22.6078 57.0773 22.7145L57.1512 22.8129C57.2578 22.9441 57.3562 23.0836 57.4547 23.223C57.4711 23.2477 57.4875 23.2723 57.5121 23.2969C57.5941 23.4117 57.6762 23.5266 57.7582 23.6496C57.7828 23.6906 57.8074 23.7316 57.8402 23.7645C57.9223 23.8875 58.0043 24.0187 58.0863 24.15C58.0945 24.1664 58.1109 24.1828 58.1191 24.1992L58.3898 24.6422C58.4062 24.675 58.4309 24.7078 58.4473 24.7406C58.5211 24.8637 58.5867 24.9867 58.6523 25.1098C58.6687 25.1426 58.6934 25.1836 58.7098 25.2164C58.7918 25.3723 58.8738 25.5281 58.9559 25.6922C59.0297 25.848 59.1117 26.0039 59.1773 26.168C59.1937 26.2008 59.2102 26.2418 59.2266 26.2746C59.2922 26.4141 59.3496 26.5535 59.4152 26.7012C59.4234 26.7258 59.4316 26.7504 59.448 26.7668C59.5219 26.9309 59.5875 27.1031 59.6531 27.2754C59.6613 27.3 59.6695 27.3164 59.6777 27.341C59.7352 27.4887 59.7926 27.6445 59.8418 27.7922C59.85 27.825 59.8664 27.8578 59.8746 27.8906C59.9977 28.2352 60.1043 28.5961 60.2109 28.9488C60.2191 28.9816 60.2273 29.0062 60.2355 29.0391C60.2766 29.1949 60.3258 29.359 60.3668 29.5148C60.375 29.5395 60.3832 29.5723 60.3914 29.5969C60.4816 29.9496 60.5637 30.3105 60.6293 30.6715C60.6375 30.7043 60.6457 30.7453 60.6539 30.7781L60.7277 31.1965L60.7523 31.3195C60.777 31.4672 60.8016 31.6066 60.818 31.7543C60.8262 31.7871 60.8262 31.8117 60.8344 31.8445L60.9082 32.3859C60.9328 32.5582 60.9492 32.7387 60.9656 32.9109C60.9738 32.9602 60.9738 33.0094 60.982 33.0668C60.9902 33.198 61.0066 33.3211 61.0148 33.4523C61.023 33.5098 61.023 33.5754 61.0312 33.6328C61.0394 33.7641 61.0477 33.8871 61.0559 34.0184C61.0559 34.0758 61.0641 34.125 61.0641 34.1824C61.0723 34.3629 61.0805 34.5516 61.0887 34.732L61.1133 35.5523L61.5644 35.8641L61.7859 36.0199C61.8269 36.0445 65.7891 38.8992 64.9113 42.402C64.493 44.0508 63.7711 45.0352 63.1148 45.6176C62.5898 43.9113 61.8352 42.8613 60.8262 42.4102L59.6449 41.8852L58.8574 42.9105C57.7664 44.3543 56.4129 46.0113 55.732 46.7332Z" fill="#4E78FF"/>
<path d="M42.4428 45.0836C42.4182 45.1574 42.3853 45.2312 42.3607 45.3051C42.3936 45.2312 42.4182 45.1574 42.4428 45.0836ZM42.5494 44.8129C42.5248 44.8703 42.5002 44.9277 42.4838 44.9852C42.5084 44.9195 42.5248 44.8621 42.5494 44.8129ZM49.5221 46.6176C49.4893 46.5848 49.4646 46.552 49.4318 46.5191C49.4646 46.552 49.4975 46.5848 49.5221 46.6176ZM43.9603 42.7785L43.8619 42.8523C43.9029 42.8277 43.9357 42.8031 43.9603 42.7785ZM43.8045 42.9098C43.7799 42.9344 43.7553 42.959 43.7225 42.9836C43.7471 42.959 43.7799 42.9344 43.8045 42.9098ZM44.5428 42.434C44.4853 42.4586 44.4279 42.4832 44.3787 42.516C44.4361 42.4832 44.4936 42.4586 44.5428 42.434ZM49.6287 46.7324C49.6041 46.6996 49.5713 46.675 49.5467 46.6422C49.5713 46.6668 49.6041 46.6996 49.6287 46.7324ZM42.615 44.6488C42.615 44.657 42.6068 44.657 42.6068 44.6652C42.615 44.657 42.615 44.657 42.615 44.6488ZM43.1318 43.6973L43.1236 43.7055C43.1236 43.7055 43.1236 43.6973 43.1318 43.6973ZM43.0252 43.8531L43.017 43.8613C43.0252 43.8613 43.0252 43.8613 43.0252 43.8531ZM43.46 43.2543C43.4436 43.2707 43.4271 43.2871 43.4189 43.3035C43.4354 43.2953 43.4436 43.2707 43.46 43.2543ZM59.2346 26.2738C59.3002 26.4133 59.3576 26.5527 59.4232 26.7004C59.3658 26.5609 59.3002 26.4133 59.2346 26.2738ZM58.9639 25.6914C59.0377 25.8473 59.1197 26.0031 59.1853 26.1672C59.1115 26.0113 59.0377 25.8473 58.9639 25.6914ZM60.2436 29.0465C60.2846 29.2023 60.3338 29.3664 60.3748 29.5223C60.3256 29.3664 60.2846 29.2105 60.2436 29.0465ZM60.7521 31.327C60.7768 31.4746 60.8014 31.6141 60.8178 31.7617C60.8014 31.6223 60.7768 31.4746 60.7521 31.327ZM59.8826 27.898C60.0057 28.2426 60.1123 28.6035 60.2189 28.9562C60.1123 28.5953 60.0057 28.2426 59.8826 27.898ZM59.4561 26.766C59.5299 26.9301 59.5955 27.1023 59.6611 27.2746C59.5873 27.1105 59.5217 26.9383 59.4561 26.766ZM41.04 44.0254C41.3354 44.6078 41.6717 45.059 42.008 45.4035C41.7619 45.1492 41.5076 44.8375 41.2779 44.452C41.1959 44.3207 41.1221 44.1812 41.04 44.0254Z" fill="#4E78FF"/>
<path d="M46.9875 43.5426C46.8234 43.3375 46.6675 43.1324 46.5117 42.9355C47.5042 44.2234 48.7101 45.7164 49.432 46.5203C49.3582 46.4465 49.2843 46.3562 49.2105 46.266C48.6035 45.5687 47.7668 44.5434 46.9875 43.5426ZM60.6293 30.6801C60.5554 30.3191 60.4734 29.9582 60.3914 29.6055C60.4406 29.7941 60.4816 29.9828 60.5226 30.1715C60.5636 30.3437 60.5964 30.516 60.6293 30.6801ZM60.9082 32.4027C60.9328 32.575 60.9492 32.7555 60.9656 32.9277C60.9492 32.7555 60.9246 32.575 60.9082 32.4027ZM61.0312 33.6496C61.0394 33.7809 61.0476 33.9039 61.0558 34.0352C61.0476 33.9121 61.0394 33.7809 61.0312 33.6496ZM61.064 34.2074C61.0722 34.3879 61.0804 34.5766 61.0886 34.757C61.0804 34.5684 61.0722 34.3879 61.064 34.2074ZM40.7203 43.2883L40.6464 43.0668C40.671 43.1488 40.6957 43.2227 40.7203 43.2883ZM40.5398 42.7305C40.5152 42.632 40.4824 42.5336 40.4578 42.427C40.4824 42.5254 40.507 42.632 40.5398 42.7305ZM41.0402 44.0266C41.0074 43.9527 40.9664 43.8789 40.9335 43.8051C40.9746 43.8871 41.0074 43.9527 41.0402 44.0266ZM56.8476 22.3949C56.9296 22.5016 57.0117 22.6 57.0937 22.7066C57.0117 22.6082 56.9296 22.5016 56.8476 22.3949ZM58.4554 24.7492C58.5293 24.8723 58.5949 24.9953 58.6605 25.1184C58.5949 24.9871 58.5293 24.8641 58.4554 24.7492ZM57.1675 22.8051C57.2742 22.9363 57.3726 23.0758 57.471 23.2152C57.3726 23.084 57.2742 22.9445 57.1675 22.8051Z" fill="#4E78FF"/>
<path d="M52.4917 27.0859C50.8429 27.0859 49.4976 28.4312 49.4976 30.0801C49.4976 31.7289 50.8429 33.0742 52.4917 33.0742C54.1405 33.0742 55.4858 31.7289 55.4858 30.0801C55.4858 28.4312 54.1405 27.0859 52.4917 27.0859Z" fill="white"/>
<path d="M52.4917 25.4453C49.9323 25.4453 47.8569 27.5289 47.8569 30.0801C47.8569 32.6395 49.9405 34.7148 52.4917 34.7148C55.0429 34.7148 57.1265 32.6313 57.1265 30.0801C57.1265 27.5289 55.0511 25.4453 52.4917 25.4453ZM52.4917 33.0824C50.8429 33.0824 49.4976 31.7371 49.4976 30.0883C49.4976 28.4395 50.8429 27.0941 52.4917 27.0941C54.1405 27.0941 55.4858 28.4395 55.4858 30.0883C55.4858 31.7371 54.1405 33.0824 52.4917 33.0824ZM50.3179 51.5887C49.8667 51.5887 49.4976 51.9578 49.4976 52.409V60.5629C49.4976 61.0141 49.8667 61.3832 50.3179 61.3832C50.769 61.3832 51.1382 61.0141 51.1382 60.5629V52.409C51.1382 51.9578 50.769 51.5887 50.3179 51.5887Z" fill="#FF8D67"/>
<path d="M55.3711 50.769C54.4687 50.769 53.7304 51.5073 53.7304 52.4097V54.7722C53.7304 55.6745 54.4687 56.4128 55.3711 56.4128C56.2734 56.4128 57.0117 55.6745 57.0117 54.7722V52.4097C57.0117 51.4991 56.2734 50.769 55.3711 50.769ZM47.7996 9.93388C47.9718 9.51552 47.775 9.03154 47.3566 8.85927C40.9418 6.20966 36.2332 7.57958 33.4113 9.1956C30.3515 10.9511 28.8339 13.33 28.7683 13.4284C28.5304 13.814 28.6453 14.3143 29.0226 14.5604C29.1621 14.6425 29.3097 14.6835 29.4574 14.6835C29.7281 14.6835 29.9988 14.544 30.1547 14.2979C30.1711 14.2733 31.5164 12.1651 34.2234 10.6147C37.8574 8.53115 42.0656 8.44911 46.725 10.3686C47.1433 10.5573 47.6273 10.3522 47.7996 9.93388Z" fill="#4E78FF"/>
</svg>
