<svg width="45" height="51" viewBox="0 0 45 51" fill="none" xmlns="http://www.w3.org/2000/svg">
<path d="M22.0986 1.5293C22.2563 1.49033 22.4215 1.49033 22.5791 1.5293V1.52832L40.5186 6.10156L40.5254 6.10352C41.3264 6.30347 42.0311 6.7801 42.5146 7.44922C42.9978 8.11796 43.2292 8.93609 43.168 9.75879L42.1182 23.5332C41.7186 28.7241 39.9052 33.7066 36.874 37.9395C33.8428 42.1723 29.7096 45.494 24.9238 47.5439L24.9189 47.5459L22.7246 48.4932C22.6024 48.5443 22.4713 48.5713 22.3389 48.5713C22.2064 48.5713 22.0753 48.5443 21.9531 48.4932L19.7588 47.5459L19.7549 47.5439L19.3076 47.3486C14.7112 45.2862 10.7413 42.0401 7.80469 37.9395C4.86799 33.8386 3.07397 29.0345 2.60156 24.0186L2.55957 23.5332L1.50977 9.75879C1.44858 8.9361 1.67993 8.11795 2.16309 7.44922C2.64665 6.78003 3.35131 6.30348 4.15234 6.10352L4.15918 6.10156L22.0977 1.52832L22.0986 1.5293Z" stroke="#194BED" stroke-width="3"/>
<path d="M19.8388 30.0727C19.5098 30.0746 19.1837 30.0116 18.8791 29.8872C18.5745 29.7627 18.2974 29.5794 18.0638 29.3477L13.0638 24.3477C12.5931 23.877 12.3286 23.2385 12.3286 22.5727C12.3286 21.907 12.5931 21.2685 13.0638 20.7977C13.5346 20.327 14.1731 20.0625 14.8388 20.0625C15.5046 20.0625 16.1431 20.327 16.6138 20.7977L19.8388 24.0477L28.0638 15.7977C28.5346 15.327 29.1731 15.0625 29.8388 15.0625C30.5046 15.0625 31.1431 15.327 31.6138 15.7977C32.0846 16.2685 32.3491 16.907 32.3491 17.5727C32.3491 18.2385 32.0846 18.877 31.6138 19.3477L21.6138 29.3477C21.3802 29.5794 21.1032 29.7627 20.7986 29.8872C20.494 30.0116 20.1679 30.0746 19.8388 30.0727Z" fill="#F05A28"/>
</svg>
