<svg width="314" height="58" viewBox="0 0 314 58" fill="none" xmlns="http://www.w3.org/2000/svg">
<path d="M302.667 51.7143C302.667 54.6598 305.054 57.0476 308 57.0476C310.946 57.0476 313.333 54.6598 313.333 51.7143C313.333 48.7688 310.946 46.381 308 46.381C305.054 46.381 302.667 48.7688 302.667 51.7143ZM-1 2L63.9472 2V1.84774e-06L-1 0L-1 2ZM228.921 55.4008L308.034 52.7137L307.966 50.7149L228.853 53.402L228.921 55.4008ZM143.548 28.5391C168.111 46.9654 198.233 56.4431 228.921 55.4008L228.853 53.402C198.621 54.4288 168.946 45.0918 144.749 26.9393L143.548 28.5391ZM63.9472 2C92.6536 2 120.585 11.3125 143.548 28.5391L144.749 26.9393C121.439 9.45289 93.0864 2.68221e-06 63.9472 1.84774e-06V2Z" fill="#D4DEFF"/>
</svg>
