<svg width="23" height="23" viewBox="0 0 23 23" fill="none" xmlns="http://www.w3.org/2000/svg">
<path d="M9.19777 1.37448C9.80079 -0.459073 12.3945 -0.45907 12.9975 1.37448L14.6182 6.30211C14.8166 6.90548 15.2898 7.37872 15.8932 7.57716L20.8208 9.19777C22.6544 9.80079 22.6544 12.3945 20.8208 12.9975L15.8932 14.6182C15.2898 14.8166 14.8166 15.2898 14.6182 15.8932L12.9975 20.8208C12.3945 22.6544 9.80079 22.6544 9.19777 20.8208L7.57716 15.8932C7.37872 15.2898 6.90548 14.8166 6.30211 14.6182L1.37448 12.9975C-0.459073 12.3945 -0.45907 9.80079 1.37448 9.19777L6.30211 7.57716C6.90548 7.37872 7.37872 6.90548 7.57716 6.30211L9.19777 1.37448Z" fill="#FF8D67"/>
</svg>
